<?xml version="1.0" encoding="iso-8859-1"?>
<!-- Generator: Adobe Illustrator 22.0.1, SVG Export Plug-In . SVG Version: 6.00 Build 0)  -->
<svg version="1.1" xmlns="http://www.w3.org/2000/svg" xmlns:xlink="http://www.w3.org/1999/xlink" x="0px" y="0px"
	 viewBox="0 0 512 512" style="enable-background:new 0 0 512 512;" xml:space="preserve">
<g id="BULINE">
	<circle id="XMLID_1649_" style="fill:#F78F8B;" cx="256" cy="256" r="256"/>
</g>
<g id="Icons">
	<g id="XMLID_1644_">
		<g id="XMLID_1648_">
			<path id="XMLID_1670_" style="fill:#FFFFFF;" d="M361.62,22.74c-5.4,25.94-28.44,45.5-55.96,45.5
				c-18.99,0-35.08,12.61-40.34,29.91c-1.18,3.88-1.82,7.99-1.82,12.25v1.34h-15v-1.34c0-4.2,0.46-8.3,1.33-12.25
				c5.61-25.65,28.51-44.91,55.83-44.91c21.3,0,38.96-15.88,41.76-36.43C352.23,18.65,356.96,20.63,361.62,22.74z"/>
		</g>
		<g id="XMLID_1646_">
			<path id="XMLID_1647_" style="fill:#27273D;" d="M152.965,269.229l-22.388,34.147c-2.379,3.629-3.681,8.194-3.681,12.908v83.681
				c0,11.547,4.358,22.4,11.73,29.214l41.567,38.42l-6.125-196.539L152.965,269.229z"/>
			<path id="XMLID_1650_" style="fill:#27273D;" d="M355.311,215.521l26.867,43.036c1.912,3.063,2.926,6.601,2.926,10.212v106.782
				c0,4.522-1.589,8.899-4.489,12.368l-25.304,30.267V215.521z"/>
			<path id="XMLID_1651_" style="fill:#3E436D;" d="M303.793,125.325H256h-47.793l-48.625,33.509
				c-4.143,2.855-6.617,7.565-6.617,12.596v227.612c0,55.196,44.745,99.941,99.941,99.941h6.189
				c55.196,0,99.941-44.745,99.941-99.941V171.431c0-5.031-2.474-9.741-6.617-12.596L303.793,125.325z"/>
			<path id="XMLID_1652_" style="fill:#32314B;" d="M358.622,302.404v96.642c0,55.192-44.752,99.932-99.944,99.932h-6.195
				c-55.192,0-99.932-44.74-99.932-99.932v-96.642c0,55.205,44.74,99.944,99.932,99.944h6.195
				C313.869,402.348,358.622,357.608,358.622,302.404z"/>
			<path id="XMLID_1653_" style="fill:#38C689;" d="M359.035,302.404v33.145c0,55.192-44.752,99.932-99.944,99.932h-6.195
				c-55.192,0-99.932-44.74-99.932-99.932v-33.145c0,55.205,44.74,99.944,99.932,99.944h6.195
				C314.283,402.348,359.035,357.608,359.035,302.404z"/>
			<path id="XMLID_1654_" style="fill:#27273D;" d="M255.65,391.713L255.65,391.713c-3.85,0-6.971-3.121-6.971-6.971V276.2
				c0-3.85,3.121-6.971,6.971-6.971l0,0c3.85,0,6.971,3.121,6.971,6.971v108.542C262.621,388.592,259.5,391.713,255.65,391.713z"/>
			<path id="XMLID_1655_" style="fill:#DD1B1B;" d="M226.62,125.325v132.91c0,2.872,0.706,5.699,2.055,8.234l7.652,14.377
				c2.43,4.565,7.18,7.418,12.352,7.418H256h7.321c5.172,0,9.922-2.853,12.352-7.418l7.652-14.377
				c1.349-2.535,2.055-5.362,2.055-8.234v-132.91H226.62z"/>
			<path id="XMLID_1656_" style="fill:#BC1D1D;" d="M264.694,288.193c-0.447,0.05-0.906,0.074-1.366,0.074H248.68
				c-5.164,0-9.919-2.855-12.352-7.424l-7.647-14.375c-1.353-2.532-2.061-5.363-2.061-8.23V125.322H244v132.916
				c0,2.868,0.708,5.698,2.061,8.23l7.647,14.375C255.93,285.002,260.063,287.746,264.694,288.193z"/>
			<path id="XMLID_1657_" style="fill:#FFFFFF;" d="M257.497,223.14h-3.821c-6.944,0-12.572-5.629-12.572-12.572v-43.862
				c0-6.944,5.629-12.572,12.572-12.572h3.821c6.944,0,12.572,5.629,12.572,12.572v43.862
				C270.069,217.511,264.44,223.14,257.497,223.14z"/>
			<path id="XMLID_1658_" style="fill:#38C689;" d="M152.965,210.057v92.347l20.922-10.865c3.875-2.012,6.306-6.015,6.306-10.381
				v-36.675c0-10.86-5.603-20.952-14.82-26.695L152.965,210.057z"/>
			<path id="XMLID_1659_" style="fill:#38C689;" d="M358.622,210.057v92.347l-20.922-10.865c-3.875-2.012-6.306-6.015-6.306-10.381
				v-36.675c0-10.86,5.603-20.952,14.82-26.695L358.622,210.057z"/>
		</g>
		<path id="XMLID_1660_" style="fill:#27273D;" d="M269.91,98.153h-27.82c-8.544,0-15.469,6.926-15.469,15.469v11.703h58.759
			v-11.703C285.38,105.079,278.454,98.153,269.91,98.153z"/>
	</g>
</g>
</svg>
