<?xml version="1.0" encoding="iso-8859-1"?>
<!-- Generator: Adobe Illustrator 22.0.1, SVG Export Plug-In . SVG Version: 6.00 Build 0)  -->
<svg version="1.1" xmlns="http://www.w3.org/2000/svg" xmlns:xlink="http://www.w3.org/1999/xlink" x="0px" y="0px"
	 viewBox="0 0 512 512" style="enable-background:new 0 0 512 512;" xml:space="preserve">
<g id="BULINE">
	<path style="fill:#24D3B5;" d="M512,256c0,1.47-0.01,2.94-0.04,4.41c-0.01,1.04-0.04,2.09-0.07,3.13c-0.04,1.58-0.1,3.15-0.18,4.73
		c-0.05,1.01-0.1,2.02-0.16,3.03c-0.09,1.47-0.19,2.94-0.3,4.4c-0.09,1.24-0.19,2.48-0.31,3.72c-0.02,0.24-0.04,0.47-0.06,0.7
		c-0.1,1.07-0.21,2.13-0.32,3.19c-0.01,0.14-0.03,0.27-0.05,0.41c-0.1,0.95-0.2,1.9-0.32,2.85c-0.05,0.47-0.11,0.94-0.18,1.41
		c-0.12,1.06-0.26,2.13-0.41,3.19c-0.17,1.28-0.36,2.55-0.55,3.82c-0.16,1.06-0.33,2.12-0.51,3.17c-0.12,0.77-0.26,1.54-0.4,2.31
		c-0.15,0.9-0.31,1.79-0.48,2.67c-0.15,0.87-0.32,1.73-0.49,2.59c-0.17,0.87-0.35,1.74-0.53,2.6c-0.16,0.8-0.33,1.59-0.5,2.38
		c-0.46,2.09-0.94,4.17-1.44,6.23c-0.18,0.73-0.36,1.45-0.54,2.17c-0.11,0.43-0.22,0.85-0.33,1.28c-0.19,0.75-0.39,1.5-0.59,2.25
		c-0.07,0.26-0.14,0.53-0.22,0.79c-0.19,0.71-0.39,1.43-0.59,2.14c-0.28,0.99-0.56,1.97-0.85,2.95c-0.35,1.2-0.72,2.4-1.09,3.6
		c-0.47,1.51-0.95,3.01-1.45,4.51c-0.3,0.9-0.6,1.79-0.91,2.68c-0.35,1.04-0.72,2.08-1.09,3.11c-0.1,0.27-0.19,0.54-0.29,0.8
		c-0.33,0.91-0.66,1.82-1.01,2.72c-1.44,3.86-2.98,7.68-4.61,11.45c-0.35,0.81-0.71,1.62-1.06,2.43c-1.08,2.42-2.19,4.81-3.34,7.19
		c-0.54,1.12-1.08,2.23-1.64,3.34c-0.56,1.11-1.12,2.22-1.69,3.32C440.8,455.85,354.96,512,256,512S71.2,455.85,28.6,373.67
		c-0.57-1.1-1.13-2.21-1.69-3.32c-0.56-1.11-1.1-2.22-1.64-3.34c-1.15-2.38-2.26-4.77-3.34-7.19c-0.35-0.81-0.71-1.62-1.06-2.43
		c-1.63-3.77-3.17-7.59-4.61-11.45c-0.35-0.9-0.68-1.81-1.01-2.72c-0.1-0.26-0.19-0.53-0.29-0.8c-0.37-1.03-0.74-2.07-1.09-3.11
		c-0.31-0.89-0.61-1.78-0.91-2.68c-0.5-1.5-0.98-3-1.45-4.51c-0.37-1.2-0.74-2.4-1.09-3.6c-0.29-0.98-0.57-1.96-0.85-2.95
		c-0.2-0.71-0.4-1.43-0.59-2.14c-0.08-0.26-0.15-0.53-0.21-0.79c-0.21-0.75-0.41-1.5-0.6-2.25c-0.11-0.43-0.22-0.85-0.33-1.28
		c-0.18-0.72-0.36-1.44-0.54-2.17c-0.5-2.06-0.98-4.14-1.44-6.23c-0.17-0.79-0.34-1.58-0.5-2.38c-0.18-0.86-0.36-1.73-0.53-2.6
		c-0.17-0.86-0.34-1.72-0.49-2.59c-0.17-0.88-0.33-1.77-0.48-2.67c-0.14-0.77-0.28-1.54-0.4-2.31c-0.18-1.05-0.35-2.11-0.51-3.17
		c-0.19-1.27-0.38-2.54-0.55-3.82c-0.15-1.06-0.29-2.13-0.41-3.19c-0.07-0.47-0.13-0.94-0.18-1.41c-0.12-0.95-0.22-1.9-0.32-2.85
		c-0.02-0.14-0.04-0.27-0.05-0.41c-0.11-1.06-0.22-2.12-0.32-3.19c-0.02-0.23-0.04-0.46-0.06-0.7c-0.12-1.24-0.22-2.48-0.31-3.72
		c-0.11-1.46-0.21-2.93-0.3-4.4c-0.06-1.01-0.11-2.02-0.16-3.03c-0.08-1.58-0.14-3.15-0.18-4.73c-0.03-1.04-0.06-2.09-0.07-3.13
		C0.01,258.94,0,257.47,0,256c0-1.08,0.01-2.15,0.02-3.23v-0.3c0.02-1.02,0.04-2.03,0.06-3.05v-0.04c0.02-0.89,0.05-1.8,0.08-2.7
		c1.01-27.86,6.46-54.58,15.67-79.48C51.93,69.59,145.84,0,256,0s204.07,69.59,240.17,167.2c9.51,25.7,15.01,53.35,15.75,82.18v0.04
		c0.02,1.02,0.04,2.03,0.06,3.05v0.3C511.99,253.85,512,254.92,512,256z"/>
</g>
<g id="Icons">
	<g id="XMLID_1539_">
		<path id="XMLID_1645_" style="fill:#4B4C9B;" d="M512,256c0,42.42-10.32,82.44-28.6,117.67c-13.07,25.22-30.21,47.99-50.56,67.44
			H79.16c-20.35-19.45-37.49-42.22-50.56-67.44C10.32,338.44,0,298.42,0,256c0-27.5,4.34-53.98,12.36-78.8
			c6.1-18.86,14.32-36.77,24.4-53.43h438.48c10.08,16.66,18.3,34.57,24.4,53.43C507.66,202.02,512,228.5,512,256z"/>
		<path id="XMLID_243_" style="fill:#FE4583;" d="M512,256c0,1.47-0.01,2.94-0.04,4.41c-0.01,1.04-0.04,2.09-0.07,3.13
			c-0.04,1.58-0.1,3.15-0.18,4.73c-0.05,1.01-0.1,2.02-0.16,3.03c-0.09,1.47-0.19,2.94-0.3,4.4c-0.09,1.24-0.19,2.48-0.31,3.72
			c-0.02,0.24-0.04,0.47-0.06,0.7c-0.1,1.07-0.21,2.13-0.32,3.19c-0.01,0.14-0.03,0.27-0.05,0.41c-0.1,0.95-0.2,1.9-0.32,2.85
			c-0.05,0.47-0.11,0.94-0.18,1.41c-0.12,1.06-0.26,2.13-0.41,3.19c-0.17,1.28-0.36,2.55-0.55,3.82c-0.16,1.06-0.33,2.12-0.51,3.17
			c-0.12,0.77-0.26,1.54-0.4,2.31c-0.15,0.9-0.31,1.79-0.48,2.67c-0.15,0.87-0.32,1.73-0.49,2.59c-0.17,0.87-0.35,1.74-0.53,2.6
			c-0.16,0.8-0.33,1.59-0.5,2.38c-0.46,2.09-0.94,4.17-1.44,6.23c-0.18,0.73-0.36,1.45-0.54,2.17c-0.11,0.43-0.22,0.85-0.33,1.28
			c-0.19,0.75-0.39,1.5-0.59,2.25c-0.07,0.26-0.14,0.53-0.22,0.79c-0.19,0.71-0.39,1.43-0.59,2.14c-0.28,0.99-0.56,1.97-0.85,2.95
			c-0.35,1.2-0.72,2.4-1.09,3.6c-0.47,1.51-0.95,3.01-1.45,4.51c-0.3,0.9-0.6,1.79-0.91,2.68c-0.35,1.04-0.72,2.08-1.09,3.11
			c-0.1,0.27-0.19,0.54-0.29,0.8c-0.33,0.91-0.66,1.82-1.01,2.72c-1.44,3.86-2.98,7.68-4.61,11.45c-0.35,0.81-0.71,1.62-1.06,2.43
			c-1.08,2.42-2.19,4.81-3.34,7.19c-0.54,1.12-1.08,2.23-1.64,3.34c-0.56,1.11-1.12,2.22-1.69,3.32H28.6
			c-0.57-1.1-1.13-2.21-1.69-3.32c-0.56-1.11-1.1-2.22-1.64-3.34c-1.15-2.38-2.26-4.77-3.34-7.19c-0.35-0.81-0.71-1.62-1.06-2.43
			c-1.63-3.77-3.17-7.59-4.61-11.45c-0.35-0.9-0.68-1.81-1.01-2.72c-0.1-0.26-0.19-0.53-0.29-0.8c-0.37-1.03-0.74-2.07-1.09-3.11
			c-0.31-0.89-0.61-1.78-0.91-2.68c-0.5-1.5-0.98-3-1.45-4.51c-0.37-1.2-0.74-2.4-1.09-3.6c-0.29-0.98-0.57-1.96-0.85-2.95
			c-0.2-0.71-0.4-1.43-0.59-2.14c-0.08-0.26-0.15-0.53-0.21-0.79c-0.21-0.75-0.41-1.5-0.6-2.25c-0.11-0.43-0.22-0.85-0.33-1.28
			c-0.18-0.72-0.36-1.44-0.54-2.17c-0.5-2.06-0.98-4.14-1.44-6.23c-0.17-0.79-0.34-1.58-0.5-2.38c-0.18-0.86-0.36-1.73-0.53-2.6
			c-0.17-0.86-0.34-1.72-0.49-2.59c-0.17-0.88-0.33-1.77-0.48-2.67c-0.14-0.77-0.28-1.54-0.4-2.31c-0.18-1.05-0.35-2.11-0.51-3.17
			c-0.19-1.27-0.38-2.54-0.55-3.82c-0.15-1.06-0.29-2.13-0.41-3.19c-0.07-0.47-0.13-0.94-0.18-1.41c-0.12-0.95-0.22-1.9-0.32-2.85
			c-0.02-0.14-0.04-0.27-0.05-0.41c-0.11-1.06-0.22-2.12-0.32-3.19c-0.02-0.23-0.04-0.46-0.06-0.7c-0.12-1.24-0.22-2.48-0.31-3.72
			c-0.11-1.46-0.21-2.93-0.3-4.4c-0.06-1.01-0.11-2.02-0.16-3.03c-0.08-1.58-0.14-3.15-0.18-4.73c-0.03-1.04-0.06-2.09-0.07-3.13
			C0.01,258.94,0,257.47,0,256c0-1.08,0.01-2.15,0.02-3.23v-0.3c0.02-1.02,0.04-2.03,0.06-3.05v-0.04c0.02-0.89,0.05-1.8,0.08-2.7
			c1.01-27.86,6.46-54.58,15.67-79.48h480.34c9.51,25.7,15.01,53.35,15.75,82.18v0.04c0.02,1.02,0.04,2.03,0.06,3.05v0.3
			C511.99,253.85,512,254.92,512,256z"/>
		<g id="XMLID_1553_">
			<path id="XMLID_1585_" style="fill:#32314B;" d="M27.944,188.914V316.74c0,5.755,4.665,10.42,10.42,10.42h168.15
				c4.784,0,9.25,2.4,11.89,6.389l7.339,11.09c2.144,3.239,5.769,5.188,9.654,5.188h109.455c6.393,0,11.576-5.183,11.576-11.576
				v-11.09V188.914c0-5.755-4.665-10.42-10.42-10.42H38.364C32.609,178.494,27.944,183.159,27.944,188.914z"/>
			<path id="XMLID_1584_" style="fill:#27273D;" d="M39.342,210.432v95.671c0,4.307,4.254,7.799,9.501,7.799h169.332
				c4.362,0,8.434,1.796,10.841,4.782l6.691,8.3c1.955,2.425,5.26,3.883,8.802,3.883h83.778c5.829,0,10.555-3.879,10.555-8.664
				v-8.301v-103.47c0-4.307-4.254-7.799-9.501-7.799H48.843C43.596,202.633,39.342,206.125,39.342,210.432z"/>
			<path id="XMLID_1583_" style="fill:#EA8032;" d="M65.179,223.077H41.506c-1.195,0-2.164-0.969-2.164-2.164v-15.116
				c0-1.195,0.969-2.164,2.164-2.164h23.673c1.195,0,2.164,0.969,2.164,2.164v15.116C67.342,222.108,66.374,223.077,65.179,223.077z
				"/>
			<path id="XMLID_1582_" style="fill:#EA8032;" d="M65.179,282.688H41.506c-1.195,0-2.164-0.969-2.164-2.164v-15.116
				c0-1.195,0.969-2.164,2.164-2.164h23.673c1.195,0,2.164,0.969,2.164,2.164v15.116C67.342,281.719,66.374,282.688,65.179,282.688z
				"/>
			<path id="XMLID_1581_" style="fill:#EA8032;" d="M65.179,311.355H41.506c-1.195,0-2.164-0.969-2.164-2.164v-15.116
				c0-1.195,0.969-2.164,2.164-2.164h23.673c1.195,0,2.164,0.969,2.164,2.164v15.116C67.342,310.386,66.374,311.355,65.179,311.355z
				"/>
			<path id="XMLID_1580_" style="fill:#EA8032;" d="M74.179,253.242H41.506c-1.195,0-2.164-0.969-2.164-2.164v-15.116
				c0-1.195,0.969-2.164,2.164-2.164h32.673c1.195,0,2.164,0.969,2.164,2.164v15.116C76.342,252.274,75.374,253.242,74.179,253.242z
				"/>
			<path id="XMLID_1579_" style="fill:#3588CD;" d="M313.006,223.077h23.673c1.195,0,2.164-0.969,2.164-2.164v-15.116
				c0-1.195-0.969-2.164-2.164-2.164h-23.673c-1.195,0-2.164,0.969-2.164,2.164v15.116
				C310.842,222.108,311.811,223.077,313.006,223.077z"/>
			<path id="XMLID_1578_" style="fill:#3588CD;" d="M313.006,282.688h23.673c1.195,0,2.164-0.969,2.164-2.164v-15.116
				c0-1.195-0.969-2.164-2.164-2.164h-23.673c-1.195,0-2.164,0.969-2.164,2.164v15.116
				C310.842,281.719,311.811,282.688,313.006,282.688z"/>
			<path id="XMLID_1577_" style="fill:#3588CD;" d="M313.006,311.355h23.673c1.195,0,2.164-0.969,2.164-2.164v-15.116
				c0-1.195-0.969-2.164-2.164-2.164h-23.673c-1.195,0-2.164,0.969-2.164,2.164v15.116
				C310.842,310.386,311.811,311.355,313.006,311.355z"/>
			<path id="XMLID_1576_" style="fill:#3588CD;" d="M304.006,253.242h32.673c1.195,0,2.164-0.969,2.164-2.164v-15.116
				c0-1.195-0.969-2.164-2.164-2.164h-32.673c-1.195,0-2.164,0.969-2.164,2.164v15.116
				C301.842,252.274,302.811,253.242,304.006,253.242z"/>
			<path id="XMLID_1575_" style="fill:#F8C952;" d="M218.54,311.355h-94.894c-2.1,0-3.803-1.703-3.803-3.803v-11.838
				c0-2.1,1.703-3.803,3.803-3.803h94.894c2.1,0,3.803,1.703,3.803,3.803v11.838C222.342,309.652,220.64,311.355,218.54,311.355z"/>
			<path id="XMLID_1574_" style="fill:#FE4583;" d="M101.034,223.077H87.15c-2.103,0-3.808-1.705-3.808-3.808v-11.827
				c0-2.103,1.705-3.808,3.808-3.808h13.884c2.103,0,3.808,1.705,3.808,3.808v11.827
				C104.842,221.372,103.137,223.077,101.034,223.077z"/>
			<path id="XMLID_1573_" style="fill:#FE4583;" d="M101.034,253.242H87.15c-2.103,0-3.808-1.705-3.808-3.808v-11.827
				c0-2.103,1.705-3.808,3.808-3.808h13.884c2.103,0,3.808,1.705,3.808,3.808v11.827
				C104.842,251.537,103.137,253.242,101.034,253.242z"/>
			<path id="XMLID_1572_" style="fill:#FE4583;" d="M101.034,283.408H87.15c-2.103,0-3.808-1.705-3.808-3.808v-11.827
				c0-2.103,1.705-3.808,3.808-3.808h13.884c2.103,0,3.808,1.705,3.808,3.808V279.6
				C104.842,281.703,103.137,283.408,101.034,283.408z"/>
			<path id="XMLID_1571_" style="fill:#EA2D88;" d="M137.534,223.077H123.65c-2.103,0-3.808-1.705-3.808-3.808v-11.827
				c0-2.103,1.705-3.808,3.808-3.808h13.884c2.103,0,3.808,1.705,3.808,3.808v11.827
				C141.342,221.372,139.637,223.077,137.534,223.077z"/>
			<path id="XMLID_1570_" style="fill:#EA2D88;" d="M137.534,253.242H123.65c-2.103,0-3.808-1.705-3.808-3.808v-11.827
				c0-2.103,1.705-3.808,3.808-3.808h13.884c2.103,0,3.808,1.705,3.808,3.808v11.827
				C141.342,251.537,139.637,253.242,137.534,253.242z"/>
			<path id="XMLID_1569_" style="fill:#EA2D88;" d="M137.534,283.408H123.65c-2.103,0-3.808-1.705-3.808-3.808v-11.827
				c0-2.103,1.705-3.808,3.808-3.808h13.884c2.103,0,3.808,1.705,3.808,3.808V279.6
				C141.342,281.703,139.637,283.408,137.534,283.408z"/>
			<path id="XMLID_1568_" style="fill:#F8C952;" d="M173.034,223.077H159.15c-2.103,0-3.808-1.705-3.808-3.808v-11.827
				c0-2.103,1.705-3.808,3.808-3.808h13.884c2.103,0,3.808,1.705,3.808,3.808v11.827
				C176.842,221.372,175.137,223.077,173.034,223.077z"/>
			<path id="XMLID_1567_" style="fill:#F8C952;" d="M173.034,253.242H159.15c-2.103,0-3.808-1.705-3.808-3.808v-11.827
				c0-2.103,1.705-3.808,3.808-3.808h13.884c2.103,0,3.808,1.705,3.808,3.808v11.827
				C176.842,251.537,175.137,253.242,173.034,253.242z"/>
			<path id="XMLID_1566_" style="fill:#F8C952;" d="M173.034,283.408H159.15c-2.103,0-3.808-1.705-3.808-3.808v-11.827
				c0-2.103,1.705-3.808,3.808-3.808h13.884c2.103,0,3.808,1.705,3.808,3.808V279.6
				C176.842,281.703,175.137,283.408,173.034,283.408z"/>
			<path id="XMLID_1565_" style="fill:#F9BD38;" d="M209.878,223.077h-13.884c-2.103,0-3.808-1.705-3.808-3.808v-11.827
				c0-2.103,1.705-3.808,3.808-3.808h13.884c2.103,0,3.808,1.705,3.808,3.808v11.827
				C213.686,221.372,211.981,223.077,209.878,223.077z"/>
			<path id="XMLID_1564_" style="fill:#F9BD38;" d="M209.878,253.242h-13.884c-2.103,0-3.808-1.705-3.808-3.808v-11.827
				c0-2.103,1.705-3.808,3.808-3.808h13.884c2.103,0,3.808,1.705,3.808,3.808v11.827
				C213.686,251.537,211.981,253.242,209.878,253.242z"/>
			<path id="XMLID_1563_" style="fill:#F9BD38;" d="M209.878,283.408h-13.884c-2.103,0-3.808-1.705-3.808-3.808v-11.827
				c0-2.103,1.705-3.808,3.808-3.808h13.884c2.103,0,3.808,1.705,3.808,3.808V279.6
				C213.686,281.703,211.981,283.408,209.878,283.408z"/>
			<path id="XMLID_1562_" style="fill:#38C689;" d="M249.034,223.077H235.15c-2.103,0-3.808-1.705-3.808-3.808v-11.827
				c0-2.103,1.705-3.808,3.808-3.808h13.884c2.103,0,3.808,1.705,3.808,3.808v11.827
				C252.842,221.372,251.137,223.077,249.034,223.077z"/>
			<path id="XMLID_1561_" style="fill:#38C689;" d="M249.034,253.242H235.15c-2.103,0-3.808-1.705-3.808-3.808v-11.827
				c0-2.103,1.705-3.808,3.808-3.808h13.884c2.103,0,3.808,1.705,3.808,3.808v11.827
				C252.842,251.537,251.137,253.242,249.034,253.242z"/>
			<path id="XMLID_1560_" style="fill:#38C689;" d="M249.034,283.408H235.15c-2.103,0-3.808-1.705-3.808-3.808v-11.827
				c0-2.103,1.705-3.808,3.808-3.808h13.884c2.103,0,3.808,1.705,3.808,3.808V279.6
				C252.842,281.703,251.137,283.408,249.034,283.408z"/>
			<path id="XMLID_1559_" style="fill:#FE4583;" d="M101.034,313.574H87.15c-2.103,0-3.808-1.705-3.808-3.808v-11.828
				c0-2.103,1.705-3.808,3.808-3.808h13.884c2.103,0,3.808,1.705,3.808,3.808v11.828
				C104.842,311.869,103.137,313.574,101.034,313.574z"/>
			<path id="XMLID_1558_" style="fill:#38C689;" d="M249.034,313.574H235.15c-2.103,0-3.808-1.705-3.808-3.808v-11.828
				c0-2.103,1.705-3.808,3.808-3.808h13.884c2.103,0,3.808,1.705,3.808,3.808v11.828
				C252.842,311.869,251.137,313.574,249.034,313.574z"/>
			<path id="XMLID_1557_" style="fill:#00B764;" d="M284.534,223.077h-13.884c-2.103,0-3.808-1.705-3.808-3.808v-11.827
				c0-2.103,1.705-3.808,3.808-3.808h13.884c2.103,0,3.808,1.705,3.808,3.808v11.827
				C288.342,221.372,286.637,223.077,284.534,223.077z"/>
			<path id="XMLID_1556_" style="fill:#00B764;" d="M284.534,253.242h-13.884c-2.103,0-3.808-1.705-3.808-3.808v-11.827
				c0-2.103,1.705-3.808,3.808-3.808h13.884c2.103,0,3.808,1.705,3.808,3.808v11.827
				C288.342,251.537,286.637,253.242,284.534,253.242z"/>
			<path id="XMLID_1555_" style="fill:#00B764;" d="M284.534,283.408h-13.884c-2.103,0-3.808-1.705-3.808-3.808v-11.827
				c0-2.103,1.705-3.808,3.808-3.808h13.884c2.103,0,3.808,1.705,3.808,3.808V279.6
				C288.342,281.703,286.637,283.408,284.534,283.408z"/>
			<path id="XMLID_1554_" style="fill:#00B764;" d="M284.534,313.574h-13.884c-2.103,0-3.808-1.705-3.808-3.808v-11.828
				c0-2.103,1.705-3.808,3.808-3.808h13.884c2.103,0,3.808,1.705,3.808,3.808v11.828
				C288.342,311.869,286.637,313.574,284.534,313.574z"/>
		</g>
		<g id="XMLID_1543_">
			<path id="XMLID_1552_" style="fill:#32314B;" d="M486.307,243.121v62.09c0,24.641-19.975,44.616-44.616,44.616h-11.929
				c-24.641,0-44.616-19.975-44.616-44.616v-62.09c0-13.8,7.969-26.369,20.452-32.257l11.032-5.2
				c3.777-1.78,8.122,0.975,8.122,5.151v55.507c0,6.061,4.914,10.975,10.975,10.975l0,0c6.061,0,10.975-4.914,10.975-10.975v-55.507
				c0-4.175,4.345-6.931,8.122-5.151l11.032,5.2C478.338,216.753,486.307,229.321,486.307,243.121z"/>
			<path id="XMLID_1551_" style="fill:#EA2D88;" d="M453.859,246.996c0-5.884-2.815-11.097-7.158-14.41v-15.891h-21.95v15.891
				c-4.343,3.313-7.158,8.526-7.158,14.41s2.815,11.097,7.158,14.41v8.017c0,4.348,3.525,7.873,7.873,7.873h6.203
				c4.348,0,7.873-3.525,7.873-7.873v-8.017C451.044,258.093,453.859,252.88,453.859,246.996z"/>
			<path id="XMLID_1550_" style="fill:#27273D;" d="M435.249,259.14L435.249,259.14c-3.426,0-6.203-2.777-6.203-6.203v-11.882
				c0-3.426,2.777-6.203,6.203-6.203l0,0c3.426,0,6.203,2.777,6.203,6.203v11.882C441.452,256.363,438.675,259.14,435.249,259.14z"
				/>
			<path id="XMLID_1549_" style="fill:#F8C952;" d="M398.029,321.185L398.029,321.185c-2.635,0-4.772-2.136-4.772-4.772V238.18
				c0-2.635,2.136-4.772,4.772-4.772l0,0c2.635,0,4.772,2.136,4.772,4.772v78.233C402.801,319.049,400.665,321.185,398.029,321.185z
				"/>
			<path id="XMLID_1548_" style="fill:#F8C952;" d="M471.991,321.185L471.991,321.185c-2.635,0-4.772-2.136-4.772-4.772V238.18
				c0-2.635,2.136-4.772,4.772-4.772l0,0c2.635,0,4.772,2.136,4.772,4.772v78.233C476.763,319.049,474.627,321.185,471.991,321.185z
				"/>
			<g id="XMLID_1544_">
				<path id="XMLID_1545_" style="fill:#38C689;" d="M435.25,284.61c-13.77,0-24.97,11.2-24.97,24.97
					c0,13.76,11.2,24.97,24.97,24.97s24.97-11.21,24.97-24.97C460.22,295.81,449.02,284.61,435.25,284.61z M435.25,325
					c-8.51,0-15.43-6.92-15.43-15.42c0-8.51,6.92-15.43,15.43-15.43c8.5,0,15.42,6.92,15.42,15.43
					C450.67,318.08,443.75,325,435.25,325z"/>
			</g>
		</g>
		<path id="XMLID_1542_" style="fill:#27273D;" d="M293.597,166.527h-10.509c-3.795,0-6.871,3.076-6.871,6.871v5.096h24.25v-5.096
			C300.467,169.604,297.391,166.527,293.597,166.527z"/>
		<g id="XMLID_1540_">
			<path id="XMLID_1193_" style="fill:#27273D;" d="M361.43,77.23c0,20.5-12.03,38.25-29.41,46.54c-6.71,3.21-14.21,5-22.13,5
				c-9.12,0-16.55,7.42-16.55,16.55v27.19h-10v-27.19c0-8.86,4.37-16.73,11.06-21.55c4.36-3.14,9.71-5,15.49-5
				c22.9,0,41.54-18.63,41.54-41.54c0-22.9-18.64-41.54-41.54-41.54h-40.88c-22.02,0-40.87-13.84-48.29-33.28
				c3.42-0.47,6.86-0.87,10.33-1.21c6.55,14.43,21.1,24.49,37.96,24.49h40.88C338.31,25.69,361.43,48.81,361.43,77.23z"/>
		</g>
	</g>
</g>
</svg>
