<?xml version="1.0" encoding="iso-8859-1"?>
<!-- Generator: Adobe Illustrator 22.0.1, SVG Export Plug-In . SVG Version: 6.00 Build 0)  -->
<svg version="1.1" xmlns="http://www.w3.org/2000/svg" xmlns:xlink="http://www.w3.org/1999/xlink" x="0px" y="0px"
	 viewBox="0 0 512 512" style="enable-background:new 0 0 512 512;" xml:space="preserve">
<g id="BULINE">
	<circle id="XMLID_323_" style="fill:#FF50B5;" cx="256" cy="256" r="256"/>
</g>
<g id="Icons">
	<g id="XMLID_1213_">
		<path id="XMLID_1237_" style="fill:#3E436D;" d="M419.615,251.658H91.069c-5.648,0-10.227-4.579-10.227-10.227V83.285
			c0-11.576,9.385-20.961,20.961-20.961h307.078c11.576,0,20.961,9.385,20.961,20.961V241.43
			C429.842,247.079,425.263,251.658,419.615,251.658z"/>
		<path id="XMLID_1236_" style="fill:#3E436D;" d="M91.069,260.324h328.546c5.648,0,10.227,4.579,10.227,10.227v158.145
			c0,11.576-9.385,20.961-20.961,20.961H101.803c-11.576,0-20.961-9.385-20.961-20.961V270.552
			C80.842,264.903,85.421,260.324,91.069,260.324z"/>
		<path id="XMLID_1235_" style="fill:#363B5B;" d="M182.812,251.662h-91.75c-5.65,0-10.22-4.58-10.22-10.23V83.282
			c0-11.57,9.38-20.96,20.96-20.96h91.75c-11.58,0-20.96,9.39-20.96,20.96v158.15C172.592,247.081,177.172,251.662,182.812,251.662z
			"/>
		<path id="XMLID_1234_" style="fill:#363B5B;" d="M193.552,449.662h-91.75c-11.58,0-20.96-9.39-20.96-20.96v-158.15
			c0-5.65,4.57-10.23,10.22-10.23h91.75c-5.64,0-10.22,4.58-10.22,10.23v158.15C172.592,440.272,181.972,449.662,193.552,449.662z"
			/>
		<path id="XMLID_1233_" style="fill:#32314B;" d="M381.16,268.421H129.524c-7.832,0-14.182-6.349-14.182-14.182v0
			c0-7.832,6.349-14.182,14.182-14.182H381.16c7.832,0,14.182,6.349,14.182,14.182v0
			C395.342,262.072,388.993,268.421,381.16,268.421z"/>
		<path id="XMLID_1232_" style="fill:#B9E4FC;" d="M365.277,295.532v122.67c0,6.28-5.09,11.37-11.37,11.37h-198.88
			c-6.28,0-11.37-5.09-11.37-11.37v-122.67c0-3.7,1.76-6.98,4.5-9.05c1.91-1.46,4.29-2.32,6.87-2.32h198.88
			c4.5,0,8.39,2.62,10.24,6.41C364.867,292.072,365.277,293.751,365.277,295.532z"/>
		<path id="XMLID_1231_" style="fill:#A5CBDB;" d="M365.282,390.282v27.92c0,6.28-5.09,11.37-11.37,11.37h-198.88
			c-6.28,0-11.38-5.09-11.38-11.37v-122.67c0-6.28,5.1-11.37,11.38-11.37h39.73v94.75c0,6.28,5.09,11.37,11.37,11.37H365.282z"/>
		<path id="XMLID_1230_" style="fill:#B9E4FC;" d="M378.747,96.282v121.42c0,6.62-5.37,12-12,12h-222.81c-6.63,0-12-5.38-12-12
			V96.282c0-6.62,5.37-12,12-12h222.81c3.45,0,6.56,1.46,8.74,3.79C377.517,90.212,378.747,93.102,378.747,96.282z"/>
		<path id="XMLID_1229_" style="fill:#A5CBDB;" d="M378.747,187.652v30.05c0,6.62-5.37,12-12,12h-222.81c-6.63,0-12-5.38-12-12
			V96.282c0-6.62,5.37-12,12-12h33v91.37c0,6.63,5.37,12,12,12H378.747z"/>
		<g id="XMLID_1224_">
			<circle id="XMLID_1228_" style="fill:#27273D;" cx="397.274" cy="335.672" r="8.099"/>
			<circle id="XMLID_1227_" style="fill:#27273D;" cx="397.274" cy="368.61" r="8.099"/>
			<circle id="XMLID_1226_" style="fill:#27273D;" cx="413.743" cy="352.141" r="8.099"/>
			<circle id="XMLID_1225_" style="fill:#27273D;" cx="380.805" cy="352.141" r="8.099"/>
		</g>
		<path id="XMLID_1223_" style="fill:#27273D;" d="M131.301,339.034h-5.539c-1.635,0-2.961-1.326-2.961-2.961v-5.539
			c0-1.635-1.326-2.961-2.961-2.961h-14.745c-1.635,0-2.961,1.326-2.961,2.961v5.539c0,1.635-1.326,2.961-2.961,2.961h-5.539
			c-1.635,0-2.961,1.326-2.961,2.961v14.745c0,1.635,1.326,2.961,2.961,2.961h5.539c1.635,0,2.961,1.326,2.961,2.961v5.539
			c0,1.635,1.326,2.961,2.961,2.961h14.745c1.635,0,2.961-1.326,2.961-2.961v-5.539c0-1.635,1.326-2.961,2.961-2.961h5.539
			c1.635,0,2.961-1.326,2.961-2.961v-14.745C134.262,340.36,132.936,339.034,131.301,339.034z"/>
		<path id="XMLID_1222_" style="fill:#FFFFFF;" d="M113.467,340.537h-2.333c-0.736,0-1.333-0.597-1.333-1.333v-7
			c0-0.736,0.597-1.333,1.333-1.333h2.333c0.736,0,1.333,0.597,1.333,1.333v7C114.801,339.94,114.204,340.537,113.467,340.537z"/>
		<path id="XMLID_1221_" style="fill:#FFFFFF;" d="M113.467,368.412h-2.333c-0.736,0-1.333-0.597-1.333-1.333v-7
			c0-0.736,0.597-1.333,1.333-1.333h2.333c0.736,0,1.333,0.597,1.333,1.333v7C114.801,367.815,114.204,368.412,113.467,368.412z"/>
		<path id="XMLID_1220_" style="fill:#FFFFFF;" d="M121.405,350.807v-2.333c0-0.736,0.597-1.333,1.333-1.333h7
			c0.736,0,1.333,0.597,1.333,1.333v2.333c0,0.736-0.597,1.333-1.333,1.333h-7C122.002,352.141,121.405,351.544,121.405,350.807z"/>
		<path id="XMLID_1219_" style="fill:#FFFFFF;" d="M93.53,350.807v-2.333c0-0.736,0.597-1.333,1.333-1.333h7
			c0.736,0,1.333,0.597,1.333,1.333v2.333c0,0.736-0.597,1.333-1.333,1.333h-7C94.127,352.141,93.53,351.544,93.53,350.807z"/>
		<path id="XMLID_1218_" style="fill:#FE4583;" d="M121.549,306.779h-18.496c-4.164,0-7.539-3.375-7.539-7.539l0,0
			c0-4.164,3.375-7.539,7.539-7.539h18.496c4.164,0,7.539,3.375,7.539,7.539l0,0C129.088,303.403,125.712,306.779,121.549,306.779z"
			/>
		<circle id="XMLID_1217_" style="fill:#27273D;" cx="106.944" cy="163.177" r="16.271"/>
		<circle id="XMLID_1216_" style="fill:#27273D;" cx="405.373" cy="163.177" r="16.271"/>
		<path id="XMLID_1215_" style="fill:#FFFFFF;" d="M375.487,88.071l-141.63,141.63h-50.84l145.42-145.42h38.31
			C370.197,84.282,373.307,85.741,375.487,88.071z"/>
		<path id="XMLID_1214_" style="fill:#FFFFFF;" d="M364.147,290.572l-139,139h-50.84l145.41-145.41h34.19
			C358.407,284.162,362.297,286.782,364.147,290.572z"/>
	</g>
</g>
</svg>
