<?xml version="1.0" encoding="iso-8859-1"?>
<!-- Generator: Adobe Illustrator 22.0.1, SVG Export Plug-In . SVG Version: 6.00 Build 0)  -->
<svg version="1.1" xmlns="http://www.w3.org/2000/svg" xmlns:xlink="http://www.w3.org/1999/xlink" x="0px" y="0px"
	 viewBox="0 0 512 512" style="enable-background:new 0 0 512 512;" xml:space="preserve">
<g id="BULINE">
	<circle id="XMLID_1443_" style="fill:#AC60FC;" cx="256" cy="256" r="256"/>
</g>
<g id="Icons">
	<g id="XMLID_134_">
		<g id="XMLID_1040_">
			<path id="XMLID_1066_" style="fill:#32314B;" d="M383.303,58.081c-10.892-28.231-42.608-42.286-70.838-31.394
				c-6.743,2.602-12.676,6.393-17.653,11.04c-7.796,7.279-18.176,11.149-28.842,11.149H246.03c-10.666,0-21.046-3.87-28.842-11.149
				c-4.977-4.647-10.91-8.438-17.653-11.04c-28.231-10.892-59.946,3.163-70.838,31.394c-10.892,28.231-26.642,137.195,1.588,148.087
				c13.936,5.377,35.981-14.15,56.046-38.699c9.952-12.177,24.909-19.162,40.636-19.162h58.067c15.727,0,30.683,6.985,40.636,19.162
				c20.065,24.549,42.11,44.076,56.046,38.699C409.946,195.276,394.196,86.312,383.303,58.081z"/>
			<circle id="XMLID_1065_" style="fill:#27273D;" cx="179.067" cy="91.768" r="50.233"/>
			<circle id="XMLID_1064_" style="fill:#27273D;" cx="332.934" cy="91.768" r="50.233"/>
			<circle id="XMLID_1063_" style="fill:#BABABA;" cx="256" cy="76.777" r="16.812"/>
			<circle id="XMLID_1062_" style="fill:#FFFFFF;" cx="256" cy="76.777" r="11.06"/>
			<path id="XMLID_1061_" style="fill:#4F4F74;" d="M209.771,78.717h-9.623c-3.429,0-6.209-2.78-6.209-6.209v-9.623
				c0-3.429-2.78-6.209-6.209-6.209h-17.327c-3.429,0-6.209,2.78-6.209,6.209v9.623c0,3.429-2.78,6.209-6.209,6.209h-9.623
				c-3.429,0-6.209,2.78-6.209,6.209v17.327c0,3.429,2.78,6.209,6.209,6.209h9.623c3.429,0,6.209,2.78,6.209,6.209v9.623
				c0,3.429,2.78,6.209,6.209,6.209h17.327c3.429,0,6.209-2.78,6.209-6.209v-9.623c0-3.429,2.78-6.209,6.209-6.209h9.623
				c3.429,0,6.209-2.78,6.209-6.209V84.925C215.98,81.496,213.2,78.717,209.771,78.717z"/>
			<path id="XMLID_1060_" style="fill:#666691;" d="M198.324,84.261h-6.036c-2.151,0-3.894-1.743-3.894-3.894v-6.036
				c0-2.151-1.743-3.894-3.894-3.894h-10.868c-2.151,0-3.894,1.743-3.894,3.894v6.036c0,2.151-1.743,3.894-3.894,3.894h-6.036
				c-2.151,0-3.894,1.743-3.894,3.894v10.868c0,2.151,1.743,3.894,3.894,3.894h6.036c2.151,0,3.894,1.743,3.894,3.894v6.036
				c0,2.151,1.743,3.894,3.894,3.894h10.868c2.151,0,3.894-1.743,3.894-3.894v-6.036c0-2.151,1.743-3.894,3.894-3.894h6.036
				c2.151,0,3.894-1.743,3.894-3.894V88.155C202.218,86.005,200.475,84.261,198.324,84.261z"/>
			<circle id="XMLID_1059_" style="fill:#F8D572;" cx="332.587" cy="60.454" r="15.721"/>
			<circle id="XMLID_1058_" style="fill:#F9BD38;" cx="332.587" cy="60.454" r="13.037"/>
			<path id="XMLID_1057_" style="fill:#E2C06D;" d="M326.005,60.454c0,5.426,2.747,10.209,6.929,13.033
				c0.429,0.291,0.874,0.562,1.334,0.809c0.913,0.493,1.879,0.897,2.889,1.202c-1.446,0.441-2.981,0.677-4.57,0.677
				c-8.683,0-15.721-7.038-15.721-15.721c0-0.136,0.002-0.27,0.006-0.406c0.002-0.088,0.004-0.178,0.01-0.266
				c0-0.013,0-0.027,0.002-0.042c0.002-0.059,0.006-0.121,0.01-0.18c0.462-8.267,7.314-14.825,15.694-14.825
				c1.589,0,3.125,0.236,4.57,0.677c-1.518,0.458-2.939,1.143-4.223,2.011C328.752,50.245,326.005,55.028,326.005,60.454z"/>
			<path id="XMLID_1056_" style="fill:#DDA636;" d="M332.934,73.487c-0.115,0.002-0.232,0.004-0.347,0.004
				c-7.199,0-13.037-5.836-13.037-13.037c0-7.199,5.838-13.037,13.037-13.037c0.115,0,0.232,0.002,0.347,0.004
				c-4.181,2.824-6.929,7.607-6.929,13.033S328.752,70.663,332.934,73.487z"/>
			<g id="XMLID_1051_">
				<circle id="XMLID_1055_" style="fill:#3588CD;" cx="305.716" cy="91.192" r="15.721"/>
				<path id="XMLID_1054_" style="fill:#3385BC;" d="M299.134,91.192c0,5.426,2.747,10.209,6.929,13.033
					c0.429,0.291,0.874,0.562,1.334,0.809c0.913,0.493,1.879,0.897,2.889,1.202c-1.446,0.441-2.981,0.677-4.571,0.677
					c-8.683,0-15.721-7.038-15.721-15.721c0-0.136,0.002-0.27,0.006-0.406c0.002-0.088,0.004-0.178,0.01-0.266
					c0-0.013,0-0.027,0.002-0.042c0.002-0.059,0.006-0.121,0.01-0.18c0.462-8.267,7.314-14.825,15.694-14.825
					c1.589,0,3.125,0.236,4.571,0.677c-1.518,0.458-2.939,1.143-4.224,2.011C301.881,80.983,299.134,85.767,299.134,91.192z"/>
				<circle id="XMLID_1053_" style="fill:#366FCC;" cx="305.716" cy="91.192" r="13.037"/>
				<path id="XMLID_1052_" style="fill:#3268B7;" d="M310.726,103.548c-1.3,0.442-2.696,0.679-4.149,0.679
					c-7.197,0-13.037-5.833-13.037-13.037c0-7.197,5.84-13.037,13.037-13.037c1.454,0,2.849,0.237,4.149,0.679
					c-5.167,1.729-8.888,6.615-8.888,12.358C301.839,96.94,305.559,101.819,310.726,103.548z"/>
			</g>
			<circle id="XMLID_1050_" style="fill:#ED4F4F;" cx="361.344" cy="91.192" r="15.721"/>
			<circle id="XMLID_1049_" style="fill:#DD1B1B;" cx="361.344" cy="91.192" r="13.037"/>
			<path id="XMLID_1048_" style="fill:#CC4A4A;" d="M354.762,91.192c0,5.426,2.747,10.209,6.929,13.033
				c0.429,0.291,0.874,0.562,1.334,0.809c0.913,0.493,1.879,0.897,2.889,1.202c-1.446,0.441-2.981,0.677-4.57,0.677
				c-8.683,0-15.721-7.038-15.721-15.721c0-0.136,0.002-0.27,0.006-0.406c0.002-0.088,0.004-0.178,0.01-0.266
				c0-0.013,0-0.027,0.002-0.042c0.002-0.059,0.006-0.121,0.01-0.18c0.462-8.267,7.314-14.825,15.694-14.825
				c1.589,0,3.125,0.236,4.57,0.677c-1.518,0.458-2.939,1.143-4.223,2.011C357.51,80.983,354.762,85.767,354.762,91.192z"/>
			<path id="XMLID_1047_" style="fill:#BC1B1B;" d="M361.691,104.225c-0.115,0.002-0.232,0.004-0.347,0.004
				c-7.199,0-13.037-5.836-13.037-13.037c0-7.199,5.838-13.037,13.037-13.037c0.115,0,0.232,0.002,0.347,0.004
				c-4.181,2.824-6.929,7.607-6.929,13.033S357.51,101.401,361.691,104.225z"/>
			<circle id="XMLID_1046_" style="fill:#03E277;" cx="332.587" cy="118.927" r="15.721"/>
			<circle id="XMLID_1045_" style="fill:#00B764;" cx="332.587" cy="118.927" r="13.037"/>
			<path id="XMLID_1044_" style="fill:#05CC68;" d="M326.005,118.927c0,5.426,2.747,10.209,6.929,13.033
				c0.429,0.291,0.874,0.562,1.334,0.809c0.913,0.493,1.879,0.897,2.889,1.202c-1.446,0.441-2.981,0.677-4.57,0.677
				c-8.683,0-15.721-7.038-15.721-15.721c0-0.136,0.002-0.27,0.006-0.406c0.002-0.088,0.004-0.178,0.01-0.266
				c0-0.013,0-0.027,0.002-0.042c0.002-0.059,0.006-0.121,0.01-0.18c0.462-8.267,7.314-14.825,15.694-14.825
				c1.589,0,3.125,0.236,4.57,0.677c-1.518,0.458-2.939,1.143-4.223,2.011C328.752,108.718,326.005,113.501,326.005,118.927z"/>
			<path id="XMLID_1043_" style="fill:#049E54;" d="M332.934,131.96c-0.115,0.002-0.232,0.004-0.347,0.004
				c-7.199,0-13.037-5.836-13.037-13.037c0-7.199,5.838-13.037,13.037-13.037c0.115,0,0.232,0.002,0.347,0.004
				c-4.181,2.824-6.929,7.607-6.929,13.033S328.752,129.136,332.934,131.96z"/>
			<path id="XMLID_1042_" style="fill:#FFFFFF;" d="M249.597,134.648h-20.917c-1.061,0-1.921-0.86-1.921-1.921v-6.431
				c0-1.061,0.86-1.921,1.921-1.921h20.917c1.061,0,1.921,0.86,1.921,1.921v6.431C251.518,133.788,250.658,134.648,249.597,134.648z
				"/>
			<path id="XMLID_1041_" style="fill:#FFFFFF;" d="M285.242,134.648h-20.917c-1.061,0-1.921-0.86-1.921-1.921v-6.431
				c0-1.061,0.86-1.921,1.921-1.921h20.917c1.061,0,1.921,0.86,1.921,1.921v6.431C287.162,133.788,286.302,134.648,285.242,134.648z
				"/>
		</g>
		<g id="XMLID_1013_">
			<path id="XMLID_1039_" style="fill:#FFFFFF;" d="M383.303,321.015c-10.892-28.231-42.608-42.286-70.838-31.394
				c-6.743,2.602-12.676,6.392-17.653,11.04c-7.796,7.279-18.176,11.149-28.842,11.149H246.03c-10.666,0-21.046-3.87-28.842-11.149
				c-4.977-4.647-10.91-8.438-17.653-11.04c-28.231-10.892-59.946,3.163-70.838,31.394c-10.892,28.231-26.642,137.195,1.588,148.087
				c13.936,5.377,35.981-14.15,56.046-38.699c9.952-12.177,24.909-19.162,40.636-19.162h58.067c15.727,0,30.683,6.985,40.636,19.162
				c20.065,24.549,42.11,44.076,56.046,38.699C409.946,458.21,394.196,349.246,383.303,321.015z"/>
			<circle id="XMLID_1038_" style="fill:#BABABA;" cx="179.067" cy="354.702" r="50.233"/>
			<circle id="XMLID_1037_" style="fill:#BABABA;" cx="332.934" cy="354.702" r="50.233"/>
			<circle id="XMLID_1036_" style="fill:#BABABA;" cx="256" cy="339.711" r="16.812"/>
			<circle id="XMLID_1035_" style="fill:#FFFFFF;" cx="256" cy="339.711" r="11.06"/>
			<path id="XMLID_1034_" style="fill:#4F4F74;" d="M209.771,341.65h-9.623c-3.429,0-6.209-2.78-6.209-6.209v-9.623
				c0-3.429-2.78-6.209-6.209-6.209h-17.327c-3.429,0-6.209,2.78-6.209,6.209v9.623c0,3.429-2.78,6.209-6.209,6.209h-9.623
				c-3.429,0-6.209,2.78-6.209,6.209v17.327c0,3.429,2.78,6.209,6.209,6.209h9.623c3.429,0,6.209,2.78,6.209,6.209v9.623
				c0,3.429,2.78,6.209,6.209,6.209h17.327c3.429,0,6.209-2.78,6.209-6.209v-9.623c0-3.429,2.78-6.209,6.209-6.209h9.623
				c3.429,0,6.209-2.78,6.209-6.209v-17.327C215.98,344.43,213.2,341.65,209.771,341.65z"/>
			<path id="XMLID_1033_" style="fill:#666691;" d="M198.324,347.195h-6.036c-2.151,0-3.894-1.743-3.894-3.894v-6.036
				c0-2.151-1.743-3.894-3.894-3.894h-10.868c-2.151,0-3.894,1.743-3.894,3.894v6.036c0,2.151-1.743,3.894-3.894,3.894h-6.036
				c-2.151,0-3.894,1.743-3.894,3.894v10.868c0,2.151,1.743,3.894,3.894,3.894h6.036c2.151,0,3.894,1.743,3.894,3.894v6.036
				c0,2.151,1.743,3.894,3.894,3.894h10.868c2.151,0,3.894-1.743,3.894-3.894v-6.036c0-2.151,1.743-3.894,3.894-3.894h6.036
				c2.151,0,3.894-1.743,3.894-3.894v-10.868C202.218,348.938,200.475,347.195,198.324,347.195z"/>
			<circle id="XMLID_1032_" style="fill:#F8D572;" cx="332.587" cy="323.388" r="15.721"/>
			<circle id="XMLID_1031_" style="fill:#F9BD38;" cx="332.587" cy="323.388" r="13.037"/>
			<path id="XMLID_1030_" style="fill:#E2C06D;" d="M326.005,323.388c0,5.426,2.747,10.209,6.929,13.033
				c0.429,0.291,0.874,0.562,1.334,0.809c0.913,0.493,1.879,0.897,2.889,1.202c-1.446,0.441-2.981,0.677-4.57,0.677
				c-8.683,0-15.721-7.038-15.721-15.721c0-0.136,0.002-0.27,0.006-0.406c0.002-0.088,0.004-0.178,0.01-0.267
				c0-0.013,0-0.027,0.002-0.042c0.002-0.059,0.006-0.121,0.01-0.18c0.462-8.267,7.314-14.825,15.694-14.825
				c1.589,0,3.125,0.236,4.57,0.677c-1.518,0.458-2.939,1.143-4.223,2.011C328.752,313.179,326.005,317.962,326.005,323.388z"/>
			<path id="XMLID_1029_" style="fill:#DDA636;" d="M332.934,336.42c-0.115,0.002-0.232,0.004-0.347,0.004
				c-7.199,0-13.037-5.836-13.037-13.037c0-7.199,5.838-13.037,13.037-13.037c0.115,0,0.232,0.002,0.347,0.004
				c-4.181,2.824-6.929,7.607-6.929,13.033S328.752,333.596,332.934,336.42z"/>
			<g id="XMLID_1024_">
				<circle id="XMLID_1028_" style="fill:#3588CD;" cx="305.716" cy="354.126" r="15.721"/>
				<path id="XMLID_1027_" style="fill:#3385BC;" d="M299.134,354.126c0,5.426,2.747,10.209,6.929,13.033
					c0.429,0.291,0.874,0.562,1.334,0.809c0.913,0.493,1.879,0.897,2.889,1.202c-1.446,0.441-2.981,0.677-4.571,0.677
					c-8.683,0-15.721-7.038-15.721-15.721c0-0.136,0.002-0.27,0.006-0.406c0.002-0.088,0.004-0.178,0.01-0.266
					c0-0.013,0-0.027,0.002-0.042c0.002-0.059,0.006-0.121,0.01-0.18c0.462-8.267,7.314-14.825,15.694-14.825
					c1.589,0,3.125,0.236,4.571,0.677c-1.518,0.458-2.939,1.143-4.224,2.011C301.881,343.917,299.134,348.7,299.134,354.126z"/>
				<circle id="XMLID_1026_" style="fill:#366FCC;" cx="305.716" cy="354.126" r="13.037"/>
				<path id="XMLID_1025_" style="fill:#3268B7;" d="M310.726,366.482c-1.3,0.442-2.696,0.679-4.149,0.679
					c-7.197,0-13.037-5.833-13.037-13.037c0-7.197,5.84-13.037,13.037-13.037c1.454,0,2.849,0.237,4.149,0.679
					c-5.167,1.729-8.888,6.615-8.888,12.358C301.839,359.874,305.559,364.753,310.726,366.482z"/>
			</g>
			<circle id="XMLID_1023_" style="fill:#ED4F4F;" cx="361.344" cy="354.126" r="15.721"/>
			<circle id="XMLID_1022_" style="fill:#DD1B1B;" cx="361.344" cy="354.126" r="13.037"/>
			<path id="XMLID_1021_" style="fill:#CC4A4A;" d="M354.762,354.126c0,5.426,2.747,10.209,6.929,13.033
				c0.429,0.291,0.874,0.562,1.334,0.809c0.913,0.493,1.879,0.897,2.889,1.202c-1.446,0.441-2.981,0.677-4.57,0.677
				c-8.683,0-15.721-7.038-15.721-15.721c0-0.136,0.002-0.27,0.006-0.406c0.002-0.088,0.004-0.178,0.01-0.266
				c0-0.013,0-0.027,0.002-0.042c0.002-0.059,0.006-0.121,0.01-0.18c0.462-8.267,7.314-14.825,15.694-14.825
				c1.589,0,3.125,0.236,4.57,0.677c-1.518,0.458-2.939,1.143-4.223,2.011C357.51,343.917,354.762,348.7,354.762,354.126z"/>
			<path id="XMLID_1020_" style="fill:#BC1B1B;" d="M361.691,367.159c-0.115,0.002-0.232,0.004-0.347,0.004
				c-7.199,0-13.037-5.836-13.037-13.037c0-7.199,5.838-13.037,13.037-13.037c0.115,0,0.232,0.002,0.347,0.004
				c-4.181,2.824-6.929,7.607-6.929,13.033S357.51,364.335,361.691,367.159z"/>
			<circle id="XMLID_1019_" style="fill:#03E277;" cx="332.587" cy="381.861" r="15.721"/>
			<circle id="XMLID_1018_" style="fill:#00B764;" cx="332.587" cy="381.861" r="13.037"/>
			<path id="XMLID_1017_" style="fill:#05CC68;" d="M326.005,381.861c0,5.426,2.747,10.209,6.929,13.033
				c0.429,0.291,0.874,0.562,1.334,0.809c0.913,0.493,1.879,0.897,2.889,1.202c-1.446,0.441-2.981,0.677-4.57,0.677
				c-8.683,0-15.721-7.038-15.721-15.721c0-0.136,0.002-0.27,0.006-0.406c0.002-0.088,0.004-0.178,0.01-0.267
				c0-0.013,0-0.027,0.002-0.042c0.002-0.059,0.006-0.121,0.01-0.18c0.462-8.267,7.314-14.825,15.694-14.825
				c1.589,0,3.125,0.236,4.57,0.677c-1.518,0.458-2.939,1.143-4.223,2.011C328.752,371.652,326.005,376.435,326.005,381.861z"/>
			<path id="XMLID_1016_" style="fill:#049E54;" d="M332.934,394.894c-0.115,0.002-0.232,0.004-0.347,0.004
				c-7.199,0-13.037-5.836-13.037-13.037c0-7.199,5.838-13.037,13.037-13.037c0.115,0,0.232,0.002,0.347,0.004
				c-4.181,2.824-6.929,7.607-6.929,13.033S328.752,392.07,332.934,394.894z"/>
			<path id="XMLID_1015_" style="fill:#32314B;" d="M249.597,397.581h-20.917c-1.061,0-1.921-0.86-1.921-1.921v-6.431
				c0-1.061,0.86-1.921,1.921-1.921h20.917c1.061,0,1.921,0.86,1.921,1.921v6.431C251.518,396.721,250.658,397.581,249.597,397.581z
				"/>
			<path id="XMLID_1014_" style="fill:#32314B;" d="M285.242,397.581h-20.917c-1.061,0-1.921-0.86-1.921-1.921v-6.431
				c0-1.061,0.86-1.921,1.921-1.921h20.917c1.061,0,1.921,0.86,1.921,1.921v6.431C287.162,396.721,286.302,397.581,285.242,397.581z
				"/>
		</g>
		<g id="XMLID_135_">
			<circle id="XMLID_1012_" style="fill:#DD1B1B;" cx="256" cy="234.029" r="62.306"/>
			<circle id="XMLID_1011_" style="fill:#FFFFFF;" cx="256" cy="234.029" r="46.496"/>
			<g id="XMLID_1006_">
				<path id="XMLID_1009_" style="fill:#27273D;" d="M239.93,263.392c-3.321,0-5.215-0.05-5.682-0.148
					c-0.468-0.098-0.861-0.455-1.181-1.07c-2.804-5.534-5.621-11.082-8.449-16.641c-4.453-8.929-6.679-13.984-6.679-15.165
					c0-1.943,0.067-4.864,0.203-8.763c0.135-3.899,0.203-6.82,0.203-8.764c0-0.91,0.246-1.365,0.738-1.365
					c1.476,0,3.714,0.062,6.715,0.185c3.001,0.124,5.252,0.185,6.752,0.185c0.615,0,0.923,0.258,0.923,0.775
					c0,1.992-0.142,4.988-0.424,8.985c-0.283,3.997-0.424,6.992-0.424,8.985c0,1.526,2.497,6.974,7.49,16.346
					c1.352-2.436,2.89-5.424,4.612-8.966c2.312-4.772,3.468-7.699,3.468-8.782c0-1.795-0.025-4.495-0.074-8.099
					c-0.05-3.603-0.074-6.303-0.074-8.099c0-0.664,0.111-1.033,0.332-1.107h1.181c1.353,0,3.401-0.067,6.144-0.203
					c2.742-0.135,4.79-0.203,6.144-0.203c0.738,0,1.107,0.295,1.107,0.886c0,1.894-0.031,4.754-0.092,8.579
					c-0.062,3.825-0.093,6.697-0.093,8.616c0,1.525-2.423,7.134-7.269,16.826c-1.919,3.493-4.686,8.757-8.302,15.792
					c-0.246,0.542-0.412,0.843-0.498,0.904c-0.087,0.062-0.4,0.117-0.941,0.166C244.505,263.342,242.562,263.392,239.93,263.392z"/>
				<path id="XMLID_1007_" style="fill:#27273D;" d="M293.581,246.271c0,4.994-2.104,9.274-6.31,12.841
					c-3.69,3.149-8.179,5.153-13.468,6.015c-0.197,0.024-0.357,0.036-0.48,0.036c-0.566,0-1.821-1.729-3.764-5.184
					c-1.944-3.456-2.915-5.566-2.915-6.328c0-0.271,0.184-0.443,0.553-0.516c3.567-0.812,5.928-1.5,7.085-2.066
					c2.558-1.279,3.837-3.173,3.837-5.683c0-1.599-0.836-3.382-2.509-5.35c-2.902-3.345-4.477-5.203-4.723-5.572
					c-1.698-2.558-2.546-5.387-2.546-8.487c0-4.502,2.079-8.241,6.236-11.217c3.395-2.46,7.564-4.059,12.509-4.797
					c0.27-0.024,0.479-0.037,0.627-0.037c0.369,0,0.664,0.295,0.885,0.886c0.64,1.796,2.128,5.043,4.465,9.741
					c0.074,0.148,0.111,0.271,0.111,0.369c0,0.418-0.221,0.627-0.664,0.627c-0.197,0-0.529-0.037-0.996-0.111
					c-0.468-0.074-0.825-0.111-1.07-0.111c-1.771,0-3.321,0.406-4.649,1.217c-1.599,0.935-2.398,2.239-2.398,3.911
					c0,1.501,0.885,3.346,2.657,5.535c3.123,3.936,4.76,6.002,4.907,6.199C292.707,240.897,293.581,243.59,293.581,246.271z"/>
			</g>
		</g>
	</g>
</g>
</svg>
