<?xml version="1.0" encoding="iso-8859-1"?>
<!-- Generator: Adobe Illustrator 22.0.1, SVG Export Plug-In . SVG Version: 6.00 Build 0)  -->
<svg version="1.1" xmlns="http://www.w3.org/2000/svg" xmlns:xlink="http://www.w3.org/1999/xlink" x="0px" y="0px"
	 viewBox="0 0 512 512" style="enable-background:new 0 0 512 512;" xml:space="preserve">
<g id="BULINE">
	<circle id="XMLID_513_" style="fill:#FF50B5;" cx="256" cy="256" r="256"/>
</g>
<g id="Icons">
	<g id="XMLID_430_">
		<path id="XMLID_666_" style="fill:#4B4C9B;" d="M406.08,61.77v401.64C363.91,493.98,312.06,512,256,512
			c-55.55,0-106.96-17.7-148.92-47.76V61.77c0-8.36,6.78-15.13,15.14-15.13h268.73C399.31,46.64,406.08,53.41,406.08,61.77z"/>
		<path id="XMLID_636_" style="fill:#303049;" d="M406.08,105.3v358.11C363.91,493.98,312.06,512,256,512
			c-55.55,0-106.96-17.7-148.92-47.76V105.3H406.08z"/>
		<path id="XMLID_520_" style="fill:#27273D;" d="M406.08,415.93v47.48C363.91,493.98,312.06,512,256,512
			c-55.55,0-106.96-17.7-148.92-47.76V105.3h106v117.63c0,2.22,0.04,4.43,0.11,6.63c0.15,4.25,0.43,8.46,0.84,12.63
			c0.72,7.23,1.83,14.35,3.33,21.32c2.31,10.82,5.53,21.31,9.59,31.38c6.44,16.03,14.97,30.99,25.25,44.55
			c9.35,12.32,20.14,23.49,32.13,33.25c3.75,3.05,7.61,5.96,11.59,8.73c1.91,1.33,3.84,2.63,5.81,3.89
			c3.84,2.48,7.79,4.83,11.82,7.03c0.72,0.4,1.44,0.79,2.17,1.18c5.19,2.75,10.53,5.28,15.99,7.56c7.33,3.07,14.9,5.69,22.67,7.85
			c7.21,2,14.59,3.59,22.12,4.75C386.14,415.16,396.02,415.93,406.08,415.93z"/>
		<path id="XMLID_468_" style="fill:#3E436D;" d="M290.917,91.638H222.25c-6.167,0-11.167-4.999-11.167-11.167v0
			c0-6.167,4.999-11.167,11.167-11.167h68.667c6.167,0,11.167,4.999,11.167,11.167v0C302.083,86.638,297.084,91.638,290.917,91.638z
			"/>
		<path id="XMLID_467_" style="fill:#3E436D;" d="M103.419,266.305h3.664V164.638h-3.664c-8.286,0-15.002,6.717-15.002,15.002
			v71.662C88.417,259.588,95.133,266.305,103.419,266.305z"/>
		<path id="XMLID_466_" style="fill:#3E436D;" d="M414.472,164.638h-8.389v40h8.389c5.032,0,9.111-4.079,9.111-9.111v-21.777
			C423.583,168.717,419.504,164.638,414.472,164.638z"/>
		<path id="XMLID_464_" style="fill:#3E436D;" d="M414.472,229.893h-8.389v40h8.389c5.032,0,9.111-4.079,9.111-9.111v-21.777
			C423.583,233.973,419.504,229.893,414.472,229.893z"/>
		<path id="XMLID_458_" style="fill:#FFFFFF;" d="M285.23,126.75H225.2c-2.72,0-4.93,2.21-4.93,4.93v60.04
			c0,2.72,2.21,4.92,4.93,4.92h5.84v9.99c0,2.23,1.82,4.05,4.05,4.05h12.89c2.23,0,4.04-1.82,4.04-4.05v-9.99h7.53v9.99
			c0,2.23,1.81,4.05,4.05,4.05h12.88c2.24,0,4.05-1.82,4.05-4.05v-9.99h4.7c2.72,0,4.93-2.2,4.93-4.92v-60.04
			C290.16,128.96,287.95,126.75,285.23,126.75z M245.9,163.41c0,2.93-2.38,5.3-5.31,5.3h-4.11c-2.93,0-5.29-2.37-5.29-5.3v-7.7
			c0-2.93,2.36-5.3,5.29-5.3h4.11c2.93,0,5.31,2.37,5.31,5.3V163.41z M247.91,176.02l7.3-7.31l7.31,7.31H247.91z M279.24,163.41
			c0,2.93-2.36,5.3-5.29,5.3h-4.11c-2.93,0-5.31-2.37-5.31-5.3v-7.7c0-2.93,2.38-5.3,5.31-5.3h4.11c2.93,0,5.29,2.37,5.29,5.3
			V163.41z"/>
		<polygon id="XMLID_457_" style="fill:#CACACC;" points="292.554,232.606 311.96,224.631 303.985,205.224 284.579,213.199 
			286.312,217.418 222.347,243.704 220.613,239.485 201.206,247.46 209.181,266.867 228.588,258.892 226.854,254.673 
			290.82,228.387 		"/>
		<polygon id="XMLID_456_" style="fill:#FFFFFF;" points="220.613,232.606 201.206,224.631 209.181,205.224 228.588,213.199 
			226.854,217.418 290.82,243.704 292.554,239.485 311.96,247.46 303.985,266.867 284.579,258.892 286.312,254.673 222.347,228.387 
					"/>
		<g id="XMLID_435_">
			<path id="XMLID_454_" style="fill:#F9BD38;" d="M209.49,337.87c-0.4-5.41-0.6-9.47-0.6-12.19c0-1.01,0.06-2.53,0.18-4.58
				c0.11-2.04,0.17-3.56,0.17-4.57c0-0.7-0.26-1.04-0.79-1.04c-0.67,0-1.68,0.04-3.03,0.14c-1.35,0.09-2.36,0.14-3.03,0.14
				c-0.63,0-1.56-0.06-2.79-0.17c-1.23-0.12-2.16-0.18-2.77-0.18c-0.23,0-0.4,0.02-0.5,0.07c-0.27,0.08-0.41,0.32-0.41,0.72
				c0,1.35,0.14,3.12,0.41,5.31c0.31,2.84,0.5,4.6,0.57,5.3c-2.65,1.07-5.05,1.61-7.2,1.61c-3.39,0-6.01-1.03-7.86-3.1
				c-1.79-1.99-2.68-4.71-2.68-8.14c0-3.24,0.86-5.94,2.59-8.11c1.85-2.36,4.35-3.54,7.51-3.54c1.93,0,3.7,0.43,5.3,1.3
				c1.07,0.56,2.13,1.36,3.16,2.4c0.84,0.86,1.32,1.29,1.45,1.29c0.55,0,1.76-1.17,3.65-3.52c1.88-2.35,2.82-3.86,2.82-4.53
				c0-0.21-0.18-0.57-0.54-1.07c-1.74-2.44-4.14-4.34-7.19-5.68c-2.82-1.22-5.83-1.83-9.03-1.83c-6.59,0-11.94,2.27-16.07,6.81
				c-4,4.4-5.99,9.94-5.99,16.61c0,6.52,2.06,11.92,6.18,16.19c4.17,4.34,9.5,6.5,16.01,6.5c4.04,0,8.26-0.86,12.65-2.59
				c0.45,0.17,1.62,0.49,3.52,0.95c1.91,0.46,3.06,0.7,3.46,0.7c0.63,0,0.93-0.29,0.88-0.86L209.49,337.87z"/>
			<path id="XMLID_451_" style="fill:#F9BD38;" d="M248.07,318.04c-4.99-12.94-8-20.51-9.03-22.72c-0.34-0.7-0.71-1.05-1.11-1.05
				c-0.54,0-1.37,0.04-2.48,0.11c-1.1,0.08-1.94,0.11-2.5,0.11c-0.59,0-1.48-0.05-2.67-0.15c-1.19-0.11-2.07-0.16-2.64-0.16
				c-0.25,0-0.49,0.24-0.69,0.71c-0.07,0.14-0.13,0.31-0.19,0.49c-0.44,1.39-3.24,9.06-8.4,23.01c-4.75,12.9-7.13,19.62-7.13,20.17
				c0,0.61,1.61,0.92,4.83,0.92c4.08,0,6.48-0.09,7.19-0.26c0.57-0.14,1.06-1.09,1.46-2.84c0.44-1.91,0.84-3.04,1.2-3.38
				c0.23-0.18,2.13-0.28,5.71-0.28c5.3,0,8.12,0.07,8.46,0.22c0.4,0.21,0.96,1.83,1.67,4.86c0.19,0.8,0.64,1.28,1.36,1.42
				c0.86,0.17,2.8,0.26,5.81,0.26c1.3,0,2.4-0.01,3.28-0.04c1.35-0.04,2.21-0.12,2.59-0.22c0.52-0.14,0.79-0.41,0.79-0.79
				C255.58,337.87,253.07,331.07,248.07,318.04z M236.67,321.67c-0.15,0.34-0.91,0.51-2.3,0.51c-1.5,0-2.57-0.02-3.22-0.07
				c-1.27-0.04-1.9-0.25-1.9-0.63c0-0.57,0.57-2.49,1.71-5.77c1.05-3.1,1.8-5.11,2.24-6.03c0.44,0.84,1.13,2.78,2.08,5.81
				c0.97,3.13,1.45,5.05,1.45,5.74C236.73,321.42,236.71,321.57,236.67,321.67z"/>
			<path id="XMLID_449_" style="fill:#F9BD38;" d="M305.58,327.95c-0.19-4.58-0.29-8.02-0.29-10.32c0-2.48,0.09-6.19,0.27-11.12
				c0.18-4.94,0.27-8.65,0.27-11.13c0-0.51-0.32-0.76-0.95-0.76c-0.52,0-1.33,0.05-2.41,0.16c-1.08,0.1-1.89,0.16-2.41,0.16
				c-0.64,0-1.57-0.04-2.8-0.1s-2.15-0.09-2.76-0.09c-0.42,0-0.81,0.41-1.17,1.23c-4.17,8.9-7.31,15.56-9.44,19.98
				c-0.75,1.58-1.25,2.37-1.48,2.37c-0.44,0-0.99-0.69-1.64-2.05l-9.22-20.24c-0.42-0.88-0.75-1.32-0.98-1.32
				c-1.16,0-2.89,0.03-5.21,0.11c-2.31,0.07-4.05,0.11-5.2,0.11c-0.91,0-1.35,0.21-1.33,0.63l0.03,0.53
				c0.17,3.46,0.26,6.05,0.28,7.8c0.21,6.71,0.32,11.29,0.32,13.73c0,2.3-0.11,5.74-0.33,10.34c-0.22,4.6-0.33,8.04-0.33,10.34
				c0,0.34,0.05,0.57,0.14,0.71c0.09,0.13,0.35,0.2,0.77,0.2h10.55c0.59,0,0.88-0.36,0.88-1.1c0-2.06-0.05-5.16-0.16-9.28
				c-0.1-4.13-0.16-7.22-0.16-9.28c0-0.42,0.08-0.73,0.23-0.92c0.14,0.13,0.24,0.24,0.28,0.35c0.99,2.08,2.47,5.46,4.45,10.13
				c1.85,4.42,3.35,7.79,4.48,10.1c0.21,0.42,0.87,0.63,1.96,0.63c0.74,0,1.16-0.01,1.26-0.03c0.32-0.08,0.58-0.37,0.79-0.85
				c1.52-3.72,3.03-7.46,4.55-11.2c2.59-6.38,3.99-9.63,4.23-9.76c0.19,0.04,0.28,0.37,0.28,0.98c0,2.12-0.08,5.31-0.24,9.56
				c-0.15,4.26-0.23,7.44-0.23,9.57c0,0.74,0.3,1.1,0.91,1.1h11.18c0.61,0,0.91-0.32,0.91-0.98
				C305.86,335.97,305.77,332.54,305.58,327.95z"/>
			<path id="XMLID_447_" style="fill:#F9BD38;" d="M343.36,328.27c-1.09,0-2.74,0.1-4.94,0.3c-2.2,0.2-3.85,0.3-4.97,0.3
				c-3.07,0-4.61,0-4.61,0c-2.33-0.15-3.68-0.62-4.04-1.42c-0.21-0.46-0.31-1.49-0.31-3.09c0-1.2,0.01-1.86,0.03-1.96
				c0.14-0.42,0.65-0.63,1.51-0.63h3.35c4.27,0,7.01,0.06,8.21,0.19l2.84,0.31c0.61,0,0.91-0.21,0.91-0.63
				c0-1.68,0.09-3.37,0.26-5.05c0.322-3.189,0.508-4.819,0.55-4.895c-0.024-0.433-0.266-0.665-0.74-0.665
				c-0.43,0-0.99,0.05-1.71,0.13c-0.93,0.09-1.5,0.14-1.73,0.16c-2.72,0.15-5.4,0.22-8.05,0.22c-0.41,0-0.91,0.02-1.52,0.05
				c-0.61,0.03-1.02,0.04-1.23,0.04c-1.01,0-1.7-0.19-2.05-0.6c-0.42-0.46-0.63-1.4-0.63-2.84c0-1.36,0.05-2.17,0.15-2.43
				c0.26-0.52,0.94-0.79,2.06-0.79c4.46,0,9.49,0.24,15.08,0.7c0.32,0.02,0.54,0.03,0.67,0.03c0.42,0,0.63-0.22,0.63-0.66
				c0-0.53-0.11-2.02-0.33-4.47c-0.22-2.45-0.39-3.92-0.49-4.4c-0.17-0.82-0.8-1.23-1.9-1.23c-1.53,0-3.85,0.04-6.94,0.12
				c-3.09,0.09-5.41,0.13-6.95,0.13c-1.55,0-3.89-0.04-7.02-0.13c-3.12-0.08-5.47-0.12-7.02-0.12c-0.57,0-0.83,0.24-0.79,0.72
				l0.03,0.44c0.17,3.35,0.28,5.87,0.35,7.55c0.25,6.54,0.38,11.01,0.38,13.41c0,2.36-0.14,5.9-0.4,10.63
				c-0.26,4.72-0.39,8.26-0.39,10.62c0,0.61,0.34,0.91,1.04,0.91c1.6,0,4,0.01,7.2,0.03c3.19,0.03,5.6,0.04,7.22,0.04
				c7.43,0,11.92,0.1,13.45,0.31c0.44,0.07,0.76,0.1,0.95,0.1c0.44,0,0.79-0.2,1.04-0.6c0.3-0.51,0.63-2.08,1.01-4.71
				c0.36-2.42,0.54-4.08,0.54-4.98C344.06,328.65,343.83,328.27,343.36,328.27z M342.15,311.695c0.001,0.024,0.01,0.041,0.01,0.065
				C342.16,311.703,342.156,311.683,342.15,311.695z"/>
			<path id="XMLID_444_" style="fill:#F9BD38;" d="M211.39,378.19c-4.32-4.56-9.71-6.85-16.17-6.85c-6.5,0-11.9,2.29-16.19,6.85
				c-4.21,4.47-6.31,9.97-6.31,16.51c0,6.53,2.1,12.01,6.31,16.45c4.29,4.54,9.69,6.82,16.19,6.82c6.55,0,11.96-2.25,16.23-6.76
				c4.19-4.44,6.28-9.94,6.28-16.51C217.73,388.2,215.62,382.7,211.39,378.19z M202.8,402.56c-2.08,2.38-4.61,3.57-7.58,3.57
				c-3.17,0-5.75-1.13-7.73-3.38c-1.87-2.14-2.81-4.83-2.81-8.05c0-3.01,1-5.67,3-7.98c2.06-2.4,4.58-3.6,7.54-3.6
				c3.12,0,5.68,1.16,7.67,3.47c1.92,2.21,2.88,4.89,2.88,8.05C205.77,397.65,204.78,400.29,202.8,402.56z"/>
			<path id="XMLID_442_" style="fill:#F9BD38;" d="M259.02,372.51c-1.16,0-2.91,0.06-5.26,0.18c-2.34,0.11-4.1,0.17-5.25,0.17h-1.01
				c-0.19,0.06-0.29,0.38-0.29,0.95c0,1.53,0.02,3.84,0.07,6.93c0.04,3.08,0.06,5.39,0.06,6.92c0,0.93-0.99,3.43-2.97,7.52
				c-1.47,3.03-2.79,5.58-3.94,7.67c-4.28-8.02-6.41-12.68-6.41-13.99c0-1.7,0.12-4.26,0.36-7.68c0.24-3.42,0.36-5.98,0.36-7.69
				c0-0.44-0.26-0.66-0.78-0.66c-1.29,0-3.21-0.05-5.78-0.16c-2.57-0.1-4.48-0.16-5.75-0.16c-0.42,0-0.63,0.39-0.63,1.17
				c0,1.66-0.06,4.16-0.17,7.5c-0.12,3.33-0.17,5.83-0.17,7.49c0,1.01,1.9,5.34,5.71,12.98c2.42,4.75,4.83,9.5,7.23,14.23
				c0.27,0.53,0.61,0.84,1.01,0.92c0.4,0.08,2.02,0.13,4.86,0.13c2.25,0,3.91-0.05,4.99-0.13c0.46-0.04,0.73-0.09,0.8-0.14
				c0.07-0.05,0.22-0.31,0.43-0.78c3.09-6.01,5.46-10.52,7.1-13.51c4.15-8.29,6.22-13.09,6.22-14.39c0-1.64,0.02-4.1,0.08-7.37
				c0.05-3.27,0.08-5.72,0.08-7.34C259.97,372.77,259.65,372.51,259.02,372.51z"/>
			<path id="XMLID_440_" style="fill:#F9BD38;" d="M296.27,405.85c-1.1,0-2.74,0.1-4.94,0.3c-2.2,0.2-3.86,0.3-4.98,0.3
				c-3.06,0-4.6,0-4.6,0c-2.34-0.15-3.69-0.62-4.04-1.42c-0.21-0.47-0.32-1.5-0.32-3.1c0-1.2,0.01-1.85,0.03-1.95
				c0.15-0.43,0.65-0.64,1.52-0.64h3.34c4.28,0,7.01,0.07,8.21,0.19l2.84,0.32c0.61,0,0.92-0.21,0.92-0.63
				c0-1.69,0.08-3.37,0.25-5.05c0.331-3.187,0.518-4.817,0.56-4.895c-0.025-0.441-0.276-0.665-0.75-0.665
				c-0.42,0-0.99,0.04-1.71,0.13c-0.92,0.08-1.5,0.13-1.73,0.16c-2.72,0.14-5.4,0.22-8.05,0.22c-0.4,0-0.91,0.01-1.51,0.04
				c-0.62,0.03-1.03,0.05-1.24,0.05c-1.01,0-1.69-0.2-2.05-0.6c-0.42-0.46-0.63-1.41-0.63-2.84c0-1.37,0.05-2.18,0.16-2.43
				c0.25-0.53,0.93-0.79,2.05-0.79c4.46,0,9.49,0.23,15.09,0.69c0.31,0.03,0.53,0.04,0.66,0.04c0.42,0,0.63-0.22,0.63-0.67
				c0-0.22-0.02-0.62-0.06-1.19c-0.05-0.77-0.14-1.86-0.27-3.27c-0.22-2.45-0.38-3.92-0.49-4.41c-0.17-0.82-0.8-1.23-1.89-1.23
				c-1.54,0-3.85,0.05-6.95,0.13c-0.7,0.02-1.37,0.03-1.99,0.05c-2.11,0.05-3.76,0.08-4.95,0.08c-1.56,0-3.9-0.05-7.02-0.13
				c-3.13-0.08-5.47-0.13-7.03-0.13c-0.57,0-0.83,0.24-0.79,0.73l0.03,0.44c0.17,3.35,0.29,5.86,0.35,7.54
				c0.25,6.55,0.38,11.02,0.38,13.42c0,2.36-0.13,5.9-0.39,10.62c-0.27,4.73-0.4,8.27-0.4,10.62c0,0.61,0.35,0.92,1.04,0.92
				c1.6,0,4,0.01,7.2,0.03c3.2,0.02,5.61,0.03,7.23,0.03c7.43,0,11.91,0.11,13.45,0.32c0.44,0.06,0.75,0.09,0.94,0.09
				c0.44,0,0.79-0.2,1.04-0.6c0.3-0.5,0.64-2.07,1.01-4.7c0.36-2.42,0.54-4.08,0.54-4.99C296.96,406.23,296.73,405.85,296.27,405.85
				z M295.06,389.275c0.001,0.023,0.01,0.04,0.01,0.065C295.07,389.283,295.067,389.264,295.06,389.275z"/>
			<path id="XMLID_436_" style="fill:#F9BD38;" d="M334.93,407.71c-1.52-3.15-2.6-5.36-3.22-6.63c-0.41-0.86-0.63-1.29-0.63-1.29
				c0-0.3,0.25-0.61,0.73-0.95c2.38-1.73,4.01-3.51,4.89-5.34c0.89-1.83,1.33-4.28,1.33-7.35c0-4.61-1.72-8.13-5.15-10.58
				c-3.03-2.16-6.94-3.25-11.74-3.25c-2.31,0-5.42,0.05-9.31,0.13c-5.75,0.13-8.96,0.25-9.65,0.38c-0.68,0.12-1.01,0.37-0.99,0.72
				l0.03,0.45c0.24,3.04,0.41,6.81,0.51,11.31c0.06,2.88,0.09,6.05,0.09,9.52c0,2.34-0.11,5.84-0.33,10.51
				c-0.22,4.67-0.33,8.17-0.33,10.48c0,0.53,0.3,0.85,0.91,0.98c0.61,0.13,2.42,0.19,5.43,0.19c2.63,0,4.57-0.04,5.81-0.13
				c0.3-0.02,0.59-0.04,0.89-0.06c0.19-0.06,0.28-0.27,0.28-0.63c0-1.43-0.13-3.57-0.39-6.41c-0.27-2.84-0.4-4.98-0.4-6.41
				c0-1.07,0.16-1.61,0.47-1.61c2.29,0,3.43-0.01,3.43-0.04c1.27,0.1,2.09,0.56,2.45,1.34c1.74,4.1,3.03,7.2,3.85,9.31
				c0.61,1.62,1.07,2.84,1.39,3.66c0.16,0.36,0.31,0.57,0.44,0.63c0.06,0.04,0.32,0.1,0.79,0.16c0.99,0.13,2.86,0.19,5.62,0.19
				c3.22,0,5.22-0.06,6.02-0.19c0.43-0.06,0.64-0.17,0.64-0.32C338.79,415.94,337.5,413.01,334.93,407.71z M314.57,393.38
				c-0.67-0.11-1.01-0.21-1.01-0.32c0-0.2,0-0.44-0.01-0.72c0-0.38-0.01-0.85-0.02-1.39c-0.02-0.95-0.03-1.67-0.03-2.15
				c0-3.41,0.06-5.47,0.19-6.19c0.13-0.61,1.19-0.91,3.19-0.91c2.78,0,4.82,0.38,6.12,1.13c1.69,0.99,2.53,2.77,2.53,5.34
				c0,3.66-2.31,5.49-6.91,5.49c-1,0-1.97-0.05-2.9-0.14C315.33,393.48,314.95,393.44,314.57,393.38z"/>
		</g>
		
			<rect id="XMLID_434_" x="148.583" y="257.367" transform="matrix(0.9962 0.0868 -0.0868 0.9962 23.7638 -12.7159)" style="fill:#FFFFFF;" width="19" height="19"/>
		
			<rect id="XMLID_433_" x="351.583" y="267.656" transform="matrix(0.7071 0.7071 -0.7071 0.7071 301.7375 -174.1474)" style="fill:#FFFFFF;" width="19" height="19"/>
		
			<rect id="XMLID_432_" x="156.083" y="348.156" transform="matrix(0.7071 0.7071 -0.7071 0.7071 301.399 -12.3302)" style="fill:#FFFFFF;" width="19" height="19"/>
		
			<rect id="XMLID_431_" x="354.083" y="403.656" transform="matrix(0.7071 0.7071 -0.7071 0.7071 398.6363 -136.0817)" style="fill:#FFFFFF;" width="19" height="19"/>
	</g>
</g>
</svg>
