<?xml version="1.0" encoding="iso-8859-1"?>
<!-- Generator: Adobe Illustrator 22.0.1, SVG Export Plug-In . SVG Version: 6.00 Build 0)  -->
<svg version="1.1" xmlns="http://www.w3.org/2000/svg" xmlns:xlink="http://www.w3.org/1999/xlink" x="0px" y="0px"
	 viewBox="0 0 512 512" style="enable-background:new 0 0 512 512;" xml:space="preserve">
<g id="BULINE">
	<circle id="XMLID_531_" style="fill:#24D3B5;" cx="256" cy="256" r="256"/>
</g>
<g id="Icons">
	<g id="XMLID_64_">
		<circle id="XMLID_65_" style="fill:#B079D8;" cx="256" cy="255.076" r="234"/>
		<path id="XMLID_66_" style="fill:#966CBA;" d="M295.769,449.965c13.973,9.315,29.016,17.16,44.895,23.322
			c-26.253,10.196-54.801,15.789-84.663,15.789c-129.235,0-234-104.765-234-234s104.765-234,234-234
			c29.863,0,58.411,5.594,84.663,15.789c-15.879,6.162-30.921,14.007-44.895,23.322c-33.596,22.375-61.074,53.207-79.382,89.455
			c-16.035,31.679-25.06,67.503-25.06,105.434c0,55.915,19.623,107.25,52.338,147.498
			C258.529,420.871,276.102,436.861,295.769,449.965z"/>
		<circle id="XMLID_67_" style="fill:#32314B;" cx="256" cy="255.076" r="198.87"/>
		<path id="XMLID_69_" style="fill:#27273D;" d="M295.769,449.965c-12.848,2.607-26.152,3.978-39.769,3.978
			c-109.824,0-198.867-89.031-198.867-198.867S146.176,56.21,256,56.21c13.617,0,26.921,1.371,39.769,3.978
			c-33.596,22.375-61.074,53.207-79.382,89.455c-16.035,31.679-25.06,67.503-25.06,105.434c0,55.915,19.623,107.25,52.338,147.498
			C258.529,420.871,276.102,436.861,295.769,449.965z"/>
		<path id="XMLID_71_" style="fill:#FE4583;" d="M390.531,165.382L390.531,165.382c-32.272-32.272-84.594-32.272-116.865,0
			l-6.159,6.159c-6.355,6.355-16.658,6.355-23.013,0l-6.159-6.159c-32.271-32.271-84.594-32.271-116.865,0l0,0
			c-32.271,32.271-32.271,84.594,0,116.865l17.666,17.666l0,0l97.693,97.693c10.588,10.588,27.756,10.588,38.344,0l97.693-97.693v0
			l17.666-17.666C422.802,249.976,422.802,197.654,390.531,165.382z"/>
		<path id="XMLID_72_" style="fill:#EA2D88;" d="M243.665,402.574c-2.463-1.248-4.769-2.908-6.831-4.97l-97.689-97.689
			l-17.673-17.673c-16.135-16.135-24.202-37.284-24.202-58.433c0-21.138,8.067-42.287,24.202-58.422
			c25.673-25.684,64.049-30.933,94.915-15.745c-16.035,31.679-25.06,67.503-25.06,105.434
			C191.327,310.991,210.949,362.326,243.665,402.574z"/>
		<rect id="XMLID_74_" x="322.905" y="181.86" style="fill:#FFFFFF;" width="27.137" height="27.137"/>
		<rect id="XMLID_75_" x="295.769" y="208.997" style="fill:#FFFFFF;" width="27.137" height="27.137"/>
		<rect id="XMLID_76_" x="350.042" y="208.997" style="fill:#FFFFFF;" width="27.137" height="27.137"/>
	</g>
</g>
</svg>
