<?xml version="1.0" encoding="iso-8859-1"?>
<!-- Generator: Adobe Illustrator 22.0.1, SVG Export Plug-In . SVG Version: 6.00 Build 0)  -->
<svg version="1.1" xmlns="http://www.w3.org/2000/svg" xmlns:xlink="http://www.w3.org/1999/xlink" x="0px" y="0px"
	 viewBox="0 0 512 512" style="enable-background:new 0 0 512 512;" xml:space="preserve">
<g id="BULINE">
	<circle id="XMLID_3366_" style="fill:#00BBF0;" cx="256" cy="256" r="256"/>
</g>
<g id="Icons">
	<g id="XMLID_2293_">
		<g id="XMLID_2224_">
			<path id="XMLID_2237_" style="fill:#FF50B5;" d="M279.051,359.36c0,14.7-2.33,28.86-6.64,42.12
				c-12.76,39.2-42.84,70.58-81.21,85.11c-14.97,5.67-31.19,8.77-48.15,8.77c-15.7,0-30.78-2.66-44.81-7.55
				c-39.96-13.94-71.42-46-84.55-86.33c-4.31-13.26-6.64-27.42-6.64-42.12c0-17.59,3.34-34.41,9.42-49.84
				c14.59-37.01,44.93-66.08,82.77-78.95c13.74-4.67,28.48-7.21,43.81-7.21c16.58,0,32.46,2.96,47.15,8.39
				c36.28,13.41,65.28,41.86,79.43,77.77C275.711,324.95,279.051,341.77,279.051,359.36z"/>
			<path id="XMLID_2236_" style="fill:#FFFFFF;" d="M190.201,231.75l-7.4,57.01h-76l-7.56-58.19c13.74-4.67,28.48-7.21,43.81-7.21
				C159.632,223.36,175.511,226.32,190.201,231.75z"/>
			<path id="XMLID_2235_" style="fill:#FFFFFF;" d="M191.201,486.59c-14.97,5.67-31.19,8.77-48.15,8.77
				c-15.7,0-30.78-2.66-44.81-7.55l8.56-65.93h76L191.201,486.59z"/>
			<path id="XMLID_2234_" style="fill:#FFFFFF;" d="M279.051,359.36c0,14.7-2.33,28.86-6.64,42.12l-62.8-8.16v-76l60.02-7.8
				C275.711,324.95,279.051,341.77,279.051,359.36z"/>
			<path id="XMLID_2233_" style="fill:#FFFFFF;" d="M76.491,317.32v76l-62.8,8.16c-4.31-13.26-6.64-27.42-6.64-42.12
				c0-17.59,3.34-34.41,9.42-49.84L76.491,317.32z"/>
			<path id="XMLID_2232_" style="fill:#D14A9D;" d="M182.641,487.81c0.86,0.3,1.72,0.59,2.59,0.87
				c-13.28,4.34-27.45,6.68-42.18,6.68c-15.7,0-30.78-2.66-44.81-7.55c-39.96-13.94-71.42-46-84.55-86.33
				c-4.31-13.26-6.64-27.42-6.64-42.12c0-17.59,3.34-34.41,9.42-49.84c14.59-37.01,44.93-66.08,82.77-78.95
				c13.74-4.67,28.48-7.21,43.81-7.21c14.74,0,28.92,2.34,42.21,6.68c-0.54,0.17-1.08,0.35-1.62,0.53
				c-26.57,9.04-49.45,26.07-65.76,48.23c-2.37,3.21-4.6,6.54-6.68,9.96c-4.01,6.57-7.47,13.52-10.33,20.76
				c-6.08,15.43-9.42,32.25-9.42,49.84c0,14.7,2.33,28.86,6.64,42.12c2.33,7.16,5.24,14.06,8.68,20.65
				c3.24,6.23,6.96,12.18,11.1,17.8C133.982,461.81,156.491,478.69,182.641,487.81z"/>
			<path id="XMLID_2231_" style="fill:#CECECE;" d="M185.261,230.04c-0.54,0.17-1.08,0.35-1.62,0.53
				c-26.57,9.04-49.45,26.07-65.76,48.23c-2.37,3.21-4.6,6.54-6.68,9.96h-4.4l-0.69-5.3l-6.87-52.89
				c13.74-4.67,28.48-7.21,43.81-7.21C157.792,223.36,171.971,225.7,185.261,230.04z"/>
			<path id="XMLID_2230_" style="fill:#CECECE;" d="M185.232,488.68c-13.28,4.34-27.45,6.68-42.18,6.68
				c-15.7,0-30.78-2.66-44.81-7.55l6.89-53.03l1.64-12.65c3.24,6.23,6.96,12.18,11.1,17.8c16.11,21.88,38.62,38.76,64.77,47.88
				C183.502,488.11,184.361,488.4,185.232,488.68z"/>
			<path id="XMLID_2229_" style="fill:#CECECE;" d="M76.491,317.32v76l-62.8,8.16c-4.31-13.26-6.64-27.42-6.64-42.12
				c0-17.59,3.34-34.41,9.42-49.84L76.491,317.32z"/>
			<circle id="XMLID_2228_" style="fill:#FC7AAC;" cx="143.051" cy="359.364" r="84.396"/>
			<circle id="XMLID_2227_" style="fill:#FFFFFF;" cx="143.051" cy="359.364" r="49.396"/>
			<path id="XMLID_2226_" style="fill:#D14A9D;" d="M106.771,422.13c3.24,6.23,6.96,12.18,11.1,17.8c-4.42-1.37-8.67-3.1-12.74-5.15
				c-17.04-8.58-30.77-22.77-38.77-40.14c-4.95-10.74-7.71-22.69-7.71-35.28c0-15.64,4.26-30.29,11.68-42.84
				c8.39-14.23,20.85-25.78,35.78-33.06c3.77-1.83,7.7-3.4,11.77-4.66c-2.37,3.21-4.6,6.54-6.68,9.96
				c-4.01,6.57-7.47,13.52-10.33,20.76c-6.08,15.43-9.42,32.25-9.42,49.84c0,14.7,2.33,28.86,6.64,42.12
				C100.422,408.64,103.332,415.54,106.771,422.13z"/>
			<path id="XMLID_2225_" style="fill:#F8C952;" d="M168.834,340.385L168.834,340.385c-6.5-6.5-17.039-6.5-23.539,0l-1.241,1.241
				c-1.28,1.28-3.355,1.28-4.635,0l-1.241-1.241c-6.5-6.5-17.039-6.5-23.539,0l0,0c-6.5,6.5-6.5,17.039,0,23.539l3.558,3.558l0,0
				l19.678,19.678c2.133,2.133,5.591,2.133,7.723,0l19.678-19.678v0l3.558-3.558C175.334,357.424,175.334,346.885,168.834,340.385z"
				/>
		</g>
		<g id="XMLID_2124_">
			<path id="XMLID_2158_" style="fill:#DD1B1B;" d="M380.331,251.552c0,14.7-2.33,28.86-6.64,42.12
				c-12.76,39.2-42.84,70.58-81.21,85.11c-14.97,5.67-31.19,8.77-48.15,8.77c-15.7,0-30.78-2.66-44.81-7.55
				c-39.96-13.94-71.42-46-84.55-86.33c-4.31-13.26-6.64-27.42-6.64-42.12c0-17.59,3.34-34.41,9.42-49.84
				c14.59-37.01,44.93-66.08,82.77-78.95c13.74-4.67,28.48-7.21,43.81-7.21c16.58,0,32.46,2.96,47.15,8.39
				c36.28,13.41,65.28,41.86,79.43,77.77C376.991,217.142,380.331,233.962,380.331,251.552z"/>
			<path id="XMLID_2157_" style="fill:#FFFFFF;" d="M291.481,123.942l-7.4,57.01h-76l-7.56-58.19c13.74-4.67,28.48-7.21,43.81-7.21
				C260.912,115.552,276.791,118.512,291.481,123.942z"/>
			<path id="XMLID_2136_" style="fill:#FFFFFF;" d="M292.481,378.782c-14.97,5.67-31.19,8.77-48.15,8.77
				c-15.7,0-30.78-2.66-44.81-7.55l8.56-65.93h76L292.481,378.782z"/>
			<path id="XMLID_2134_" style="fill:#FFFFFF;" d="M380.331,251.552c0,14.7-2.33,28.86-6.64,42.12l-62.8-8.16v-76l60.02-7.8
				C376.991,217.142,380.331,233.962,380.331,251.552z"/>
			<path id="XMLID_2133_" style="fill:#FFFFFF;" d="M177.771,209.512v76l-62.8,8.16c-4.31-13.26-6.64-27.42-6.64-42.12
				c0-17.59,3.34-34.41,9.42-49.84L177.771,209.512z"/>
			<path id="XMLID_2132_" style="fill:#BC1D1D;" d="M283.921,380.002c0.86,0.3,1.72,0.59,2.59,0.87
				c-13.28,4.34-27.45,6.68-42.18,6.68c-15.7,0-30.78-2.66-44.81-7.55c-39.96-13.94-71.42-46-84.55-86.33
				c-4.31-13.26-6.64-27.42-6.64-42.12c0-17.59,3.34-34.41,9.42-49.84c14.59-37.01,44.93-66.08,82.77-78.95
				c13.74-4.67,28.48-7.21,43.81-7.21c14.74,0,28.92,2.34,42.21,6.68c-0.54,0.17-1.08,0.35-1.62,0.53
				c-26.57,9.04-49.45,26.07-65.76,48.23c-2.37,3.21-4.6,6.54-6.68,9.96c-4.01,6.57-7.47,13.52-10.33,20.76
				c-6.08,15.43-9.42,32.25-9.42,49.84c0,14.7,2.33,28.86,6.64,42.12c2.33,7.16,5.24,14.06,8.68,20.65
				c3.24,6.23,6.96,12.18,11.1,17.8C235.262,354.002,257.771,370.882,283.921,380.002z"/>
			<path id="XMLID_2131_" style="fill:#CECECE;" d="M286.541,122.232c-0.54,0.17-1.08,0.35-1.62,0.53
				c-26.57,9.04-49.45,26.07-65.76,48.23c-2.37,3.21-4.6,6.54-6.68,9.96h-4.4l-0.69-5.3l-6.87-52.89
				c13.74-4.67,28.48-7.21,43.81-7.21C259.072,115.552,273.251,117.892,286.541,122.232z"/>
			<path id="XMLID_2130_" style="fill:#CECECE;" d="M286.512,380.872c-13.28,4.34-27.45,6.68-42.18,6.68
				c-15.7,0-30.78-2.66-44.81-7.55l6.89-53.03l1.64-12.65c3.24,6.23,6.96,12.18,11.1,17.8c16.11,21.88,38.62,38.76,64.77,47.88
				C284.782,380.302,285.642,380.592,286.512,380.872z"/>
			<path id="XMLID_2129_" style="fill:#CECECE;" d="M177.771,209.512v76l-62.8,8.16c-4.31-13.26-6.64-27.42-6.64-42.12
				c0-17.59,3.34-34.41,9.42-49.84L177.771,209.512z"/>
			<circle id="XMLID_2128_" style="fill:#EA3434;" cx="244.331" cy="251.556" r="84.396"/>
			<circle id="XMLID_2127_" style="fill:#FFFFFF;" cx="244.331" cy="251.556" r="49.396"/>
			<path id="XMLID_2126_" style="fill:#BC1D1D;" d="M208.051,314.322c3.24,6.23,6.96,12.18,11.1,17.8
				c-4.42-1.37-8.67-3.1-12.74-5.15c-17.04-8.58-30.77-22.77-38.77-40.14c-4.95-10.74-7.71-22.69-7.71-35.28
				c0-15.64,4.26-30.29,11.68-42.84c8.39-14.23,20.85-25.78,35.78-33.06c3.77-1.83,7.7-3.4,11.77-4.66
				c-2.37,3.21-4.6,6.54-6.68,9.96c-4.01,6.57-7.47,13.52-10.33,20.76c-6.08,15.43-9.42,32.25-9.42,49.84
				c0,14.7,2.33,28.86,6.64,42.12C201.702,300.832,204.612,307.732,208.051,314.322z"/>
			<path id="XMLID_2125_" style="fill:#4B4C9B;" d="M270.114,232.577L270.114,232.577c-6.5-6.5-17.039-6.5-23.539,0l-1.241,1.241
				c-1.28,1.28-3.355,1.28-4.635,0l-1.241-1.241c-6.5-6.5-17.039-6.5-23.539,0l0,0c-6.5,6.5-6.5,17.039,0,23.539l3.558,3.558l0,0
				l19.678,19.678c2.133,2.133,5.591,2.133,7.723,0l19.678-19.678l0,0l3.558-3.558C276.614,249.616,276.614,239.077,270.114,232.577
				z"/>
		</g>
		<g id="XMLID_2063_">
			<path id="XMLID_2062_" style="fill:#303049;" d="M501.885,144.229c0,14.7-2.33,28.86-6.64,42.12
				c-12.76,39.2-42.84,70.58-81.21,85.11c-14.97,5.67-31.19,8.77-48.15,8.77c-15.7,0-30.78-2.66-44.81-7.55
				c-39.96-13.94-71.42-46-84.55-86.33c-4.31-13.26-6.64-27.42-6.64-42.12c0-17.59,3.34-34.41,9.42-49.84
				c14.59-37.01,44.93-66.08,82.77-78.95c13.74-4.67,28.48-7.21,43.81-7.21c16.58,0,32.46,2.96,47.15,8.39
				c36.28,13.41,65.28,41.86,79.43,77.77C498.545,109.819,501.885,126.639,501.885,144.229z"/>
			<path id="XMLID_2054_" style="fill:#FFFFFF;" d="M413.035,16.619l-7.4,57.01h-76l-7.56-58.19c13.74-4.67,28.48-7.21,43.81-7.21
				C382.465,8.229,398.345,11.189,413.035,16.619z"/>
			<path id="XMLID_2053_" style="fill:#FFFFFF;" d="M414.035,271.459c-14.97,5.67-31.19,8.77-48.15,8.77
				c-15.7,0-30.78-2.66-44.81-7.55l8.56-65.93h76L414.035,271.459z"/>
			<path id="XMLID_2052_" style="fill:#FFFFFF;" d="M501.885,144.229c0,14.7-2.33,28.86-6.64,42.12l-62.8-8.16v-76l60.02-7.8
				C498.545,109.819,501.885,126.639,501.885,144.229z"/>
			<path id="XMLID_2051_" style="fill:#FFFFFF;" d="M299.325,102.189v76l-62.8,8.16c-4.31-13.26-6.64-27.42-6.64-42.12
				c0-17.59,3.34-34.41,9.42-49.84L299.325,102.189z"/>
			<path id="XMLID_2070_" style="fill:#27273D;" d="M405.475,272.679c0.86,0.3,1.72,0.59,2.59,0.87
				c-13.28,4.34-27.45,6.68-42.18,6.68c-15.7,0-30.78-2.66-44.81-7.55c-39.96-13.94-71.42-46-84.55-86.33
				c-4.31-13.26-6.64-27.42-6.64-42.12c0-17.59,3.34-34.41,9.42-49.84c14.59-37.01,44.93-66.08,82.77-78.95
				c13.74-4.67,28.48-7.21,43.81-7.21c14.74,0,28.92,2.34,42.21,6.68c-0.54,0.17-1.08,0.35-1.62,0.53
				c-26.57,9.04-49.45,26.07-65.76,48.23c-2.37,3.21-4.6,6.54-6.68,9.96c-4.01,6.57-7.47,13.52-10.33,20.76
				c-6.08,15.43-9.42,32.25-9.42,49.84c0,14.7,2.33,28.86,6.64,42.12c2.33,7.16,5.24,14.06,8.68,20.65
				c3.24,6.23,6.96,12.18,11.1,17.8C356.815,246.679,379.325,263.559,405.475,272.679z"/>
			<path id="XMLID_2059_" style="fill:#CECECE;" d="M408.095,14.909c-0.54,0.17-1.08,0.35-1.62,0.53
				c-26.57,9.04-49.45,26.07-65.76,48.23c-2.37,3.21-4.6,6.54-6.68,9.96h-4.4l-0.69-5.3l-6.87-52.89
				c13.74-4.67,28.48-7.21,43.81-7.21C380.625,8.229,394.805,10.569,408.095,14.909z"/>
			<path id="XMLID_2058_" style="fill:#CECECE;" d="M408.065,273.549c-13.28,4.34-27.45,6.68-42.18,6.68
				c-15.7,0-30.78-2.66-44.81-7.55l6.89-53.03l1.64-12.65c3.24,6.23,6.96,12.18,11.1,17.8c16.11,21.88,38.62,38.76,64.77,47.88
				C406.335,272.979,407.195,273.269,408.065,273.549z"/>
			<path id="XMLID_2022_" style="fill:#CECECE;" d="M299.325,102.189v76l-62.8,8.16c-4.31-13.26-6.64-27.42-6.64-42.12
				c0-17.59,3.34-34.41,9.42-49.84L299.325,102.189z"/>
			<circle id="XMLID_1912_" style="fill:#3E436D;" cx="365.885" cy="144.233" r="84.396"/>
			<circle id="XMLID_2026_" style="fill:#FFFFFF;" cx="365.885" cy="144.233" r="49.396"/>
			<path id="XMLID_2060_" style="fill:#303049;" d="M329.605,206.999c3.24,6.23,6.96,12.18,11.1,17.8
				c-4.42-1.37-8.67-3.1-12.74-5.15c-17.04-8.58-30.77-22.77-38.77-40.14c-4.95-10.74-7.71-22.69-7.71-35.28
				c0-15.64,4.26-30.29,11.68-42.84c8.39-14.23,20.85-25.78,35.78-33.06c3.77-1.83,7.7-3.4,11.77-4.66
				c-2.37,3.21-4.6,6.54-6.68,9.96c-4.01,6.57-7.47,13.52-10.33,20.76c-6.08,15.43-9.42,32.25-9.42,49.84
				c0,14.7,2.33,28.86,6.64,42.12C323.255,193.509,326.165,200.409,329.605,206.999z"/>
			<path id="XMLID_2135_" style="fill:#F8C952;" d="M391.668,125.255L391.668,125.255c-6.5-6.5-17.039-6.5-23.539,0l-1.241,1.241
				c-1.28,1.28-3.355,1.28-4.635,0l-1.241-1.241c-6.5-6.5-17.039-6.5-23.539,0l0,0c-6.5,6.5-6.5,17.039,0,23.539l3.558,3.558l0,0
				l19.678,19.678c2.133,2.133,5.591,2.133,7.723,0l19.678-19.678v0l3.558-3.558C398.168,142.294,398.168,131.755,391.668,125.255z"
				/>
		</g>
	</g>
</g>
</svg>
