<?xml version="1.0" encoding="iso-8859-1"?>
<!-- Generator: Adobe Illustrator 22.0.1, SVG Export Plug-In . SVG Version: 6.00 Build 0)  -->
<svg version="1.1" xmlns="http://www.w3.org/2000/svg" xmlns:xlink="http://www.w3.org/1999/xlink" x="0px" y="0px"
	 viewBox="0 0 512 512" style="enable-background:new 0 0 512 512;" xml:space="preserve">
<g id="BULINE">
	<circle id="XMLID_2297_" style="fill:#24D3B5;" cx="256" cy="256" r="256"/>
</g>
<g id="Icons">
	<g id="XMLID_241_">
		<g id="XMLID_345_">
			<path id="XMLID_401_" style="fill:#FE4583;" d="M315.578,433.418h58.232c38.217,0,69.198-30.981,69.198-69.198V151.784
				c0-38.217-30.981-69.198-69.198-69.198h-58.232c-5.469,0-9.903,4.434-9.903,9.903v331.028
				C305.675,428.985,310.109,433.418,315.578,433.418z"/>
			<path id="XMLID_400_" style="fill:#FC3268;" d="M442.887,368.297c-2.11,36.32-32.23,65.12-69.08,65.12h-58.23
				c-5.47,0-9.9-4.43-9.9-9.9V92.487c0-5.47,4.43-9.9,9.9-9.9h42.1v277.94c0,5.47,4.43,9.9,9.9,9.9h58.23
				C431.707,370.427,437.427,369.687,442.887,368.297z"/>
			<path id="XMLID_399_" style="fill:#27273D;" d="M291.823,420.531h13.852V95.472h-13.852c-6.372,0-11.537,5.166-11.537,11.537
				v301.984C280.286,415.366,285.451,420.531,291.823,420.531z"/>
			<circle id="XMLID_398_" style="fill:#27273D;" cx="374.341" cy="336.766" r="35.006"/>
			<circle id="XMLID_397_" style="fill:#32314B;" cx="374.341" cy="336.766" r="26.159"/>
			<circle id="XMLID_396_" style="fill:#32314B;" cx="374.282" cy="159.742" r="19.811"/>
			<circle id="XMLID_395_" style="fill:#32314B;" cx="374.282" cy="238.507" r="19.811"/>
			<circle id="XMLID_394_" style="fill:#32314B;" cx="334.9" cy="199.124" r="19.811"/>
			<circle id="XMLID_393_" style="fill:#32314B;" cx="413.664" cy="199.124" r="19.811"/>
			<path id="XMLID_392_" style="fill:#366FCC;" d="M325.069,400.912h19.661c1.874,0,3.393-1.519,3.393-3.393v-19.661
				c0-1.874-1.519-3.393-3.393-3.393h-19.661c-1.874,0-3.393,1.519-3.393,3.393v19.661
				C321.676,399.393,323.195,400.912,325.069,400.912z"/>
			<circle id="XMLID_391_" style="fill:#FFFFFF;" cx="374.282" cy="159.742" r="8.135"/>
			<circle id="XMLID_390_" style="fill:#FFFFFF;" cx="413.664" cy="199.124" r="8.135"/>
			<circle id="XMLID_385_" style="fill:#FFFFFF;" cx="374.282" cy="238.507" r="8.135"/>
			<circle id="XMLID_384_" style="fill:#FFFFFF;" cx="334.9" cy="199.124" r="8.135"/>
		</g>
		<g id="XMLID_265_">
			<path id="XMLID_344_" style="fill:#3588CD;" d="M187.716,433.418h-58.232c-38.217,0-69.198-30.981-69.198-69.198V151.784
				c0-38.217,30.981-69.198,69.198-69.198h58.232c5.469,0,9.903,4.434,9.903,9.903v331.028
				C197.619,428.985,193.185,433.418,187.716,433.418z"/>
			<path id="XMLID_343_" style="fill:#366FCC;" d="M197.619,406.389v17.125c0,5.469-4.434,9.903-9.903,9.903h-58.233
				c-38.217,0-69.197-30.981-69.197-69.197V151.781c0-32.267,22.089-59.376,51.967-67.028
				c-8.021,11.298-12.729,25.101-12.729,40.011v212.427c0,38.217,30.981,69.197,69.197,69.197H197.619z"/>
			<path id="XMLID_342_" style="fill:#27273D;" d="M211.47,420.531h-13.852V95.472h13.852c6.372,0,11.538,5.166,11.538,11.537
				v301.984C223.008,415.366,217.842,420.531,211.47,420.531z"/>
			<circle id="XMLID_311_" style="fill:#27273D;" cx="128.952" cy="165.966" r="35.006"/>
			<circle id="XMLID_310_" style="fill:#32314B;" cx="128.952" cy="165.966" r="26.159"/>
			<circle id="XMLID_309_" style="fill:#32314B;" cx="128.952" cy="258.002" r="19.811"/>
			<circle id="XMLID_308_" style="fill:#32314B;" cx="128.952" cy="336.766" r="19.811"/>
			<circle id="XMLID_307_" style="fill:#32314B;" cx="168.334" cy="297.384" r="19.811"/>
			<circle id="XMLID_306_" style="fill:#32314B;" cx="89.57" cy="297.384" r="19.811"/>
			<path id="XMLID_297_" style="fill:#27273D;" d="M99.524,280.262v34.241c-2.92,1.708-6.324,2.689-9.96,2.689
				c-10.94,0-19.804-8.863-19.804-19.804s8.863-19.815,19.804-19.815C93.199,277.573,96.604,278.554,99.524,280.262z"/>
			<path id="XMLID_295_" style="fill:#FC3268;" d="M158.504,400.912h19.661c1.874,0,3.393-1.519,3.393-3.393v-19.661
				c0-1.874-1.519-3.393-3.393-3.393h-19.661c-1.874,0-3.393,1.519-3.393,3.393v19.661
				C155.111,399.393,156.63,400.912,158.504,400.912z"/>
			<circle id="XMLID_273_" style="fill:#FFFFFF;" cx="128.952" cy="258.002" r="8.135"/>
			<circle id="XMLID_271_" style="fill:#FFFFFF;" cx="168.334" cy="297.384" r="8.135"/>
			<circle id="XMLID_270_" style="fill:#FFFFFF;" cx="128.952" cy="336.766" r="8.135"/>
			<circle id="XMLID_268_" style="fill:#FFFFFF;" cx="89.57" cy="297.384" r="8.135"/>
		</g>
	</g>
</g>
</svg>
