<?xml version="1.0" encoding="iso-8859-1"?>
<!-- Generator: Adobe Illustrator 22.0.1, SVG Export Plug-In . SVG Version: 6.00 Build 0)  -->
<svg version="1.1" xmlns="http://www.w3.org/2000/svg" xmlns:xlink="http://www.w3.org/1999/xlink" x="0px" y="0px"
	 viewBox="0 0 512 512" style="enable-background:new 0 0 512 512;" xml:space="preserve">
<g id="BULINE">
	<circle id="XMLID_819_" style="fill:#24D3B5;" cx="256" cy="256" r="256"/>
</g>
<g id="Icons">
	<g id="XMLID_425_">
		<path id="XMLID_843_" style="fill:#4F4F74;" d="M409.19,65.68v395.44C366.47,493.07,313.44,512,256,512
			c-56.92,0-109.5-18.58-152.01-50V65.68c0-8.53,6.92-15.44,15.45-15.44h274.31C402.28,50.24,409.19,57.15,409.19,65.68z"/>
		<path id="XMLID_838_" style="fill:#303049;" d="M409.19,110.11v351.01C366.47,493.07,313.44,512,256,512
			c-56.92,0-109.5-18.58-152.01-50V110.11H409.19z"/>
		<path id="XMLID_691_" style="fill:#27273D;" d="M409.19,427.19v33.93C366.47,493.07,313.44,512,256,512
			c-56.92,0-109.5-18.58-152.01-50V110.11h108.2v120.07c0,0.68,0,1.37,0.02,2.05c0.01,1.58,0.04,3.16,0.09,4.72
			c0.06,1.6,0.13,3.19,0.23,4.78c0.16,2.72,0.36,5.43,0.63,8.11c0.28,2.81,0.62,5.61,1.01,8.39c0.65,4.51,1.44,8.98,2.39,13.38
			c2.36,11.04,5.64,21.75,9.79,32.03c6.57,16.36,15.28,31.63,25.77,45.47c4.81,6.33,9.99,12.37,15.51,18.07
			c2.56,2.65,5.2,5.23,7.91,7.72c3.04,2.82,6.17,5.54,9.38,8.15c3.83,3.11,7.77,6.08,11.83,8.91c1.95,1.36,3.92,2.69,5.93,3.97
			c3.85,2.49,7.81,4.85,11.85,7.06c0.07,0.04,0.14,0.08,0.21,0.12c0.74,0.41,1.47,0.8,2.22,1.2c0.87,0.46,1.75,0.92,2.63,1.37
			c4.47,2.28,9.04,4.4,13.69,6.35c7.48,3.13,15.21,5.81,23.14,8.01c3.43,0.95,6.9,1.81,10.41,2.58c4.01,0.88,8.07,1.64,12.17,2.27
			C388.84,426.4,398.92,427.19,409.19,427.19z"/>
		<path id="XMLID_501_" style="fill:#3E436D;" d="M291.641,96.168H221.55c-6.295,0-11.398-5.103-11.398-11.398v0
			c0-6.295,5.103-11.398,11.398-11.398h70.091c6.295,0,11.398,5.103,11.398,11.398v0C303.039,91.065,297.936,96.168,291.641,96.168z
			"/>
		<path id="XMLID_487_" style="fill:#3E436D;" d="M100.254,274.458h3.74V170.683h-3.74c-8.457,0-15.314,6.856-15.314,15.314v73.149
			C84.94,267.602,91.796,274.458,100.254,274.458z"/>
		<path id="XMLID_486_" style="fill:#3E436D;" d="M417.759,170.683h-8.563v40.83h8.563c5.136,0,9.3-4.164,9.3-9.3v-22.229
			C427.06,174.847,422.896,170.683,417.759,170.683z"/>
		<path id="XMLID_485_" style="fill:#3E436D;" d="M417.759,237.292h-8.563v40.83h8.563c5.136,0,9.3-4.164,9.3-9.3v-22.229
			C427.06,241.456,422.896,237.292,417.759,237.292z"/>
		<path id="XMLID_484_" style="fill:#F7DB94;" d="M326.842,458.237H146.095V148.57H328.42c21.36,0,38.675,17.316,38.675,38.675
			v230.738C367.095,440.215,349.073,458.237,326.842,458.237z"/>
		<path id="XMLID_483_" style="fill:#F8D572;" d="M367.095,187.252v35.32h-99.971c-31.551,0-57.129,25.578-57.129,57.129v178.531
			h-63.9v-309.66h182.32C349.778,148.572,367.095,165.89,367.095,187.252z"/>
		<path id="XMLID_482_" style="fill:#F8C952;" d="M311.95,195.732c4.96,4.96,11.81,8.05,19.38,8.09H150.29
			c-7.63,0-14.53-3.09-19.53-8.09s-8.09-11.9-8.09-19.53c0-15.26,12.37-27.63,27.62-27.63h181.04
			c-15.19,0.09-27.47,12.42-27.47,27.63C303.86,183.832,306.95,190.732,311.95,195.732z"/>
		<path id="XMLID_481_" style="fill:#F8C952;" d="M311.95,411.077c4.96-4.96,11.81-8.05,19.38-8.09l-181.04,0
			c-7.63,0-14.53,3.09-19.53,8.09s-8.09,11.9-8.09,19.53c0,15.26,12.37,27.63,27.62,27.63l181.04,0
			c-15.19-0.09-27.47-12.42-27.47-27.63C303.86,422.977,306.95,416.077,311.95,411.077z"/>
		<g id="XMLID_429_">
			<path id="XMLID_479_" style="fill:#A85C3B;" d="M208.854,236.409c0.25-2.599,2.583-4.506,5.194-4.506h11.203c2.761,0,5,2.239,5,5
				l0,0c0,2.761-2.239,5-5,5h-11.42C210.907,241.902,208.567,239.39,208.854,236.409z"/>
			<path id="XMLID_478_" style="fill:#A85C3B;" d="M247.258,329.519c-2.709,2.427-7.023,1.242-8.112-2.228
				c-0.634-2.018-0.975-4.164-0.975-6.389v-0.787c0-2.762,2.241-5.001,5.003-4.998h0.004c2.758,0.003,4.993,2.24,4.993,4.998v0.787
				c0,1.139,0.169,2.239,0.483,3.277c0.582,1.92,0.1,4-1.394,5.339L247.258,329.519z"/>
			<path id="XMLID_477_" style="fill:#A85C3B;" d="M245.198,305.369h-0.005c-3.822-0.004-6.208-4.113-4.354-7.456
				c1.377-2.483,3.237-4.664,5.45-6.415c3.271-2.588,8.09-0.237,8.09,3.934l0,0c0,1.569-0.769,3.004-1.989,3.99
				c-1.145,0.926-2.109,2.07-2.824,3.369C248.691,304.384,247.016,305.371,245.198,305.369z"/>
			<path id="XMLID_476_" style="fill:#A85C3B;" d="M254.25,241.902H245c-2.761,0-5-2.239-5-5l0,0c0-2.761,2.239-5,5-5h9.25
				c2.761,0,5,2.239,5,5l0,0C259.25,239.664,257.011,241.902,254.25,241.902z"/>
			<path id="XMLID_475_" style="fill:#A85C3B;" d="M258.84,332.222c0.22,0.01,0.44,0.02,0.66,0.02h11.636
				c1.372,0,2.484,1.112,2.484,2.484v5.032c0,1.372-1.112,2.484-2.484,2.484H259.5c-1.814,0-3.576-0.229-5.259-0.659
				c-1.944-0.496-2.578-2.932-1.084-4.271L258.84,332.222z"/>
			<path id="XMLID_474_" style="fill:#A85C3B;" d="M278.38,296.902h-9.26c-2.761,0-5-2.239-5-5l0,0c0-2.761,2.239-5,5-5h9.26
				c2.761,0,5,2.239,5,5l0,0C283.38,294.664,281.141,296.902,278.38,296.902z"/>
			<path id="XMLID_473_" style="fill:#A85C3B;" d="M283.25,241.902H274c-2.761,0-5-2.239-5-5l0,0c0-2.761,2.239-5,5-5h9.25
				c2.761,0,5,2.239,5,5l0,0C288.25,239.664,286.011,241.902,283.25,241.902z"/>
			<path id="XMLID_472_" style="fill:#A85C3B;" d="M283.38,334.726c0-1.372,1.112-2.484,2.484-2.484H301.5c0.012,0,0.024,0,0.037,0
				c1.738,0.003,2.877,1.835,2.19,3.431l-2.18,5.067c-0.392,0.911-1.289,1.502-2.282,1.502h-13.401
				c-1.372,0-2.484-1.112-2.484-2.484V334.726z"/>
			<path id="XMLID_471_" style="fill:#A85C3B;" d="M307.38,296.902h-9.26c-2.761,0-5-2.239-5-5l0,0c0-2.761,2.239-5,5-5h9.26
				c2.761,0,5,2.239,5,5l0,0C312.38,294.664,310.141,296.902,307.38,296.902z"/>
			<path id="XMLID_470_" style="fill:#A85C3B;" d="M312.25,241.902H303c-2.761,0-5-2.239-5-5l0,0c0-2.761,2.239-5,5-5h9.25
				c2.761,0,5,2.239,5,5l0,0C317.25,239.664,315.011,241.902,312.25,241.902z"/>
			<path id="XMLID_469_" style="fill:#A85C3B;" d="M214.047,364.902h11.203c2.761,0,5,2.239,5,5l0,0c0,2.761-2.239,5-5,5h-11.42
				c-2.923,0-5.263-2.512-4.976-5.494C209.103,366.81,211.436,364.902,214.047,364.902z"/>
			<path id="XMLID_463_" style="fill:#A85C3B;" d="M242.484,364.902h12.912c1.372,0,2.484,1.112,2.484,2.484v5.032
				c0,1.372-1.112,2.484-2.484,2.484h-12.912c-1.372,0-2.484-1.112-2.484-2.484v-5.032C240,366.014,241.112,364.902,242.484,364.902
				z"/>
			<path id="XMLID_460_" style="fill:#A85C3B;" d="M270.104,364.902h10.792c1.372,0,2.484,1.112,2.484,2.484v5.032
				c0,1.372-1.112,2.484-2.484,2.484h-10.792c-1.372,0-2.484-1.112-2.484-2.484v-5.032
				C267.62,366.014,268.732,364.902,270.104,364.902z"/>
			<path id="XMLID_459_" style="fill:#A85C3B;" d="M307.715,365.296l0.246,0.16c3.624,2.353,2.642,7.892-1.564,8.881
				c-1.572,0.37-3.211,0.566-4.897,0.566h-3.485c-2.703,0-4.895-2.191-4.895-4.895v-0.21c0-2.703,2.191-4.895,4.895-4.895h3.485
				c0.891,0,1.758-0.103,2.59-0.299C305.334,364.311,306.643,364.6,307.715,365.296z"/>
			<path id="XMLID_448_" style="fill:#A85C3B;" d="M322.83,353.572c0,0.43-0.013,0.857-0.038,1.281
				c-0.222,3.7-4.44,5.729-7.548,3.709l-0.208-0.135c-1.44-0.936-2.305-2.558-2.22-4.273c0.01-0.193,0.014-0.387,0.014-0.582
				c0-2.044-0.544-3.965-1.491-5.624c-0.794-1.389-0.968-3.046-0.335-4.516l0.098-0.227c1.564-3.629,6.607-4.033,8.654-0.654
				C321.706,345.77,322.83,349.543,322.83,353.572z"/>
			<path id="XMLID_441_" style="fill:#A85C3B;" d="M335.519,284.957l4.542,1.979c1.906,0.83,2.314,3.375,0.746,4.74
				c-3.742,3.255-8.634,5.227-13.977,5.227h-1.872c-1.567,0-2.838-1.271-2.838-2.838v-4.324c0-1.567,1.271-2.838,2.838-2.838h1.872
				c2.194,0,4.241-0.622,5.976-1.702C333.627,284.689,334.632,284.57,335.519,284.957z"/>
			<path id="XMLID_438_" style="fill:#A85C3B;" d="M327,237.807V237.6c0-3.347,3.279-5.686,6.46-4.644
				c4.438,1.454,8.238,4.325,10.862,8.075c2.234,3.192-0.184,7.586-4.08,7.589l-0.361,0c-1.562,0.001-2.979-0.803-3.902-2.064
				c-1.408-1.923-3.406-3.387-5.723-4.124C328.279,241.803,327,239.882,327,237.807z"/>
			<path id="XMLID_437_" style="fill:#A85C3B;" d="M345.329,258.365c1.569-0.002,2.841,1.27,2.841,2.838v14.369
				c0,0.014,0,0.028,0,0.042c-0.004,1.995-2.105,3.304-3.934,2.505l-4.363-1.904c-1.034-0.451-1.703-1.473-1.703-2.601v-12.407
				c0-1.566,1.269-2.837,2.835-2.838L345.329,258.365z"/>
		</g>
		
			<line id="XMLID_428_" style="fill:none;stroke:#DD1B1B;stroke-width:8;stroke-linecap:round;stroke-miterlimit:10;" x1="166.333" y1="357.08" x2="191.566" y2="382.313"/>
		
			<line id="XMLID_427_" style="fill:none;stroke:#DD1B1B;stroke-width:8;stroke-linecap:round;stroke-miterlimit:10;" x1="191.566" y1="357.08" x2="166.333" y2="382.313"/>
		<circle id="XMLID_426_" style="fill:#FC3268;" cx="181.667" cy="236.902" r="15.333"/>
	</g>
</g>
</svg>
