<?xml version="1.0" encoding="iso-8859-1"?>
<!-- Generator: Adobe Illustrator 22.0.1, SVG Export Plug-In . SVG Version: 6.00 Build 0)  -->
<svg version="1.1" xmlns="http://www.w3.org/2000/svg" xmlns:xlink="http://www.w3.org/1999/xlink" x="0px" y="0px"
	 viewBox="0 0 512 512" style="enable-background:new 0 0 512 512;" xml:space="preserve">
<g id="BULINE">
	<circle id="XMLID_2024_" style="fill:#00BBF0;" cx="256" cy="256" r="256"/>
</g>
<g id="Icons">
	<g id="XMLID_1337_">
		<polygon id="XMLID_1390_" style="fill:#FCB5A9;" points="490.357,376.254 495.775,376.254 495.775,376.256 490.355,376.256 		"/>
		<g id="XMLID_1338_">
			<path id="XMLID_1389_" style="fill:#FFFFFF;" d="M379.269,172.05H128.435c-61.375,0-111.129,49.754-111.129,111.129
				c0,61.375,49.754,111.129,111.129,111.129c37.178,0,70.088-18.26,90.262-46.298h70.31c20.174,28.038,53.083,46.298,90.262,46.298
				c61.375,0,111.129-49.754,111.129-111.129C490.398,221.804,440.644,172.05,379.269,172.05z"/>
			<path id="XMLID_1388_" style="fill:#D3D3D3;" d="M490.398,284.148c0,61.375-49.754,111.129-111.129,111.129
				c-37.181,0-70.085-18.267-90.258-46.304h-70.318c-20.173,28.036-53.077,46.304-90.258,46.304
				c-61.375,0-111.129-49.754-111.129-111.129c0-6.805,0.614-13.462,1.789-19.929c9.388,51.86,54.771,91.189,109.34,91.189
				c37.181,0,70.085-18.257,90.258-46.293h70.318c20.173,28.036,53.077,46.293,90.258,46.293c54.57,0,99.953-39.329,109.34-91.189
				C489.784,270.685,490.398,277.342,490.398,284.148z"/>
			<circle id="XMLID_1345_" style="fill:#3E436D;" cx="387.736" cy="269.42" r="68.794"/>
			<circle id="XMLID_1344_" style="fill:#3E436D;" cx="123.143" cy="269.42" r="68.794"/>
			<path id="XMLID_1342_" style="fill:#D3D3D3;" d="M168.334,247.531h-14.164c-5.047,0-9.138-4.091-9.138-9.138v-14.164
				c0-5.047-4.091-9.138-9.138-9.138h-25.503c-5.047,0-9.138,4.091-9.138,9.138v14.164c0,5.047-4.091,9.138-9.138,9.138H77.951
				c-5.047,0-9.138,4.091-9.138,9.138v25.503c0,5.047,4.091,9.138,9.138,9.138h14.164c5.047,0,9.138,4.091,9.138,9.138v14.164
				c0,5.047,4.091,9.138,9.138,9.138h25.503c5.047,0,9.138-4.091,9.138-9.138v-14.164c0-5.047,4.091-9.138,9.138-9.138h14.164
				c5.047,0,9.138-4.091,9.138-9.138v-25.503C177.473,251.622,173.381,247.531,168.334,247.531z"/>
			<g id="XMLID_1339_">
				<circle id="XMLID_1341_" style="fill:#F8D572;" cx="386.403" cy="228.107" r="22.215"/>
				<circle id="XMLID_1396_" style="fill:#F9BD38;" cx="386.403" cy="228.107" r="18.422"/>
				<path id="XMLID_1397_" style="fill:#E2C06D;" d="M377.103,228.107c0,7.667,3.882,14.426,9.791,18.416
					c0.607,0.412,1.235,0.794,1.886,1.143c1.29,0.696,2.655,1.268,4.083,1.699c-2.043,0.623-4.213,0.956-6.458,0.956
					c-12.27,0-22.215-9.945-22.215-22.215c0-0.192,0.003-0.382,0.008-0.574c0.003-0.125,0.005-0.252,0.014-0.377
					c0-0.019,0-0.038,0.003-0.06c0.003-0.084,0.008-0.171,0.014-0.255c0.653-11.682,10.335-20.949,22.177-20.949
					c2.246,0,4.416,0.333,6.458,0.956c-2.146,0.647-4.153,1.615-5.968,2.842C380.985,213.681,377.103,220.44,377.103,228.107z"/>
				<path id="XMLID_1398_" style="fill:#DDA636;" d="M386.893,246.523c-0.163,0.003-0.328,0.005-0.49,0.005
					c-10.173,0-18.422-8.247-18.422-18.422c0-10.173,8.249-18.422,18.422-18.422c0.163,0,0.328,0.003,0.49,0.005
					c-5.909,3.99-9.791,10.75-9.791,18.416S380.985,242.533,386.893,246.523z"/>
				<g id="XMLID_1399_">
					<circle id="XMLID_1456_" style="fill:#3588CD;" cx="348.432" cy="271.543" r="22.215"/>
					<path id="XMLID_1457_" style="fill:#3385BC;" d="M339.132,271.542c0,7.667,3.882,14.426,9.791,18.416
						c0.607,0.412,1.235,0.794,1.886,1.143c1.29,0.696,2.655,1.268,4.083,1.699c-2.043,0.623-4.213,0.956-6.458,0.956
						c-12.27,0-22.215-9.945-22.215-22.215c0-0.192,0.003-0.382,0.008-0.574c0.003-0.125,0.005-0.252,0.014-0.377
						c0-0.019,0-0.038,0.003-0.06c0.003-0.084,0.008-0.171,0.014-0.255c0.653-11.682,10.335-20.949,22.177-20.949
						c2.246,0,4.416,0.333,6.458,0.956c-2.146,0.647-4.153,1.615-5.968,2.842C343.014,257.116,339.132,263.876,339.132,271.542z"/>
					<circle id="XMLID_1458_" style="fill:#366FCC;" cx="348.432" cy="271.543" r="18.422"/>
					<path id="XMLID_1459_" style="fill:#3268B7;" d="M355.513,289.003c-1.837,0.624-3.809,0.959-5.863,0.959
						c-10.17,0-18.422-8.243-18.422-18.422c0-10.17,8.252-18.422,18.422-18.422c2.054,0,4.026,0.335,5.863,0.959
						c-7.302,2.443-12.559,9.347-12.559,17.463C342.954,279.665,348.211,286.56,355.513,289.003z"/>
				</g>
				<circle id="XMLID_1460_" style="fill:#ED4F4F;" cx="427.039" cy="271.542" r="22.215"/>
				<circle id="XMLID_1461_" style="fill:#DD1B1B;" cx="427.039" cy="271.542" r="18.422"/>
				<path id="XMLID_1462_" style="fill:#CC4A4A;" d="M417.739,271.542c0,7.667,3.882,14.426,9.791,18.417
					c0.607,0.412,1.235,0.794,1.886,1.143c1.29,0.696,2.655,1.268,4.083,1.699c-2.043,0.623-4.213,0.956-6.458,0.956
					c-12.27,0-22.215-9.945-22.215-22.215c0-0.192,0.003-0.382,0.008-0.574c0.003-0.125,0.005-0.252,0.014-0.377
					c0-0.019,0-0.038,0.003-0.06c0.003-0.084,0.008-0.171,0.014-0.255c0.653-11.682,10.335-20.949,22.177-20.949
					c2.246,0,4.416,0.333,6.458,0.956c-2.146,0.647-4.153,1.615-5.968,2.842C421.621,257.116,417.739,263.876,417.739,271.542z"/>
				<path id="XMLID_1463_" style="fill:#BC1B1B;" d="M427.53,289.959c-0.163,0.003-0.328,0.005-0.49,0.005
					c-10.173,0-18.422-8.247-18.422-18.422c0-10.173,8.249-18.422,18.422-18.422c0.163,0,0.328,0.003,0.49,0.005
					c-5.909,3.991-9.791,10.75-9.791,18.416C417.739,279.209,421.621,285.968,427.53,289.959z"/>
				<circle id="XMLID_1464_" style="fill:#03E277;" cx="386.403" cy="310.734" r="22.215"/>
				<circle id="XMLID_1466_" style="fill:#00B764;" cx="386.403" cy="310.734" r="18.422"/>
				<path id="XMLID_1467_" style="fill:#05CC68;" d="M377.103,310.734c0,7.667,3.882,14.426,9.791,18.416
					c0.607,0.412,1.235,0.794,1.886,1.143c1.29,0.696,2.655,1.268,4.083,1.699c-2.043,0.623-4.213,0.956-6.458,0.956
					c-12.27,0-22.215-9.945-22.215-22.215c0-0.192,0.003-0.382,0.008-0.574c0.003-0.125,0.005-0.252,0.014-0.377
					c0-0.019,0-0.038,0.003-0.06c0.003-0.084,0.008-0.171,0.014-0.255c0.653-11.682,10.335-20.949,22.177-20.949
					c2.246,0,4.416,0.333,6.458,0.956c-2.146,0.647-4.153,1.615-5.968,2.842C380.985,296.308,377.103,303.067,377.103,310.734z"/>
				<path id="XMLID_1468_" style="fill:#049E54;" d="M386.893,329.15c-0.163,0.003-0.328,0.005-0.49,0.005
					c-10.173,0-18.422-8.246-18.422-18.422c0-10.173,8.249-18.422,18.422-18.422c0.163,0,0.328,0.003,0.49,0.005
					c-5.909,3.991-9.791,10.75-9.791,18.416S380.985,325.16,386.893,329.15z"/>
			</g>
			<path id="XMLID_1469_" style="fill:#27273D;" d="M235.218,288.519h-23.06c-6.053,0-10.961-4.907-10.961-10.961l0,0
				c0-6.053,4.907-10.961,10.961-10.961h23.06c6.053,0,10.961,4.907,10.961,10.961l0,0
				C246.179,283.612,241.271,288.519,235.218,288.519z"/>
			<path id="XMLID_1470_" style="fill:#27273D;" d="M295.545,288.519h-23.06c-6.053,0-10.961-4.907-10.961-10.961l0,0
				c0-6.053,4.907-10.961,10.961-10.961h23.06c6.053,0,10.961,4.907,10.961,10.961l0,0
				C306.506,283.612,301.598,288.519,295.545,288.519z"/>
		</g>
		<path id="XMLID_1471_" style="fill:#C1C1C1;" d="M303.86,212.653H203.844c-7.453,0-13.494-6.042-13.494-13.494v0
			c0-7.453,6.042-13.494,13.494-13.494H303.86c7.453,0,13.494,6.042,13.494,13.494v0
			C317.354,206.612,311.312,212.653,303.86,212.653z"/>
		<path id="XMLID_1472_" style="fill:#AFAFAF;" d="M299.023,205.159h-86.712c-3.283,0-5.945-2.662-5.945-5.945v-1.604
			c0-3.283,2.662-5.945,5.945-5.945h86.712c3.283,0,5.945,2.662,5.945,5.945v1.604C304.968,202.497,302.306,205.159,299.023,205.159
			z"/>
		<g id="XMLID_1534_">
			<circle id="XMLID_1535_" style="fill:#F8C952;" cx="256.667" cy="113.503" r="87.383"/>
			<path id="XMLID_1536_" style="fill:#F9BD38;" d="M251.231,177.911c9.103,8.35,19.986,14.801,31.998,18.703
				c-8.522,2.772-17.608,4.278-27.053,4.278c-48.254,0-87.388-39.134-87.388-87.388s39.134-87.388,87.388-87.388
				c9.445,0,18.532,1.506,27.053,4.278c-12.012,3.901-22.895,10.352-31.998,18.703c-0.017,0-0.017,0-0.017,0
				c-17.402,15.982-28.319,38.928-28.319,64.407s10.917,48.425,28.319,64.407C251.214,177.911,251.214,177.911,251.231,177.911z"/>
			<circle id="XMLID_1537_" style="fill:#EA8032;" cx="256.667" cy="113.503" r="64.595"/>
			<circle id="XMLID_1538_" style="fill:#F9DC93;" cx="256.667" cy="113.503" r="55.073"/>
			<path id="XMLID_1588_" style="fill:#F8D572;" d="M272.622,166.233c-5.048,1.523-10.404,2.344-15.948,2.344
				c-30.424,0-55.081-24.657-55.081-55.081c0-30.407,24.657-55.064,55.081-55.064c5.544,0,10.9,0.821,15.948,2.344
				c-22.655,6.845-39.134,27.857-39.134,52.72C233.489,138.375,249.967,159.388,272.622,166.233z"/>
			<path id="XMLID_1589_" style="fill:#FFF2D4;" d="M239.628,111.792c0,3.169-23.572,10.032-22.643,12.892
				c0.962,2.964,24.094-5.351,25.89-2.884c1.813,2.491-13.228,21.924-10.736,23.737c2.467,1.795,16.295-18.496,19.258-17.533
				c2.86,0.929,2.101,25.504,5.27,25.504c3.169,0,2.411-24.576,5.271-25.504c2.964-0.962,16.792,19.328,19.259,17.533
				c2.491-1.813-12.55-21.245-10.737-23.737c1.795-2.467,24.927,5.847,25.89,2.883c0.929-2.86-22.643-9.722-22.643-12.891
				c0-3.169,23.572-10.032,22.643-12.892c-0.962-2.964-24.094,5.351-25.89,2.884c-1.813-2.491,13.228-21.924,10.736-23.737
				c-2.467-1.795-16.295,18.496-19.258,17.533c-2.86-0.929-2.101-25.504-5.27-25.504c-3.169,0-2.411,24.576-5.271,25.504
				c-2.964,0.962-16.792-19.328-19.259-17.533c-2.491,1.813,12.55,21.245,10.737,23.737c-1.795,2.467-24.927-5.847-25.89-2.883
				C216.056,101.761,239.628,108.623,239.628,111.792z"/>
		</g>
	</g>
</g>
</svg>
