<?xml version="1.0" encoding="iso-8859-1"?>
<!-- Generator: Adobe Illustrator 22.0.1, SVG Export Plug-In . SVG Version: 6.00 Build 0)  -->
<svg version="1.1" xmlns="http://www.w3.org/2000/svg" xmlns:xlink="http://www.w3.org/1999/xlink" x="0px" y="0px"
	 viewBox="0 0 512 512" style="enable-background:new 0 0 512 512;" xml:space="preserve">
<g id="BULINE">
	<circle id="XMLID_1117_" style="fill:#4B4C9B;" cx="253.83" cy="256" r="256"/>
</g>
<g id="Icons">
	<g id="XMLID_164_">
		<circle id="XMLID_301_" style="fill:#F8D572;" cx="249.987" cy="103.289" r="82"/>
		<path id="XMLID_300_" style="fill:#FFEEC5;" d="M331.987,103.291c0,45.29-36.71,82-82,82s-82-36.71-82-82
			c0-1.57,0.04-3.12,0.14-4.67c2.41,43.12,38.14,77.33,81.86,77.33c43.72,0,79.45-34.21,81.86-77.33
			C331.947,100.171,331.987,101.721,331.987,103.291z"/>
		<circle id="XMLID_299_" style="fill:#F9BD38;" cx="249.987" cy="103.289" r="68"/>
		<path id="XMLID_298_" style="fill:#E2C06D;" d="M215.657,103.289c0,28.3,14.33,53.25,36.14,67.98c2.24,1.52,4.56,2.93,6.96,4.22
			c4.76,2.57,9.8,4.68,15.07,6.27c-7.54,2.3-15.55,3.53-23.84,3.53c-45.29,0-82-36.71-82-82c0-0.71,0.01-1.41,0.03-2.12
			c0.01-0.46,0.02-0.93,0.05-1.39c0-0.07,0-0.14,0.01-0.22c0.01-0.31,0.03-0.63,0.05-0.94c2.41-43.12,38.15-77.33,81.86-77.33
			c8.29,0,16.3,1.23,23.84,3.53c-7.92,2.39-15.33,5.96-22.03,10.49C229.987,50.039,215.657,74.989,215.657,103.289z"/>
		<path id="XMLID_292_" style="fill:#E2C991;" d="M258.757,175.489c4.76,2.57,9.8,4.68,15.07,6.27c-7.54,2.3-15.55,3.53-23.84,3.53
			c-45.29,0-82-36.71-82-82c0-0.71,0.01-1.41,0.03-2.12c0.01-0.46,0.02-0.93,0.05-1.39c0-0.07,0-0.14,0.01-0.22
			c0.01-0.31,0.03-0.63,0.05-0.94c2.41,43.12,38.14,77.33,81.86,77.33C252.947,175.949,255.877,175.789,258.757,175.489z"/>
		<path id="XMLID_291_" style="fill:#DDA636;" d="M251.797,171.269c-0.6,0.01-1.21,0.02-1.81,0.02c-37.55,0-68-30.44-68-68
			c0-37.55,30.45-68,68-68c0.6,0,1.21,0.01,1.81,0.02c-21.81,14.73-36.14,39.68-36.14,67.98S229.987,156.539,251.797,171.269z"/>
		<circle id="XMLID_290_" style="fill:#3588CD;" cx="111.987" cy="263.621" r="82"/>
		<path id="XMLID_289_" style="fill:#41C2E5;" d="M193.987,263.623c0,45.29-36.71,82-82,82s-82-36.71-82-82
			c0-1.57,0.04-3.12,0.14-4.67c2.41,43.12,38.14,77.33,81.86,77.33c43.72,0,79.45-34.21,81.86-77.33
			C193.947,260.503,193.987,262.053,193.987,263.623z"/>
		<circle id="XMLID_288_" style="fill:#366FCC;" cx="111.987" cy="263.621" r="68"/>
		<path id="XMLID_287_" style="fill:#3385BC;" d="M77.657,263.621c0,28.3,14.33,53.25,36.14,67.98c2.24,1.52,4.56,2.93,6.96,4.22
			c4.76,2.57,9.8,4.68,15.07,6.27c-7.54,2.3-15.55,3.53-23.84,3.53c-45.29,0-82-36.71-82-82c0-0.71,0.01-1.41,0.03-2.12
			c0.01-0.46,0.02-0.93,0.05-1.39c0-0.07,0-0.14,0.01-0.22c0.01-0.31,0.03-0.63,0.05-0.94c2.41-43.12,38.15-77.33,81.86-77.33
			c8.29,0,16.3,1.23,23.84,3.53c-7.92,2.39-15.33,5.96-22.03,10.49C91.987,210.371,77.657,235.321,77.657,263.621z"/>
		<path id="XMLID_286_" style="fill:#3EB3CE;" d="M120.757,335.821c4.76,2.57,9.8,4.68,15.07,6.27c-7.54,2.3-15.55,3.53-23.84,3.53
			c-45.29,0-82-36.71-82-82c0-0.71,0.01-1.41,0.03-2.12c0.01-0.46,0.02-0.93,0.05-1.39c0-0.07,0-0.14,0.01-0.22
			c0.01-0.31,0.03-0.63,0.05-0.94c2.41,43.12,38.14,77.33,81.86,77.33C114.947,336.281,117.877,336.121,120.757,335.821z"/>
		<path id="XMLID_285_" style="fill:#356BBA;" d="M113.797,331.601c-0.6,0.01-1.21,0.02-1.81,0.02c-37.55,0-68-30.44-68-68
			c0-37.55,30.45-68,68-68c0.6,0,1.21,0.01,1.81,0.02c-21.81,14.73-36.14,39.68-36.14,67.98S91.987,316.871,113.797,331.601z"/>
		<g id="XMLID_282_">
			<path id="XMLID_283_" style="fill:#41C2E5;" d="M151.18,305.248c0,4.605-0.212,7.33-0.635,8.176
				c-0.518,1.034-2.114,1.551-4.793,1.551c-0.423,0-1.363,0-2.819,0c-1.409-0.047-2.597-0.07-3.56-0.07s-2.396-0.048-4.299-0.141
				c-1.903-0.095-3.325-0.142-4.265-0.142c-0.752,0-4.136-4.511-10.149-13.533c-6.016-9.021-9.14-13.556-9.375-13.604
				c-0.987,0.8-4.37,5.546-10.15,14.238c-5.545,8.317-8.787,12.617-9.727,12.898c-0.659,0.188-2.421,0.282-5.287,0.282
				c-9.633,0-14.449-0.493-14.449-1.48c0-0.986-0.06-2.396-0.176-4.229c-0.118-1.833-0.176-3.195-0.176-4.089
				c0-5.825,0.353-9.256,1.058-10.29c0.046-0.047,3.923-5.192,11.63-15.437c6.249-8.27,9.375-12.992,9.375-14.167
				s-3.125-5.826-9.375-13.956c-3.947-5.028-7.871-10.08-11.771-15.155c-0.423-0.61-0.682-1.621-0.775-3.031
				c-0.047-0.987-0.047-2.326,0-4.018c0.141-2.02,0.211-3.148,0.211-3.383c0-0.939-0.083-2.396-0.247-4.37
				c-0.166-1.974-0.247-3.43-0.247-4.37c0-0.892,0.821-1.339,2.467-1.339c1.081,0,2.678,0.071,4.793,0.211
				c2.114,0.141,3.688,0.211,4.723,0.211c0.939,0,2.326-0.046,4.158-0.141c1.833-0.094,3.195-0.141,4.088-0.141
				c0.751,0,4.169,4.57,10.255,13.709c6.085,9.14,9.269,13.709,9.551,13.709c0.939-0.563,4.393-5.357,10.361-14.379
				c5.685-8.692,8.951-13.04,9.797-13.04h16.775c1.645,0,2.468,0.4,2.468,1.198v17.128c0,1.222-3.631,6.555-10.891,16
				c-7.26,9.444-10.89,14.449-10.89,15.013c0,0.8,3.195,5.428,9.586,13.886c7.518,9.915,11.441,15.108,11.771,15.577
				C150.851,295.568,151.18,299.14,151.18,305.248z"/>
		</g>
		<circle id="XMLID_281_" style="fill:#ED4F4F;" cx="399.987" cy="263.621" r="82"/>
		<path id="XMLID_280_" style="fill:#F79494;" d="M481.987,263.623c0,45.29-36.71,82-82,82s-82-36.71-82-82
			c0-1.57,0.04-3.12,0.14-4.67c2.41,43.12,38.14,77.33,81.86,77.33c43.72,0,79.45-34.21,81.86-77.33
			C481.947,260.503,481.987,262.053,481.987,263.623z"/>
		<circle id="XMLID_279_" style="fill:#DD1B1B;" cx="399.987" cy="263.621" r="68"/>
		<path id="XMLID_278_" style="fill:#CC4A4A;" d="M365.657,263.621c0,28.3,14.33,53.25,36.14,67.98c2.24,1.52,4.56,2.93,6.96,4.22
			c4.76,2.57,9.8,4.68,15.07,6.27c-7.54,2.3-15.55,3.53-23.84,3.53c-45.29,0-82-36.71-82-82c0-0.71,0.01-1.41,0.03-2.12
			c0.01-0.46,0.02-0.93,0.05-1.39c0-0.07,0-0.14,0.01-0.22c0.01-0.31,0.03-0.63,0.05-0.94c2.41-43.12,38.15-77.33,81.86-77.33
			c8.29,0,16.3,1.23,23.84,3.53c-7.92,2.39-15.33,5.96-22.03,10.49C379.987,210.371,365.657,235.321,365.657,263.621z"/>
		<path id="XMLID_277_" style="fill:#DB8686;" d="M408.757,335.821c4.76,2.57,9.8,4.68,15.07,6.27c-7.54,2.3-15.55,3.53-23.84,3.53
			c-45.29,0-82-36.71-82-82c0-0.71,0.01-1.41,0.03-2.12c0.01-0.46,0.02-0.93,0.05-1.39c0-0.07,0-0.14,0.01-0.22
			c0.01-0.31,0.03-0.63,0.05-0.94c2.41,43.12,38.14,77.33,81.86,77.33C402.947,336.281,405.877,336.121,408.757,335.821z"/>
		<path id="XMLID_276_" style="fill:#BC1B1B;" d="M401.797,331.601c-0.6,0.01-1.21,0.02-1.81,0.02c-37.55,0-68-30.44-68-68
			c0-37.55,30.45-68,68-68c0.6,0,1.21,0.01,1.81,0.02c-21.81,14.73-36.14,39.68-36.14,67.98S379.987,316.871,401.797,331.601z"/>
		<g id="XMLID_178_">
			<path id="XMLID_179_" style="fill:#F79494;" d="M444.678,284.173c0,8.646-2.703,15.812-8.106,21.498
				c-6.156,6.532-16.963,9.797-32.422,9.797c-1.176,0-2.867-0.023-5.075-0.07c-2.256,0-3.924,0-5.005,0
				c-17.339,0-27.654-0.353-30.942-1.057c-1.363-0.282-2.044-1.011-2.044-2.186c0-5.027,0.293-12.64,0.881-22.837
				c0.587-10.196,0.881-17.833,0.881-22.907c0-5.451-0.282-15.694-0.846-30.732c-0.141-3.853-0.399-9.632-0.775-17.339l-0.07-0.987
				c-0.048-0.892,0.692-1.433,2.221-1.621c1.526-0.187,6.966-0.282,16.316-0.282c14.989,0,23.754,0.047,26.291,0.141
				c11.56,0.423,20.088,2.303,25.586,5.639c7.283,4.464,10.925,12.006,10.925,22.625c0,2.773-0.846,5.709-2.537,8.811
				c-1.223,2.209-2.819,4.418-4.793,6.626c-1.739,1.927-2.608,2.819-2.608,2.678c0,0.33,0.61,0.847,1.833,1.551
				c3.288,1.88,5.873,4.864,7.753,8.952C443.833,276.138,444.678,280.038,444.678,284.173z M414.37,244.49
				c0-4.042-2.021-6.72-6.062-8.036c-2.256-0.705-5.968-1.058-11.137-1.058c-5.075,0-7.612,0.377-7.612,1.128
				c0,0.893-0.083,2.245-0.247,4.053c-0.165,1.81-0.246,3.162-0.246,4.053c0,4.699,0.398,7.33,1.198,7.895
				c0.517,0.423,3.5,0.634,8.951,0.634C409.318,253.159,414.37,250.269,414.37,244.49z M416.484,283.891
				c0-4.229-1.762-7.095-5.286-8.599c-2.256-0.939-5.921-1.41-10.995-1.41c-6.062,0-9.352,0.224-9.868,0.67
				c-0.518,0.447-0.775,3.325-0.775,8.635c0,5.545,0.305,8.61,0.916,9.198c0.61,0.588,3.994,0.881,10.15,0.881
				c5.074,0,8.645-0.398,10.713-1.198C414.768,290.705,416.484,287.979,416.484,283.891z"/>
		</g>
		<g id="XMLID_174_">
			<path id="XMLID_176_" style="fill:#FCE19D;" d="M292.211,83.778c0,2.021-0.377,3.783-1.128,5.287
				c-6.156,12.17-14.544,24.976-25.163,38.414c-1.505,1.974-2.256,3.76-2.256,5.357c0,2.491,0.141,6.227,0.423,11.207
				c0.282,4.981,0.423,8.694,0.423,11.136c0,0.846-0.188,1.364-0.563,1.551c-0.095,0.047-0.729,0.166-1.903,0.353
				c-1.691,0.282-5.921,0.423-12.687,0.423c-6.814,0-11.161-0.141-13.04-0.423c-1.316-0.187-1.974-0.869-1.974-2.044
				c0-2.49,0.212-6.284,0.635-11.383c0.423-5.098,0.634-8.917,0.634-11.454c0-1.503-0.564-3.124-1.692-4.863
				c-5.686-8.035-13.815-20.346-24.388-36.934c-1.082-1.833-1.621-3.336-1.621-4.511c0-2.819-0.141-7.049-0.423-12.688
				s-0.423-9.868-0.423-12.687c0-1.551,0.469-2.326,1.41-2.326c2.866,0,7.212,0.118,13.04,0.353
				c5.826,0.235,10.196,0.353,13.11,0.353c1.081,0,1.621,0.352,1.621,1.057c0,2.396-0.106,6.003-0.317,10.819
				c-0.211,4.817-0.317,8.423-0.317,10.819c0,1.41,2.067,4.934,6.203,10.573c3.289,4.417,5.991,7.824,8.105,10.22
				c1.926-2.255,4.487-5.639,7.683-10.15c4.041-5.639,6.062-9.045,6.062-10.22c0-2.349-0.176-5.909-0.528-10.678
				c-0.353-4.769-0.529-8.328-0.529-10.679c0-0.987,0.212-1.55,0.635-1.691h1.762c2.82,0,7.06-0.129,12.723-0.388
				c5.662-0.258,9.927-0.388,12.793-0.388c0.939,0,1.41,1.011,1.41,3.031c0,2.491,0.046,6.238,0.141,11.242
				C292.164,77.47,292.211,81.24,292.211,83.778z"/>
		</g>
		<circle id="XMLID_173_" style="fill:#03E277;" cx="249.987" cy="408.287" r="82"/>
		<path id="XMLID_172_" style="fill:#59FCAA;" d="M331.987,408.289c0,45.29-36.71,82-82,82s-82-36.71-82-82
			c0-1.57,0.04-3.12,0.14-4.67c2.41,43.12,38.14,77.33,81.86,77.33c43.72,0,79.45-34.21,81.86-77.33
			C331.947,405.169,331.987,406.719,331.987,408.289z"/>
		<circle id="XMLID_171_" style="fill:#00B764;" cx="249.987" cy="408.287" r="68"/>
		<path id="XMLID_170_" style="fill:#05CC68;" d="M215.657,408.287c0,28.3,14.33,53.25,36.14,67.98c2.24,1.52,4.56,2.93,6.96,4.22
			c4.76,2.57,9.8,4.68,15.07,6.27c-7.54,2.3-15.55,3.53-23.84,3.53c-45.29,0-82-36.71-82-82c0-0.71,0.01-1.41,0.03-2.12
			c0.01-0.46,0.02-0.93,0.05-1.39c0-0.07,0-0.14,0.01-0.22c0.01-0.31,0.03-0.63,0.05-0.94c2.41-43.12,38.15-77.33,81.86-77.33
			c8.29,0,16.3,1.23,23.84,3.53c-7.92,2.39-15.33,5.96-22.03,10.49C229.987,355.037,215.657,379.987,215.657,408.287z"/>
		<path id="XMLID_169_" style="fill:#54E298;" d="M258.757,480.487c4.76,2.57,9.8,4.68,15.07,6.27c-7.54,2.3-15.55,3.53-23.84,3.53
			c-45.29,0-82-36.71-82-82c0-0.71,0.01-1.41,0.03-2.12c0.01-0.46,0.02-0.93,0.05-1.39c0-0.07,0-0.14,0.01-0.22
			c0.01-0.31,0.03-0.63,0.05-0.94c2.41,43.12,38.14,77.33,81.86,77.33C252.947,480.947,255.877,480.787,258.757,480.487z"/>
		<path id="XMLID_168_" style="fill:#049E54;" d="M251.797,476.267c-0.6,0.01-1.21,0.02-1.81,0.02c-37.55,0-68-30.44-68-68
			c0-37.55,30.45-68,68-68c0.6,0,1.21,0.01,1.81,0.02c-21.81,14.73-36.14,39.68-36.14,67.98S229.987,461.537,251.797,476.267z"/>
		<g id="XMLID_165_">
			<path id="XMLID_166_" style="fill:#59FCAA;" d="M292.211,388.776c0,2.021-0.377,3.783-1.128,5.287
				c-6.156,12.17-14.544,24.976-25.163,38.414c-1.505,1.974-2.256,3.76-2.256,5.356c0,2.491,0.141,6.227,0.423,11.207
				c0.282,4.981,0.423,8.694,0.423,11.137c0,0.846-0.188,1.363-0.563,1.551c-0.095,0.047-0.729,0.165-1.903,0.353
				c-1.691,0.281-5.921,0.423-12.687,0.423c-6.814,0-11.161-0.142-13.04-0.423c-1.316-0.188-1.974-0.869-1.974-2.044
				c0-2.49,0.212-6.284,0.635-11.384c0.423-5.098,0.634-8.916,0.634-11.454c0-1.503-0.564-3.124-1.692-4.863
				c-5.686-8.035-13.815-20.346-24.388-36.934c-1.082-1.833-1.621-3.336-1.621-4.511c0-2.819-0.141-7.049-0.423-12.688
				s-0.423-9.868-0.423-12.688c0-1.551,0.469-2.326,1.41-2.326c2.866,0,7.212,0.118,13.04,0.353
				c5.826,0.235,10.196,0.353,13.11,0.353c1.081,0,1.621,0.353,1.621,1.058c0,2.396-0.106,6.003-0.317,10.819
				c-0.211,4.817-0.317,8.423-0.317,10.819c0,1.409,2.067,4.934,6.203,10.572c3.289,4.418,5.991,7.824,8.105,10.221
				c1.926-2.256,4.487-5.639,7.683-10.15c4.041-5.639,6.062-9.045,6.062-10.22c0-2.35-0.176-5.909-0.528-10.679
				c-0.353-4.769-0.529-8.328-0.529-10.679c0-0.986,0.212-1.55,0.635-1.691h1.762c2.82,0,7.06-0.129,12.723-0.388
				c5.662-0.258,9.927-0.388,12.793-0.388c0.939,0,1.41,1.012,1.41,3.031c0,2.491,0.046,6.237,0.141,11.242
				C292.164,382.468,292.211,386.239,292.211,388.776z"/>
		</g>
	</g>
</g>
</svg>
