<?xml version="1.0" encoding="iso-8859-1"?>
<!-- Generator: Adobe Illustrator 22.0.1, SVG Export Plug-In . SVG Version: 6.00 Build 0)  -->
<svg version="1.1" xmlns="http://www.w3.org/2000/svg" xmlns:xlink="http://www.w3.org/1999/xlink" x="0px" y="0px"
	 viewBox="0 0 512 512" style="enable-background:new 0 0 512 512;" xml:space="preserve">
<g id="BULINE">
	<circle id="XMLID_73_" style="fill:#4B4C9B;" cx="256" cy="256" r="256"/>
</g>
<g id="Icons">
	<g id="XMLID_77_">
		<rect id="XMLID_113_" x="102.04" y="152.756" style="fill:#954CF7;" width="306.5" height="252.322"/>
		<path id="XMLID_112_" style="fill:#FE4583;" d="M424.04,119.929h-337V30.02c0-5.972,4.842-10.814,10.814-10.814h315.372
			c5.972,0,10.814,4.842,10.814,10.814V119.929z"/>
		<polygon id="XMLID_111_" style="fill:#B079D8;" points="409.04,156 102.04,156 87.04,119.929 424.04,119.929 		"/>
		<polygon id="XMLID_110_" style="fill:#B079D8;" points="102.04,405.078 409.04,405.078 424.04,441.149 87.04,441.149 		"/>
		<path id="XMLID_139_" style="fill:#FE4583;" d="M424.04,441.15v7.97C379.08,488.28,320.31,512,256,512
			c-28.54,0-55.99-4.67-81.62-13.29c-32.52-10.93-62.13-28.22-87.34-50.39v-7.17H424.04z"/>
		<rect id="XMLID_107_" x="102.04" y="152.76" style="fill:#7A42D3;" width="87.34" height="252.32"/>
		<path id="XMLID_106_" style="fill:#EA2D88;" d="M185.19,19.21c-5.97,0-10.81,4.84-10.81,10.81v89.91H87.04V30.02
			c0-5.97,4.84-10.81,10.82-10.81H185.19z"/>
		<polygon id="XMLID_105_" style="fill:#966CBA;" points="188.03,152.76 189.38,152.76 189.38,156 102.04,156 87.04,119.93 
			174.38,119.93 		"/>
		<polygon id="XMLID_104_" style="fill:#966CBA;" points="189.38,405.08 174.38,441.15 87.04,441.15 102.04,405.08 		"/>
		<path id="XMLID_133_" style="fill:#EA2D88;" d="M174.38,441.15v57.56c-32.52-10.93-62.13-28.22-87.34-50.39v-7.17H174.38z"/>
		<polygon id="XMLID_101_" style="fill:#B079D8;" points="188.03,152.76 189.38,152.76 189.38,156 		"/>
		<path id="XMLID_100_" style="fill:#5AE5A9;" d="M140.454,372.953h230.589c8.306,0,15.039-6.733,15.039-15.039V200.242
			c0-8.306-6.733-15.039-15.039-15.039H140.454c-8.306,0-15.039,6.733-15.039,15.039v157.672
			C125.415,366.22,132.148,372.953,140.454,372.953z"/>
		<path id="XMLID_99_" style="fill:#4ACE99;" d="M385.625,316.95v40.96c0,8.31-6.73,15.04-15.04,15.04h-230.59
			c-8.3,0-15.04-6.73-15.04-15.04V200.24c0-8.3,6.74-15.04,15.04-15.04h48.96v116.71c0,8.31,6.74,15.04,15.04,15.04H385.625z"/>
		<path id="XMLID_98_" style="fill:#27273D;" d="M381.536,104H129.503c-2.384,0-4.317-1.933-4.317-4.317V42.808
			c0-2.384,1.933-4.317,4.317-4.317h252.033c2.384,0,4.317,1.933,4.317,4.317v56.875C385.853,102.067,383.92,104,381.536,104z"/>
		<path id="XMLID_97_" style="fill:#F8D572;" d="M346.565,91.745H164.932c-1.574,0-2.85-1.276-2.85-2.851V54.851
			c0-1.574,1.276-2.851,2.85-2.851h181.632c1.574,0,2.85,1.276,2.85,2.851v34.044C349.415,90.468,348.139,91.745,346.565,91.745z"/>
		<circle id="XMLID_96_" style="fill:#F9BD38;" cx="143.71" cy="71.246" r="13.17"/>
		<circle id="XMLID_95_" style="fill:#F9BD38;" cx="366.71" cy="71.246" r="13.17"/>
		<g id="XMLID_94_">
			<path id="XMLID_1769_" style="fill:#FC3268;" d="M200.659,86.474c0,0.252-0.175,0.427-0.525,0.525
				c-0.42,0.112-1.721,0.168-3.904,0.168c-2.001,0-3.289-0.056-3.862-0.168c-0.476-0.098-0.777-0.413-0.903-0.945
				c-0.476-2.015-0.847-3.092-1.112-3.232c-0.224-0.098-2.099-0.147-5.625-0.147c-2.379,0-3.646,0.063-3.799,0.189
				c-0.238,0.224-0.504,0.973-0.798,2.246c-0.266,1.162-0.587,1.792-0.965,1.889c-0.476,0.112-2.071,0.168-4.786,0.168
				c-2.141,0-3.211-0.203-3.211-0.609c0-0.364,1.581-4.834,4.744-13.413c3.429-9.278,5.29-14.378,5.584-15.302
				c0.167-0.532,0.364-0.797,0.587-0.797c0.378,0,0.962,0.035,1.753,0.104c0.791,0.07,1.382,0.105,1.773,0.105
				c0.378,0,0.934-0.024,1.669-0.073c0.735-0.049,1.284-0.074,1.648-0.074c0.266,0,0.511,0.231,0.734,0.693
				c0.686,1.469,2.687,6.507,6.003,15.113C198.993,81.577,200.659,86.096,200.659,86.474z M185.776,67.352
				c-0.293,0.616-0.791,1.952-1.49,4.009c-0.755,2.183-1.133,3.463-1.133,3.841c0,0.252,0.42,0.392,1.259,0.42
				c0.434,0.028,1.147,0.042,2.141,0.042c0.923,0,1.434-0.112,1.532-0.336c0.028-0.07,0.042-0.168,0.042-0.294
				c0-0.462-0.322-1.735-0.965-3.82C186.532,69.199,186.07,67.912,185.776,67.352z"/>
			<path id="XMLID_1772_" style="fill:#FC3268;" d="M227.821,86.789c0,0.098-0.14,0.168-0.42,0.21
				c-0.532,0.084-1.868,0.126-4.009,0.126c-1.833,0-3.079-0.042-3.736-0.126c-0.308-0.042-0.482-0.077-0.524-0.105
				c-0.084-0.042-0.182-0.182-0.294-0.42c-0.21-0.545-0.518-1.357-0.924-2.435c-0.546-1.399-1.399-3.464-2.561-6.192
				c-0.251-0.546-0.833-0.847-1.742-0.903c0.42,0.028-0.301,0.042-2.162,0.042c-0.21,0-0.315,0.357-0.315,1.071
				c0,0.952,0.087,2.372,0.262,4.261c0.175,1.889,0.262,3.31,0.262,4.261c0,0.238-0.063,0.378-0.188,0.42
				c-0.196,0.014-0.392,0.028-0.588,0.042c-0.826,0.056-2.113,0.084-3.862,0.084c-2.001,0-3.205-0.042-3.61-0.126
				c-0.406-0.084-0.609-0.301-0.609-0.651c0-1.539,0.073-3.862,0.22-6.969s0.221-5.437,0.221-6.99
				c0-5.919-0.133-10.538-0.399-13.854l-0.021-0.294c-0.014-0.238,0.206-0.399,0.661-0.483c0.455-0.084,2.592-0.168,6.413-0.252
				c2.589-0.056,4.653-0.084,6.192-0.084c3.19,0,5.793,0.721,7.809,2.162c2.281,1.624,3.421,3.967,3.421,7.032
				c0,2.043-0.294,3.673-0.881,4.891c-0.588,1.217-1.672,2.4-3.254,3.547c-0.322,0.224-0.482,0.434-0.482,0.63
				c0-0.014,0.853,1.742,2.561,5.269S227.821,86.425,227.821,86.789z M219.005,67.96c0-1.707-0.56-2.89-1.68-3.547
				c-0.868-0.504-2.225-0.756-4.072-0.756c-1.33,0-2.036,0.203-2.12,0.609c-0.084,0.476-0.126,1.847-0.126,4.114
				c0,0.322,0.007,0.797,0.021,1.427c0.014,0.63,0.021,1.099,0.021,1.406c0,0.07,0.224,0.14,0.671,0.21
				c0.854,0.126,1.75,0.189,2.687,0.189C217.472,71.613,219.005,70.396,219.005,67.96z"/>
			<path id="XMLID_1775_" style="fill:#FC3268;" d="M254.71,82.255c0,0.224-0.146,0.518-0.441,0.882
				c-2.574,3.064-5.996,4.597-10.264,4.597c-4.366,0-7.907-1.491-10.622-4.471c-2.645-2.883-3.967-6.521-3.967-10.915
				c0-4.254,1.294-7.865,3.883-10.832c2.701-3.106,6.136-4.66,10.307-4.66c4.534,0,8.089,1.393,10.663,4.177
				c0.279,0.308,0.42,0.581,0.42,0.819c0,0.266-0.486,1.252-1.459,2.959c-0.973,1.708-1.584,2.666-1.836,2.876
				c-0.113,0.112-0.252,0.168-0.42,0.168c-0.07,0-0.42-0.28-1.05-0.84c-0.756-0.671-1.498-1.196-2.225-1.574
				c-1.105-0.56-2.253-0.839-3.442-0.839c-2.057,0-3.702,0.77-4.933,2.309c-1.133,1.428-1.7,3.191-1.7,5.29
				c0,2.127,0.567,3.911,1.7,5.353c1.231,1.567,2.876,2.351,4.933,2.351c1.217,0,2.372-0.266,3.463-0.798
				c0.714-0.35,1.441-0.839,2.184-1.469c0.615-0.532,0.957-0.798,1.027-0.798c0.141,0,0.281,0.077,0.42,0.231
				c0.225,0.252,0.832,1.126,1.826,2.624C254.198,81.248,254.71,82.101,254.71,82.255z"/>
			<path id="XMLID_1777_" style="fill:#FC3268;" d="M284.664,86.474c0,0.252-0.176,0.427-0.525,0.525
				c-0.419,0.112-1.721,0.168-3.904,0.168c-2.001,0-3.288-0.056-3.862-0.168c-0.476-0.098-0.776-0.413-0.902-0.945
				c-0.476-2.015-0.847-3.092-1.112-3.232c-0.224-0.098-2.099-0.147-5.626-0.147c-2.379,0-3.646,0.063-3.799,0.189
				c-0.238,0.224-0.504,0.973-0.798,2.246c-0.266,1.162-0.588,1.792-0.966,1.889c-0.476,0.112-2.071,0.168-4.785,0.168
				c-2.142,0-3.212-0.203-3.212-0.609c0-0.364,1.581-4.834,4.744-13.413c3.428-9.278,5.289-14.378,5.583-15.302
				c0.168-0.532,0.364-0.797,0.588-0.797c0.378,0,0.962,0.035,1.753,0.104c0.79,0.07,1.382,0.105,1.773,0.105
				c0.378,0,0.935-0.024,1.669-0.073c0.734-0.049,1.284-0.074,1.647-0.074c0.266,0,0.511,0.231,0.735,0.693
				c0.686,1.469,2.687,6.507,6.003,15.113C282.998,81.577,284.664,86.096,284.664,86.474z M269.781,67.352
				c-0.294,0.616-0.791,1.952-1.49,4.009c-0.756,2.183-1.134,3.463-1.134,3.841c0,0.252,0.42,0.392,1.26,0.42
				c0.434,0.028,1.147,0.042,2.141,0.042c0.924,0,1.435-0.112,1.533-0.336c0.027-0.07,0.042-0.168,0.042-0.294
				c0-0.462-0.322-1.735-0.966-3.82C270.537,69.199,270.075,67.912,269.781,67.352z"/>
			<path id="XMLID_1780_" style="fill:#FC3268;" d="M314.198,72.117c0,4.114-1.322,7.683-3.968,10.705
				c-2.337,2.701-5.618,4.122-9.845,4.261c-0.812,0.028-3.043,0.042-6.695,0.042c-0.687,0-1.718-0.021-3.097-0.063
				c-1.378-0.042-2.41-0.063-3.096-0.063c-0.406,0-0.609-0.161-0.609-0.483c0-1.539,0.06-3.852,0.179-6.938
				c0.119-3.085,0.179-5.398,0.179-6.938c0-1.609-0.06-4.02-0.179-7.231c-0.119-3.212-0.179-5.615-0.179-7.21
				c0-0.294,0.203-0.469,0.609-0.525c0.993-0.112,2.624-0.168,4.891-0.168c4.31,0,7.102,0.063,8.375,0.189
				c3.317,0.336,5.912,1.176,7.788,2.519c1.763,1.259,3.155,3.022,4.177,5.29C313.708,67.646,314.198,69.85,314.198,72.117z
				 M306.158,72.117c0-2.365-0.706-4.296-2.119-5.793c-1.428-1.553-3.317-2.33-5.668-2.33c-2.155,0-3.232,0.287-3.232,0.86
				c0,0.826-0.015,2.068-0.042,3.726c-0.028,1.658-0.042,2.9-0.042,3.726c0,0.812,0.014,2.033,0.042,3.663
				c0.027,1.63,0.042,2.858,0.042,3.684c0,0.602,1.119,0.902,3.358,0.902c2.421,0,4.324-0.804,5.709-2.414
				C305.508,76.616,306.158,74.607,306.158,72.117z"/>
			<path id="XMLID_1783_" style="fill:#FC3268;" d="M338.946,80.471c0,0.602-0.119,1.708-0.356,3.317
				c-0.252,1.75-0.477,2.792-0.672,3.127c-0.168,0.266-0.399,0.399-0.693,0.399c-0.126,0-0.336-0.021-0.629-0.063
				c-1.022-0.14-4.003-0.21-8.942-0.21c-1.078,0-2.68-0.007-4.807-0.021c-2.128-0.014-3.723-0.021-4.786-0.021
				c-0.462,0-0.692-0.203-0.692-0.609c0-1.567,0.087-3.921,0.262-7.063c0.175-3.141,0.263-5.496,0.263-7.063
				c0-1.596-0.084-4.569-0.252-8.921c-0.042-1.119-0.119-2.792-0.23-5.017l-0.021-0.294c-0.028-0.322,0.146-0.483,0.524-0.483
				c1.036,0,2.593,0.028,4.671,0.084c2.078,0.056,3.635,0.084,4.67,0.084c1.021,0,2.562-0.028,4.618-0.084
				c2.058-0.056,3.597-0.084,4.618-0.084c0.728,0,1.147,0.273,1.26,0.819c0.069,0.322,0.178,1.298,0.325,2.928
				c0.146,1.63,0.221,2.621,0.221,2.97c0,0.294-0.141,0.441-0.42,0.441c-0.084,0-0.231-0.007-0.441-0.021
				c-3.723-0.308-7.066-0.462-10.033-0.462c-0.742,0-1.196,0.175-1.364,0.525c-0.07,0.167-0.105,0.707-0.105,1.616
				c0,0.952,0.14,1.582,0.42,1.889c0.238,0.266,0.693,0.399,1.364,0.399c0.14,0,0.413-0.011,0.819-0.032
				c0.405-0.021,0.741-0.031,1.007-0.031c1.764,0,3.548-0.049,5.353-0.147c0.154-0.014,0.539-0.049,1.155-0.105
				c0.476-0.056,0.854-0.084,1.133-0.084c0.336,0,0.504,0.161,0.504,0.482c0-0.293-0.126,0.777-0.378,3.212
				c-0.112,1.12-0.168,2.239-0.168,3.358c0,0.28-0.202,0.42-0.608,0.42l-1.889-0.21c-0.798-0.084-2.617-0.126-5.458-0.126h-2.225
				c-0.574,0-0.91,0.14-1.008,0.42c-0.015,0.07-0.021,0.504-0.021,1.301c0,1.063,0.07,1.75,0.21,2.057
				c0.238,0.532,1.134,0.847,2.688,0.945c-0.028,0,0.993,0,3.064,0c0.741,0,1.844-0.066,3.306-0.2
				c1.462-0.133,2.558-0.199,3.285-0.199C338.792,79.715,338.946,79.967,338.946,80.471z"/>
		</g>
		<rect id="XMLID_93_" x="292.53" y="228.5" style="fill:#FFFFFF;" width="25.02" height="25.02"/>
		<rect id="XMLID_92_" x="342.57" y="228.5" style="fill:#FFFFFF;" width="25.02" height="25.02"/>
		<rect id="XMLID_91_" x="317.55" y="203.48" style="fill:#FFFFFF;" width="25.02" height="25.02"/>
		<rect id="XMLID_90_" x="129.822" y="419.461" style="fill:#3588CD;" width="52.163" height="16.333"/>
		<polygon id="XMLID_89_" style="fill:#57AEEA;" points="129.822,419.461 141.243,409.872 171.407,409.874 181.985,419.461 		"/>
		<path id="XMLID_88_" style="fill:#32314B;" d="M155.903,416.667L155.903,416.667c-3.406,0-6.167-2.761-6.167-6.167v-39.833h12.333
			V410.5C162.07,413.906,159.309,416.667,155.903,416.667z"/>
		<circle id="XMLID_87_" style="fill:#DD1B1B;" cx="155.903" cy="363.041" r="14.66"/>
		<path id="XMLID_86_" style="fill:#BC1B1B;" d="M160.863,376.84c-1.55,0.56-3.22,0.86-4.96,0.86c-8.1,0-14.66-6.56-14.66-14.66
			c0-8.1,6.56-14.66,14.66-14.66c1.74,0,3.41,0.3,4.96,0.86c-5.66,2.03-9.7,7.44-9.7,13.8S155.203,374.81,160.863,376.84z"/>
		
			<rect id="XMLID_85_" x="328.125" y="419.461" transform="matrix(-1 -4.491397e-11 4.491397e-11 -1 708.4134 855.2553)" style="fill:#3588CD;" width="52.163" height="16.333"/>
		<polygon id="XMLID_84_" style="fill:#57AEEA;" points="380.288,419.461 368.867,409.872 338.703,409.874 328.125,419.461 		"/>
		<path id="XMLID_83_" style="fill:#32314B;" d="M354.207,416.667L354.207,416.667c-3.406,0-6.167-2.761-6.167-6.167v-39.833h12.333
			V410.5C360.373,413.906,357.612,416.667,354.207,416.667z"/>
		<circle id="XMLID_82_" style="fill:#DD1B1B;" cx="354.207" cy="363.041" r="14.66"/>
		<path id="XMLID_81_" style="fill:#BC1B1B;" d="M359.167,376.84c-1.55,0.56-3.22,0.86-4.96,0.86c-8.1,0-14.66-6.56-14.66-14.66
			c0-8.1,6.56-14.66,14.66-14.66c1.74,0,3.41,0.3,4.96,0.86c-5.66,2.03-9.7,7.44-9.7,13.8S353.507,374.81,359.167,376.84z"/>
		<path id="XMLID_80_" style="fill:#DD1B1B;" d="M230.79,427.628h-27v-6.294c0-2.577,2.089-4.667,4.667-4.667h17.667
			c2.577,0,4.667,2.089,4.667,4.667V427.628z"/>
		<path id="XMLID_79_" style="fill:#32314B;" d="M231.207,435.794h-27.833c-2.255,0-4.083-1.828-4.083-4.083l0,0
			c0-2.255,1.828-4.083,4.083-4.083h27.833c2.255,0,4.083,1.828,4.083,4.083l0,0C235.29,433.966,233.462,435.794,231.207,435.794z"
			/>
		<path id="XMLID_78_" style="fill:#DD1B1B;" d="M309.625,427.628h-27v-6.294c0-2.577,2.089-4.667,4.667-4.667h17.667
			c2.577,0,4.667,2.089,4.667,4.667V427.628z"/>
		<path id="XMLID_103_" style="fill:#32314B;" d="M310.042,435.794h-27.833c-2.255,0-4.083-1.828-4.083-4.083l0,0
			c0-2.255,1.828-4.083,4.083-4.083h27.833c2.255,0,4.083,1.828,4.083,4.083l0,0C314.125,433.966,312.297,435.794,310.042,435.794z"
			/>
		<path id="XMLID_114_" style="fill:#3E436D;" d="M300,476.667h-88.75c-2.278,0-4.125-1.847-4.125-4.125v-7.75
			c0-2.278,1.847-4.125,4.125-4.125H300c2.278,0,4.125,1.847,4.125,4.125v7.75C304.125,474.82,302.278,476.667,300,476.667z"/>
		<path id="XMLID_115_" style="fill:#32314B;" d="M293.125,472h-75c-1.657,0-3-1.343-3-3l0,0c0-1.657,1.343-3,3-3h75
			c1.657,0,3,1.343,3,3l0,0C296.125,470.657,294.782,472,293.125,472z"/>
	</g>
</g>
</svg>
