<?xml version="1.0" encoding="iso-8859-1"?>
<!-- Generator: Adobe Illustrator 22.0.1, SVG Export Plug-In . SVG Version: 6.00 Build 0)  -->
<svg version="1.1" xmlns="http://www.w3.org/2000/svg" xmlns:xlink="http://www.w3.org/1999/xlink" x="0px" y="0px"
	 viewBox="0 0 512 512" style="enable-background:new 0 0 512 512;" xml:space="preserve">
<g id="BULINE">
	<circle id="XMLID_262_" style="fill:#FF50B5;" cx="256" cy="256" r="256"/>
</g>
<g id="Icons">
	<g id="XMLID_136_">
		<g id="XMLID_182_">
			<path id="XMLID_215_" style="fill:#32314B;" d="M375.89,29.76h-12.25c-9.48,0-17.19,7.71-17.19,17.19
				c0,19.91-16.18,36.1-36.1,36.1H291.3c-10.71,0-19.43,8.6-19.62,19.25c-0.01,0.12-0.01,0.26-0.01,0.38v9.26h-15.58v-9.69
				c0.24-19.22,15.94-34.77,35.21-34.77h19.05c11.32,0,20.53-9.21,20.53-20.53c0-12.9,7.5-24.09,18.37-29.43
				C358.4,21.1,367.29,25.19,375.89,29.76z"/>
		</g>
		<path id="XMLID_181_" style="fill:#BABABA;" d="M285.55,141.702h-49.575v-24.443c0-8.287,6.718-15.005,15.005-15.005h19.565
			c8.287,0,15.005,6.718,15.005,15.005V141.702z"/>
		<g id="XMLID_138_">
			<path id="XMLID_180_" style="fill:#FFFFFF;" d="M461.836,150.012c-17.612-45.646-68.892-68.372-114.538-50.76
				c-10.903,4.207-20.495,10.336-28.543,17.85c-12.605,11.77-29.389,18.026-46.635,18.026H239.88
				c-17.246,0-34.03-6.257-46.635-18.026c-8.048-7.514-17.64-13.644-28.543-17.85c-45.646-17.612-96.926,5.114-114.538,50.76
				c-17.612,45.646-43.078,221.83,2.568,239.441c22.533,8.694,58.178-22.878,90.62-62.572
				c16.092-19.689,40.275-30.983,65.703-30.983h93.888c25.428,0,49.611,11.294,65.703,30.983
				c32.442,39.694,68.088,71.266,90.62,62.572C504.914,371.842,479.448,195.658,461.836,150.012z"/>
			<circle id="XMLID_175_" style="fill:#BABABA;" cx="131.607" cy="204.48" r="81.221"/>
			<circle id="XMLID_163_" style="fill:#BABABA;" cx="380.393" cy="204.48" r="81.221"/>
			<circle id="XMLID_162_" style="fill:#BABABA;" cx="256" cy="180.241" r="27.183"/>
			<circle id="XMLID_161_" style="fill:#FFFFFF;" cx="256" cy="180.241" r="17.884"/>
			<path id="XMLID_160_" style="fill:#4F4F74;" d="M181.253,183.377h-15.56c-5.544,0-10.039-4.495-10.039-10.039v-15.56
				c0-5.544-4.495-10.039-10.039-10.039h-28.016c-5.544,0-10.039,4.495-10.039,10.039v15.56c0,5.544-4.495,10.039-10.039,10.039
				h-15.56c-5.544,0-10.039,4.495-10.039,10.039v28.016c0,5.544,4.495,10.039,10.039,10.039h15.56
				c5.544,0,10.039,4.495,10.039,10.039v15.56c0,5.544,4.495,10.039,10.039,10.039h28.016c5.544,0,10.039-4.495,10.039-10.039
				v-15.56c0-5.544,4.495-10.039,10.039-10.039h15.56c5.544,0,10.039-4.495,10.039-10.039v-28.016
				C191.291,187.872,186.797,183.377,181.253,183.377z"/>
			<path id="XMLID_159_" style="fill:#666691;" d="M162.745,192.342h-9.759c-3.477,0-6.296-2.819-6.296-6.296v-9.759
				c0-3.477-2.819-6.296-6.296-6.296h-17.572c-3.477,0-6.296,2.819-6.296,6.296v9.759c0,3.477-2.819,6.296-6.296,6.296h-9.759
				c-3.477,0-6.296,2.819-6.296,6.296v17.572c0,3.477,2.819,6.296,6.296,6.296h9.759c3.477,0,6.296,2.819,6.296,6.296v9.759
				c0,3.477,2.819,6.296,6.296,6.296h17.572c3.477,0,6.296-2.819,6.296-6.296v-9.759c0-3.477,2.819-6.296,6.296-6.296h9.759
				c3.477,0,6.296-2.819,6.296-6.296v-17.572C169.041,195.161,166.222,192.342,162.745,192.342z"/>
			<circle id="XMLID_158_" style="fill:#F8D572;" cx="379.832" cy="153.848" r="25.419"/>
			<circle id="XMLID_157_" style="fill:#F9BD38;" cx="379.832" cy="153.848" r="21.079"/>
			<path id="XMLID_156_" style="fill:#E2C06D;" d="M369.191,153.848c0,8.773,4.442,16.507,11.203,21.073
				c0.694,0.471,1.414,0.908,2.157,1.308c1.476,0.797,3.038,1.451,4.671,1.944c-2.337,0.713-4.82,1.094-7.39,1.094
				c-14.039,0-25.419-11.38-25.419-25.419c0-0.22,0.003-0.437,0.009-0.657c0.003-0.143,0.006-0.288,0.015-0.431
				c0-0.022,0-0.043,0.003-0.068c0.003-0.096,0.009-0.195,0.016-0.291c0.747-13.367,11.826-23.971,25.375-23.971
				c2.57,0,5.053,0.381,7.39,1.094c-2.455,0.741-4.752,1.847-6.829,3.252C373.633,137.342,369.191,145.076,369.191,153.848z"/>
			<path id="XMLID_155_" style="fill:#DDA636;" d="M380.393,174.921c-0.186,0.003-0.375,0.006-0.561,0.006
				c-11.64,0-21.079-9.436-21.079-21.079c0-11.64,9.439-21.079,21.079-21.079c0.186,0,0.375,0.003,0.561,0.006
				c-6.761,4.566-11.203,12.3-11.203,21.073C369.191,162.621,373.633,170.355,380.393,174.921z"/>
			<g id="XMLID_148_">
				<circle id="XMLID_154_" style="fill:#3588CD;" cx="336.385" cy="203.549" r="25.419"/>
				<path id="XMLID_153_" style="fill:#3385BC;" d="M325.743,203.549c0,8.773,4.442,16.507,11.203,21.073
					c0.694,0.471,1.414,0.908,2.157,1.308c1.476,0.797,3.038,1.451,4.671,1.944c-2.337,0.713-4.82,1.094-7.39,1.094
					c-14.039,0-25.419-11.38-25.419-25.419c0-0.22,0.003-0.437,0.009-0.657c0.003-0.143,0.006-0.288,0.016-0.431
					c0-0.022,0-0.043,0.003-0.068c0.003-0.096,0.009-0.195,0.016-0.291c0.747-13.367,11.826-23.971,25.375-23.971
					c2.57,0,5.053,0.381,7.39,1.094c-2.455,0.741-4.752,1.847-6.829,3.252C330.185,187.042,325.743,194.776,325.743,203.549z"/>
				<circle id="XMLID_152_" style="fill:#366FCC;" cx="336.385" cy="203.549" r="21.079"/>
				<path id="XMLID_151_" style="fill:#3268B7;" d="M344.487,223.527c-2.102,0.714-4.359,1.097-6.709,1.097
					c-11.637,0-21.079-9.432-21.079-21.079c0-11.637,9.442-21.079,21.079-21.079c2.35,0,4.607,0.383,6.709,1.098
					c-8.355,2.795-14.37,10.695-14.37,19.982C330.116,212.843,336.131,220.732,344.487,223.527z"/>
			</g>
			<circle id="XMLID_140_" style="fill:#ED4F4F;" cx="426.33" cy="203.549" r="25.419"/>
			<circle id="XMLID_141_" style="fill:#DD1B1B;" cx="426.33" cy="203.549" r="21.079"/>
			<path id="XMLID_142_" style="fill:#CC4A4A;" d="M415.688,203.549c0,8.773,4.442,16.507,11.203,21.073
				c0.694,0.471,1.414,0.908,2.157,1.308c1.476,0.797,3.038,1.451,4.671,1.944c-2.337,0.713-4.82,1.094-7.39,1.094
				c-14.039,0-25.419-11.38-25.419-25.419c0-0.22,0.003-0.437,0.009-0.657c0.003-0.143,0.006-0.288,0.016-0.431
				c0-0.022,0-0.043,0.003-0.068c0.003-0.096,0.009-0.195,0.016-0.291c0.747-13.367,11.826-23.971,25.375-23.971
				c2.57,0,5.053,0.381,7.39,1.094c-2.455,0.741-4.752,1.848-6.829,3.252C420.13,187.042,415.688,194.776,415.688,203.549z"/>
			<path id="XMLID_183_" style="fill:#BC1B1B;" d="M426.891,224.621c-0.186,0.003-0.375,0.006-0.561,0.006
				c-11.64,0-21.079-9.436-21.079-21.079c0-11.64,9.439-21.079,21.079-21.079c0.186,0,0.375,0.003,0.561,0.006
				c-6.761,4.566-11.203,12.3-11.203,21.073C415.688,212.321,420.13,220.055,426.891,224.621z"/>
			<circle id="XMLID_184_" style="fill:#03E277;" cx="379.832" cy="248.393" r="25.419"/>
			<circle id="XMLID_185_" style="fill:#00B764;" cx="379.832" cy="248.393" r="21.079"/>
			<path id="XMLID_186_" style="fill:#05CC68;" d="M369.191,248.393c0,8.773,4.442,16.507,11.203,21.073
				c0.694,0.471,1.414,0.908,2.157,1.308c1.476,0.797,3.038,1.451,4.671,1.944c-2.337,0.713-4.82,1.094-7.39,1.094
				c-14.039,0-25.419-11.38-25.419-25.419c0-0.22,0.003-0.437,0.009-0.657c0.003-0.143,0.006-0.288,0.015-0.431
				c0-0.022,0-0.043,0.003-0.068c0.003-0.096,0.009-0.195,0.016-0.291c0.747-13.367,11.826-23.971,25.375-23.971
				c2.57,0,5.053,0.381,7.39,1.094c-2.455,0.741-4.752,1.848-6.829,3.252C373.633,231.886,369.191,239.62,369.191,248.393z"/>
			<path id="XMLID_187_" style="fill:#049E54;" d="M380.393,269.466c-0.186,0.003-0.375,0.006-0.561,0.006
				c-11.64,0-21.079-9.436-21.079-21.079c0-11.64,9.439-21.079,21.079-21.079c0.186,0,0.375,0.003,0.561,0.006
				c-6.761,4.566-11.203,12.3-11.203,21.073C369.191,257.165,373.633,264.9,380.393,269.466z"/>
			<path id="XMLID_188_" style="fill:#32314B;" d="M245.647,273.812h-33.821c-1.715,0-3.106-1.391-3.106-3.106v-10.398
				c0-1.715,1.391-3.106,3.106-3.106h33.821c1.715,0,3.106,1.391,3.106,3.106v10.398
				C248.753,272.421,247.362,273.812,245.647,273.812z"/>
			<path id="XMLID_189_" style="fill:#32314B;" d="M303.28,273.812h-33.821c-1.715,0-3.106-1.391-3.106-3.106v-10.398
				c0-1.715,1.391-3.106,3.106-3.106h33.821c1.715,0,3.106,1.391,3.106,3.106v10.398
				C306.386,272.421,304.996,273.812,303.28,273.812z"/>
		</g>
	</g>
</g>
</svg>
