<?xml version="1.0" encoding="iso-8859-1"?>
<!-- Generator: Adobe Illustrator 22.0.1, SVG Export Plug-In . SVG Version: 6.00 Build 0)  -->
<svg version="1.1" xmlns="http://www.w3.org/2000/svg" xmlns:xlink="http://www.w3.org/1999/xlink" x="0px" y="0px"
	 viewBox="0 0 512 512" style="enable-background:new 0 0 512 512;" xml:space="preserve">
<g id="BULINE">
	<circle id="XMLID_2532_" style="fill:#AC60FC;" cx="256" cy="256" r="256"/>
</g>
<g id="Icons">
	<g id="XMLID_1828_">
		<g id="XMLID_1856_">
			<path id="XMLID_1867_" style="fill:#3E436D;" d="M465.191,389h-415.2c-4.87,0-8.818-3.948-8.818-8.818V354.02h432.836v26.162
				C474.009,385.052,470.061,389,465.191,389z"/>
			<path id="XMLID_1866_" style="fill:#FFFFFF;" d="M494.535,250.099v96.246c0,4.789-3.883,8.672-8.672,8.672H29.319
				c-4.789,0-8.672-3.883-8.672-8.672v-96.246c0-4.789,3.883-8.672,8.672-8.672h456.544
				C490.653,241.427,494.535,245.309,494.535,250.099z"/>
			<path id="XMLID_1865_" style="fill:#27273D;" d="M94.181,380.032H61.3c-3.137,0-5.679-2.543-5.679-5.68v-2.989
				c0-3.137,2.543-5.679,5.679-5.679h32.881c3.137,0,5.679,2.543,5.679,5.679v2.989C99.861,377.49,97.318,380.032,94.181,380.032z"
				/>
			<path id="XMLID_1864_" style="fill:#27273D;" d="M452.886,381.527h-19.729c-4.788,0-8.669-3.881-8.669-8.669v0
				c0-4.788,3.881-8.669,8.669-8.669h19.729c4.788,0,8.669,3.881,8.669,8.669v0C461.554,377.646,457.673,381.527,452.886,381.527z"
				/>
			<path id="XMLID_1863_" style="fill:#D1D1D1;" d="M494.539,328.714v17.636c0,4.783-3.886,8.669-8.681,8.669H29.324
				c-4.795,0-8.681-3.886-8.681-8.669v-96.252c0-4.783,3.886-8.669,8.681-8.669h49.513v78.616c0,4.783,3.886,8.669,8.669,8.669
				H494.539z"/>
			<path id="XMLID_1862_" style="fill:#00B764;" d="M442.065,298.846l-11.275,11.275c-2.104-3.252-3.312-7.126-3.312-11.275
				c0-4.161,1.208-8.035,3.312-11.287L442.065,298.846z"/>
			<path id="XMLID_1861_" style="fill:#00B764;" d="M448.402,292.497l-11.275-11.275c3.252-2.092,7.126-3.3,11.275-3.3
				c4.149,0,8.023,1.208,11.275,3.3L448.402,292.497z"/>
			<path id="XMLID_1860_" style="fill:#00B764;" d="M448.402,305.183l11.275,11.275c-3.252,2.104-7.126,3.312-11.275,3.312
				c-4.149,0-8.023-1.208-11.275-3.312L448.402,305.183z"/>
			<path id="XMLID_1859_" style="fill:#00B764;" d="M469.326,298.846c0,4.149-1.208,8.023-3.312,11.275l-11.275-11.275
				l11.275-11.287C468.119,290.811,469.326,294.685,469.326,298.846z"/>
			<path id="XMLID_1858_" style="fill:#27273D;" d="M359.025,308.684H20.647v-20.924h338.378c5.778,0,10.462,4.684,10.462,10.462
				l0,0C369.487,304,364.803,308.684,359.025,308.684z"/>
			<rect id="XMLID_1857_" x="20.643" y="287.762" style="fill:#1E1E2D;" width="58.194" height="20.924"/>
		</g>
		<g id="XMLID_1829_">
			<path id="XMLID_1855_" style="fill:#FFFFFF;" d="M379.81,86.528c-10.714-27.768-41.91-41.594-69.678-30.88
				c-6.633,2.559-12.468,6.288-17.364,10.859c-7.668,7.16-17.879,10.966-28.37,10.966h-19.613c-10.491,0-20.702-3.806-28.37-10.966
				c-4.896-4.571-10.731-8.3-17.364-10.859c-27.768-10.714-58.964,3.111-69.678,30.88c-10.714,27.768-26.206,134.948,1.562,145.662
				c13.708,5.289,35.392-13.918,55.128-38.065c9.789-11.978,24.501-18.848,39.97-18.848h57.116c15.469,0,30.181,6.871,39.97,18.848
				c19.736,24.147,41.421,43.354,55.128,38.065C406.016,221.476,390.524,114.296,379.81,86.528z"/>
			<circle id="XMLID_1854_" style="fill:#BABABA;" cx="178.918" cy="119.663" r="49.41"/>
			<circle id="XMLID_1853_" style="fill:#BABABA;" cx="330.265" cy="119.663" r="49.41"/>
			<circle id="XMLID_1852_" style="fill:#BABABA;" cx="254.591" cy="104.917" r="16.537"/>
			<circle id="XMLID_1851_" style="fill:#FFFFFF;" cx="254.591" cy="104.917" r="10.879"/>
			<path id="XMLID_1850_" style="fill:#4F4F74;" d="M209.119,106.825h-9.466c-3.373,0-6.107-2.734-6.107-6.107v-9.466
				c0-3.373-2.734-6.107-6.107-6.107h-17.043c-3.373,0-6.107,2.734-6.107,6.107v9.466c0,3.373-2.734,6.107-6.107,6.107h-9.466
				c-3.373,0-6.107,2.734-6.107,6.107v17.044c0,3.373,2.734,6.107,6.107,6.107h9.466c3.373,0,6.107,2.734,6.107,6.107v9.466
				c0,3.373,2.734,6.107,6.107,6.107h17.043c3.373,0,6.107-2.734,6.107-6.107v-9.466c0-3.373,2.734-6.107,6.107-6.107h9.466
				c3.373,0,6.107-2.734,6.107-6.107v-17.044C215.226,109.559,212.492,106.825,209.119,106.825z"/>
			<path id="XMLID_1849_" style="fill:#666691;" d="M197.86,112.279h-5.937c-2.115,0-3.83-1.715-3.83-3.83v-5.937
				c0-2.115-1.715-3.83-3.83-3.83h-10.69c-2.115,0-3.83,1.715-3.83,3.83v5.937c0,2.115-1.715,3.83-3.83,3.83h-5.937
				c-2.115,0-3.83,1.715-3.83,3.83v10.69c0,2.115,1.715,3.83,3.83,3.83h5.937c2.115,0,3.83,1.715,3.83,3.83v5.937
				c0,2.115,1.715,3.83,3.83,3.83h10.69c2.115,0,3.83-1.715,3.83-3.83v-5.937c0-2.115,1.715-3.83,3.83-3.83h5.937
				c2.115,0,3.83-1.715,3.83-3.83v-10.69C201.69,113.994,199.975,112.279,197.86,112.279z"/>
			<circle id="XMLID_1848_" style="fill:#F8D572;" cx="329.924" cy="88.861" r="15.463"/>
			<circle id="XMLID_1847_" style="fill:#F9BD38;" cx="329.924" cy="88.861" r="12.823"/>
			<path id="XMLID_1846_" style="fill:#E2C06D;" d="M323.45,88.861c0,5.337,2.702,10.042,6.815,12.819
				c0.422,0.287,0.86,0.553,1.312,0.796c0.898,0.485,1.848,0.883,2.842,1.182c-1.422,0.434-2.932,0.666-4.496,0.666
				c-8.541,0-15.463-6.923-15.463-15.463c0-0.134,0.002-0.266,0.006-0.4c0.002-0.087,0.004-0.175,0.009-0.262
				c0-0.013,0-0.026,0.002-0.041c0.002-0.058,0.006-0.119,0.009-0.177c0.454-8.131,7.194-14.583,15.437-14.583
				c1.563,0,3.074,0.232,4.496,0.666c-1.494,0.451-2.891,1.124-4.154,1.978C326.152,78.82,323.45,83.525,323.45,88.861z"/>
			<path id="XMLID_1845_" style="fill:#DDA636;" d="M330.265,101.681c-0.113,0.002-0.228,0.004-0.341,0.004
				c-7.081,0-12.823-5.74-12.823-12.823c0-7.081,5.742-12.823,12.823-12.823c0.113,0,0.228,0.002,0.341,0.004
				c-4.113,2.778-6.815,7.483-6.815,12.819C323.45,94.198,326.152,98.903,330.265,101.681z"/>
			<g id="XMLID_1840_">
				<circle id="XMLID_1844_" style="fill:#3588CD;" cx="303.493" cy="119.096" r="15.463"/>
				<path id="XMLID_1843_" style="fill:#3385BC;" d="M297.019,119.096c0,5.337,2.702,10.042,6.815,12.819
					c0.422,0.287,0.86,0.553,1.312,0.796c0.898,0.485,1.848,0.883,2.842,1.182c-1.422,0.434-2.932,0.666-4.496,0.666
					c-8.541,0-15.463-6.923-15.463-15.463c0-0.134,0.002-0.266,0.006-0.4c0.002-0.087,0.004-0.175,0.009-0.262
					c0-0.013,0-0.026,0.002-0.041c0.002-0.058,0.006-0.119,0.009-0.177c0.454-8.131,7.194-14.583,15.437-14.583
					c1.563,0,3.074,0.232,4.496,0.666c-1.494,0.451-2.891,1.124-4.154,1.978C299.721,109.055,297.019,113.76,297.019,119.096z"/>
				<circle id="XMLID_1842_" style="fill:#366FCC;" cx="303.493" cy="119.096" r="12.823"/>
				<path id="XMLID_1841_" style="fill:#3268B7;" d="M308.421,131.25c-1.279,0.435-2.652,0.668-4.081,0.668
					c-7.079,0-12.823-5.738-12.823-12.824c0-7.079,5.744-12.824,12.823-12.824c1.43,0,2.803,0.233,4.081,0.668
					c-5.083,1.701-8.742,6.506-8.742,12.156C299.679,124.75,303.338,129.549,308.421,131.25z"/>
			</g>
			<circle id="XMLID_1839_" style="fill:#ED4F4F;" cx="358.21" cy="119.096" r="15.463"/>
			<circle id="XMLID_1838_" style="fill:#DD1B1B;" cx="358.21" cy="119.096" r="12.823"/>
			<path id="XMLID_1837_" style="fill:#CC4A4A;" d="M351.736,119.096c0,5.337,2.702,10.042,6.815,12.819
				c0.422,0.287,0.86,0.553,1.312,0.796c0.898,0.485,1.848,0.883,2.842,1.182c-1.422,0.434-2.932,0.666-4.496,0.666
				c-8.541,0-15.463-6.923-15.463-15.463c0-0.134,0.002-0.266,0.006-0.4c0.002-0.087,0.004-0.175,0.009-0.262
				c0-0.013,0-0.026,0.002-0.041c0.002-0.058,0.006-0.119,0.009-0.177c0.454-8.131,7.194-14.583,15.437-14.583
				c1.563,0,3.074,0.232,4.496,0.666c-1.494,0.451-2.891,1.124-4.154,1.978C354.439,109.054,351.736,113.759,351.736,119.096z"/>
			<path id="XMLID_1836_" style="fill:#BC1B1B;" d="M358.551,131.916c-0.113,0.002-0.228,0.004-0.341,0.004
				c-7.081,0-12.823-5.74-12.823-12.823c0-7.081,5.742-12.823,12.823-12.823c0.113,0,0.228,0.002,0.341,0.004
				c-4.113,2.778-6.815,7.483-6.815,12.819C351.736,124.433,354.439,129.138,358.551,131.916z"/>
			<circle id="XMLID_1835_" style="fill:#03E277;" cx="329.924" cy="146.377" r="15.463"/>
			<circle id="XMLID_1834_" style="fill:#00B764;" cx="329.924" cy="146.377" r="12.823"/>
			<path id="XMLID_1833_" style="fill:#05CC68;" d="M323.45,146.377c0,5.337,2.702,10.042,6.815,12.819
				c0.422,0.287,0.86,0.553,1.312,0.796c0.898,0.485,1.848,0.883,2.842,1.182c-1.422,0.434-2.932,0.666-4.496,0.666
				c-8.541,0-15.463-6.923-15.463-15.463c0-0.134,0.002-0.266,0.006-0.4c0.002-0.087,0.004-0.175,0.009-0.262
				c0-0.013,0-0.026,0.002-0.041c0.002-0.058,0.006-0.119,0.009-0.177c0.454-8.131,7.194-14.583,15.437-14.583
				c1.563,0,3.074,0.232,4.496,0.666c-1.494,0.451-2.891,1.124-4.154,1.978C326.152,136.335,323.45,141.04,323.45,146.377z"/>
			<path id="XMLID_1832_" style="fill:#049E54;" d="M330.265,159.196c-0.113,0.002-0.228,0.004-0.341,0.004
				c-7.081,0-12.823-5.74-12.823-12.823c0-7.081,5.742-12.823,12.823-12.823c0.113,0,0.228,0.002,0.341,0.004
				c-4.113,2.778-6.815,7.483-6.815,12.819S326.152,156.419,330.265,159.196z"/>
			<path id="XMLID_1831_" style="fill:#32314B;" d="M248.293,161.84h-20.575c-1.044,0-1.89-0.846-1.89-1.89v-6.326
				c0-1.044,0.846-1.89,1.89-1.89h20.575c1.044,0,1.89,0.846,1.89,1.89v6.326C250.182,160.994,249.336,161.84,248.293,161.84z"/>
			<path id="XMLID_1830_" style="fill:#32314B;" d="M283.354,161.84h-20.575c-1.044,0-1.889-0.846-1.889-1.89v-6.326
				c0-1.044,0.846-1.89,1.889-1.89h20.575c1.044,0,1.89,0.846,1.89,1.89v6.326C285.243,160.994,284.397,161.84,283.354,161.84z"/>
		</g>
	</g>
</g>
</svg>
