<?xml version="1.0" encoding="iso-8859-1"?>
<!-- Generator: Adobe Illustrator 22.0.1, SVG Export Plug-In . SVG Version: 6.00 Build 0)  -->
<svg version="1.1" xmlns="http://www.w3.org/2000/svg" xmlns:xlink="http://www.w3.org/1999/xlink" x="0px" y="0px"
	 viewBox="0 0 512 512" style="enable-background:new 0 0 512 512;" xml:space="preserve">
<g id="BULINE">
	<circle id="XMLID_1162_" style="fill:#FF50B5;" cx="256" cy="256" r="256"/>
</g>
<g id="Icons">
	<g id="XMLID_1108_">
		<rect id="XMLID_1137_" x="182.51" y="405.448" style="fill:#32314B;" width="142.038" height="59.849"/>
		<rect id="XMLID_1136_" x="182.51" y="404.441" style="fill:#27273D;" width="142.038" height="29.925"/>
		<path id="XMLID_1343_" style="fill:#32314B;" d="M491.93,86.63v268.89c-7.5,17.75-16.94,34.49-28.07,49.93H48.14
			c-11.17-15.49-20.63-32.28-28.14-50.1V86.63c0-7.86,6.37-14.23,14.22-14.23H477.7C485.56,72.4,491.93,78.77,491.93,86.63z"/>
		<path id="XMLID_1333_" style="fill:#3E436D;" d="M491.93,86.63v268.89c-7.5,17.75-16.94,34.49-28.07,49.93H169.87
			c-7.85,0-14.23-6.37-14.23-14.23V86.63c0-7.86,6.38-14.23,14.23-14.23H477.7C485.56,72.4,491.93,78.77,491.93,86.63z"/>
		<path id="XMLID_1133_" style="fill:#7CCAFD;" d="M464.82,386.132H47.109c-4.83,0-8.745-3.915-8.745-8.745V100.462
			c0-4.83,3.915-8.745,8.745-8.745H464.82c4.83,0,8.745,3.915,8.745,8.745v276.924C473.565,382.216,469.65,386.132,464.82,386.132z"
			/>
		<path id="XMLID_1132_" style="fill:#41C2E5;" d="M473.567,302.295v75.091c0,4.828-3.914,8.742-8.742,8.742H47.104
			c-4.828,0-8.742-3.914-8.742-8.742V100.461c0-4.828,3.914-8.742,8.742-8.742h109.009v0c0,116.298,94.278,210.576,210.576,210.576
			H473.567z"/>
		<path id="XMLID_1157_" style="fill:#27273D;" d="M347.94,473.54v18.84c0,0.98-0.17,1.92-0.48,2.79
			c-5.19,1.99-10.46,3.81-15.8,5.46H180.34c-6.52-2.01-12.92-4.28-19.2-6.79c-0.09-0.47-0.13-0.96-0.13-1.46v-18.84
			c0-4.55,3.69-8.24,8.24-8.24h170.44C344.25,465.3,347.94,468.99,347.94,473.54z"/>
		<g id="XMLID_1126_">
			<path id="XMLID_1130_" style="fill:#F8C952;" d="M159.915,151.489v112.654c0,26.626,12.288,51.762,33.3,68.116l39.75,30.939
				c12.094,9.413,29.034,9.413,41.128,0l39.75-30.939c21.012-16.354,33.3-41.49,33.3-68.116V151.489
				c0-6.832-4.243-12.971-10.657-15.323c-55.305-20.28-110.61-20.28-165.915,0C164.158,138.518,159.915,144.657,159.915,151.489z"/>
			<path id="XMLID_1129_" style="fill:#F8D572;" d="M180.218,171.901v88.221c0,20.851,9.623,40.536,26.078,53.343l31.129,24.229
				c9.471,7.371,22.737,7.371,32.208,0l31.129-24.229c16.455-12.807,26.078-32.492,26.078-53.343v-88.221
				c0-5.35-3.323-10.158-8.346-12c-43.31-15.881-86.62-15.881-129.931,0C183.541,161.744,180.218,166.551,180.218,171.901z"/>
			<path id="XMLID_1128_" style="fill:#DBA437;" d="M265.045,340.546l19.07,14.84l-10.03,7.81c-12.09,9.41-29.03,9.41-41.12,0
				l-39.75-30.94c-21.02-16.35-33.3-41.49-33.3-68.11v-112.66c0-6.83,4.24-12.97,10.65-15.32c37.85-13.88,75.7-18.26,113.55-13.14
				c-17.45,2.36-34.91,6.74-52.36,13.14c-6.25,2.29-10.44,8.17-10.65,14.79c-0.01,0.18-0.01,0.35-0.01,0.53v112.66
				c0,26.62,12.29,51.76,33.3,68.11L265.045,340.546z"/>
			<path id="XMLID_1127_" style="fill:#F9BD38;" d="M265.045,340.546c-8.85,4.35-19.6,3.39-27.62-2.85l-31.13-24.23
				c-16.46-12.81-26.08-32.49-26.08-53.34v-88.23c0-5.35,3.32-10.15,8.34-11.99c10.85-3.98,21.7-6.97,32.55-8.95
				c-0.01,0.18-0.01,0.35-0.01,0.53v112.66c0,26.62,12.29,51.76,33.3,68.11L265.045,340.546z"/>
		</g>
		<g id="XMLID_1118_">
			<path id="XMLID_1125_" style="fill:#F9F9F9;" d="M183.299,341.984l2.041-25.376c0.232-2.889,1.486-5.602,3.535-7.651
				L303.631,194.2l29.117,29.117L217.992,338.074c-2.05,2.05-4.762,3.303-7.651,3.535l-25.376,2.041
				C184.015,343.726,183.222,342.934,183.299,341.984z"/>
			<path id="XMLID_1124_" style="fill:#CECECE;" d="M324.52,231.968l8.44-8.44l-29.117-29.117L189.086,309.167
				c-2.05,2.05-3.304,4.764-3.536,7.654l-2.038,25.375c-0.08,0.949,0.713,1.743,1.667,1.667l0.781-0.063l0.717-8.971
				c0.232-2.891,1.485-5.604,3.536-7.655l104.242-104.242c5.807-5.807,15.221-5.807,21.028,0L324.52,231.968z"/>
			<path id="XMLID_1123_" style="fill:#32314B;" d="M358.194,219.844l-50.667-50.667c-1.624-1.624-4.256-1.624-5.88,0l-8.58,8.58
				c-1.624,1.624-1.624,4.256,0,5.88l50.667,50.667c1.624,1.624,4.256,1.624,5.88,0l8.58-8.58
				C359.818,224.1,359.818,221.467,358.194,219.844z"/>
			<path id="XMLID_1122_" style="fill:#27273D;" d="M347.21,208.856l31.957-31.957c7.693-7.693,7.693-20.158,0-27.851l-1.266-1.266
				c-7.693-7.693-20.158-7.693-27.851,0l-31.957,31.957L347.21,208.856z"/>
			<path id="XMLID_1121_" style="fill:#212133;" d="M347.21,208.856l31.957-31.957c7.693-7.693,7.693-20.158,0-27.851l-1.266-1.266
				c-7.693-7.693-20.158-7.693-27.851,0l-1.827,1.827L347.21,208.856z"/>
			<polygon id="XMLID_1120_" style="fill:#2F2F49;" points="318.092,179.739 356.52,199.546 370.151,185.915 348.221,149.61 			"/>
			<path id="XMLID_1119_" style="fill:#AFAFAF;" d="M321.636,212.205l-6.47-6.471L200.469,320.431c-1.787,1.787-1.787,4.684,0,6.47
				l0,0c1.787,1.787,4.684,1.787,6.471,0L321.636,212.205z"/>
		</g>
		<g id="XMLID_1109_">
			<path id="XMLID_1116_" style="fill:#F9F9F9;" d="M322.008,343.757l-25.376-2.041c-2.889-0.232-5.602-1.486-7.651-3.535
				L174.224,223.424l29.117-29.117l114.756,114.756c2.05,2.05,3.303,4.762,3.535,7.651l2.041,25.376
				C323.751,343.04,322.958,343.833,322.008,343.757z"/>
			<path id="XMLID_1115_" style="fill:#CECECE;" d="M211.993,202.536l-8.44-8.44l-29.117,29.117l114.756,114.756
				c2.05,2.05,4.764,3.304,7.654,3.536l25.375,2.038c0.949,0.08,1.743-0.713,1.667-1.667l-0.063-0.781l-8.971-0.717
				c-2.891-0.232-5.604-1.485-7.655-3.536L202.956,232.6c-5.807-5.807-5.807-15.221,0-21.028L211.993,202.536z"/>
			<path id="XMLID_1114_" style="fill:#32314B;" d="M199.868,168.861l-50.667,50.667c-1.624,1.624-1.624,4.256,0,5.88l8.58,8.58
				c1.624,1.624,4.256,1.624,5.88,0l50.667-50.667c1.624-1.624,1.624-4.256,0-5.88l-8.58-8.58
				C204.124,167.237,201.491,167.237,199.868,168.861z"/>
			<path id="XMLID_1113_" style="fill:#27273D;" d="M188.88,179.845l-31.957-31.957c-7.693-7.693-20.158-7.693-27.851,0
				l-1.266,1.266c-7.693,7.693-7.693,20.158,0,27.851l31.957,31.957L188.88,179.845z"/>
			<path id="XMLID_1112_" style="fill:#212133;" d="M188.88,179.845l-31.957-31.957c-7.693-7.693-20.158-7.693-27.851,0
				l-1.266,1.266c-7.693,7.693-7.693,20.158,0,27.851l1.827,1.827L188.88,179.845z"/>
			<polygon id="XMLID_1111_" style="fill:#2F2F49;" points="159.763,208.963 179.57,170.535 165.939,156.904 129.634,178.834 			"/>
			<path id="XMLID_1110_" style="fill:#AFAFAF;" d="M192.229,205.419l-6.471,6.471l114.697,114.697c1.787,1.787,4.684,1.787,6.47,0
				h0c1.787-1.787,1.787-4.684,0-6.47L192.229,205.419z"/>
		</g>
	</g>
</g>
</svg>
