<?xml version="1.0" encoding="iso-8859-1"?>
<!-- Generator: Adobe Illustrator 22.0.1, SVG Export Plug-In . SVG Version: 6.00 Build 0)  -->
<svg version="1.1" xmlns="http://www.w3.org/2000/svg" xmlns:xlink="http://www.w3.org/1999/xlink" x="0px" y="0px"
	 viewBox="0 0 512 512" style="enable-background:new 0 0 512 512;" xml:space="preserve">
<g id="BULINE">
	<path style="fill:#F9BD38;" d="M512,256c0,70.65-28.63,134.63-74.91,180.95c-10.48,10.48-21.86,20.06-34.01,28.6
		C361.46,494.82,310.74,512,256,512c-15.24,0-30.17-1.33-44.67-3.89c-10.15-1.78-20.09-4.16-29.78-7.11
		c-26.24-7.96-50.7-20.03-72.63-35.45c-10.65-7.48-20.71-15.76-30.08-24.75C30.25,394.21,0,328.63,0,256C0,114.62,114.62,0,256,0
		S512,114.62,512,256z"/>
</g>
<g id="Icons">
	<g id="XMLID_125_">
		<path id="XMLID_127_" style="fill:#48507C;" d="M437.09,375.32v61.63c-10.48,10.48-21.86,20.06-34.01,28.6H108.92
			c-10.65-7.48-20.71-15.76-30.08-24.75v-65.48H437.09z"/>
		<polygon id="XMLID_951_" style="fill:#3E436D;" points="437.084,376.079 78.849,376.079 112.967,319.595 404.104,319.595 		"/>
		<circle id="XMLID_947_" style="fill:#383D5E;" cx="257.966" cy="420.432" r="27.294"/>
		<circle id="XMLID_946_" style="fill:#32314B;" cx="257.966" cy="420.432" r="15.922"/>
		<g id="XMLID_944_">
			<path id="XMLID_129_" style="fill:#FFFFFF;" d="M266.5,420.43c0,4.8-0.4,9.52-1.14,14.11c-0.71,4.4-1.76,8.68-3.11,12.84
				c-2.06,6.41-4.86,12.5-8.28,18.17c-8.08,13.42-25.94,31.74-42.64,42.56c-10.15-1.78-20.09-4.16-29.78-7.11
				c19.43-6.02,41.09-22.87,51.56-35.45c5.15-6.2,9.27-13.29,12.08-21.01c1.35-3.68,2.39-7.51,3.11-11.45
				c0.74-4.11,1.13-8.34,1.13-12.66c0-4.71,3.82-8.53,8.54-8.53C262.68,411.9,266.5,415.72,266.5,420.43z"/>
		</g>
		<path id="XMLID_943_" style="fill:#FE4583;" d="M200.598,357.504h-65.961v-25.02c0-8.375,6.789-15.163,15.163-15.163h35.634
			c8.375,0,15.163,6.789,15.163,15.163V357.504z"/>
		<path id="XMLID_942_" style="fill:#CE3C74;" d="M200.598,340.918v16.672h-65.961v-25.02c0-8.372,6.787-15.16,15.16-15.16h2.275
			v3.368c0,11.122,9.016,20.139,20.139,20.139H200.598z"/>
		<rect id="XMLID_940_" x="125.161" y="349.543" style="fill:#FFFFFF;" width="84.915" height="14.316"/>
		<path id="XMLID_939_" style="fill:#FE4583;" d="M388.923,357.504h-65.961v-25.02c0-8.375,6.789-15.163,15.163-15.163h35.634
			c8.374,0,15.163,6.789,15.163,15.163V357.504z"/>
		<path id="XMLID_938_" style="fill:#CE3C74;" d="M388.923,340.918v16.672h-65.961v-25.02c0-8.372,6.787-15.16,15.16-15.16h2.275
			v3.368c0,11.122,9.016,20.139,20.139,20.139H388.923z"/>
		<rect id="XMLID_937_" x="313.485" y="349.543" style="fill:#FFFFFF;" width="84.915" height="14.316"/>
		<g id="XMLID_128_">
			<path id="XMLID_950_" style="fill:#FFFFFF;" d="M280.83,141.937v196.912c0,6.307-2.563,12.024-6.698,16.169
				c-4.135,4.135-9.852,6.698-16.169,6.698c-12.624,0-22.867-10.242-22.867-22.867V141.937H280.83z"/>
			<path id="XMLID_949_" style="fill:#C9C9C9;" d="M280.83,183.897v-19.056c-7.059,2.848-14.776,4.411-22.864,4.411v-27.316H235.1
				v22.906c-0.001,0-0.002-0.001-0.003-0.001v19.056c0.001,0,0.002,0.001,0.003,0.001v154.95c0,12.624,10.242,22.867,22.867,22.867
				c4.164,0,8.07-1.115,11.433-3.077c-6.831-3.945-11.433-11.329-11.433-19.789v-150.54
				C266.055,188.308,273.771,186.746,280.83,183.897z"/>
			<circle id="XMLID_936_" style="fill:#FE4583;" cx="257.966" cy="107.955" r="61.296"/>
			<path id="XMLID_935_" style="fill:#CE3C74;" d="M304.488,147.853c-11.233,13.101-27.917,21.4-46.525,21.4
				c-33.853,0-61.293-27.45-61.293-61.302c0-27.259,17.798-50.364,42.409-58.33c-9.213,10.719-14.778,24.658-14.778,39.912
				c0,33.853,27.44,61.293,61.293,61.293C292.187,150.826,298.542,149.787,304.488,147.853z"/>
			<circle id="XMLID_933_" style="fill:#FC7AAC;" cx="280.83" cy="89.535" r="17.861"/>
		</g>
	</g>
</g>
</svg>
