<?xml version="1.0" encoding="iso-8859-1"?>
<!-- Generator: Adobe Illustrator 22.0.1, SVG Export Plug-In . SVG Version: 6.00 Build 0)  -->
<svg version="1.1" xmlns="http://www.w3.org/2000/svg" xmlns:xlink="http://www.w3.org/1999/xlink" x="0px" y="0px"
	 viewBox="0 0 512 512" style="enable-background:new 0 0 512 512;" xml:space="preserve">
<g id="BULINE">
	<circle id="XMLID_1144_" style="fill:#FF50B5;" cx="256" cy="256" r="256"/>
</g>
<g id="Icons">
	<g id="XMLID_1191_">
		<path id="XMLID_1198_" style="fill:#4B4C9B;" d="M365.056,315.194h71.492c6.324,0,11.452-5.128,11.452-11.452V100.289
			c0-6.324-5.128-11.459-11.452-11.459h-286.22c0,0-0.002,0.003-0.003,0.004H78.833c-6.324,0-11.452,5.128-11.452,11.452v203.452
			c0,6.324,5.128,11.459,11.452,11.459h286.22C365.054,315.197,365.055,315.195,365.056,315.194z"/>
		<path id="XMLID_1199_" style="fill:#3E436D;" d="M413.933,228.009v-51.986c0-4.669,3.785-8.454,8.454-8.454h0
			c4.669,0,8.454,3.785,8.454,8.454v51.986c0,4.669-3.785,8.454-8.454,8.454h0C417.718,236.463,413.933,232.678,413.933,228.009z"/>
		<path id="XMLID_1245_" style="fill:#3E436D;" d="M281.698,86.06v2.774h76.969V86.06c0-6.273-5.085-11.358-11.358-11.358h-54.253
			C286.783,74.702,281.698,79.787,281.698,86.06z"/>
		<path id="XMLID_1246_" style="fill:#3E436D;" d="M309.264,317.549v-2.351h-30.283v2.351c0,3.81,3.088,6.898,6.898,6.898h16.487
			C306.175,324.447,309.264,321.359,309.264,317.549z"/>
		
			<rect id="XMLID_1247_" x="145.618" y="62.617" transform="matrix(4.492743e-11 1 -1 4.492743e-11 460.8165 -56.7848)" style="fill:#7CCAFD;" width="226.364" height="278.798"/>
		<path id="XMLID_1248_" style="fill:#41C2E5;" d="M188.989,315.2H119.4V88.832h278.798v71.396H273.034
			c-46.417,0-84.045,37.628-84.045,84.045V315.2z"/>
		<circle id="XMLID_1254_" style="fill:#3E436D;" cx="96.545" cy="201.574" r="18.342"/>
		<rect id="XMLID_1266_" x="119.212" y="212.08" style="fill:#4ACE99;" width="278.987" height="103.118"/>
		<rect id="XMLID_1269_" x="36.419" y="371.746" style="fill:#FCB5A9;" width="5.12" height="0.002"/>
		<path id="XMLID_1270_" style="fill:#FCB5A9;" d="M158.42,418.29v74.45c-28.74-11.86-54.84-28.79-77.2-49.69
			c7.64-14.71,23.01-24.76,40.72-24.76H158.42z"/>
		<path id="XMLID_1271_" style="fill:#F78F8B;" d="M180.42,315.2v36.01c0,16.95-8.76,31.86-22,40.45v26.63h-36.48
			c-17.71,0-33.08,10.05-40.72,24.76c-17.37-16.24-32.49-34.88-44.8-55.38v-15.92h5.12c1.54,3.14,3.39,6.1,5.51,8.83
			c0,0,0,0.01,0.01,0.01c8.89,11.4,22.56,18.9,38,19.46c0.62,0.02,1.24,0.03,1.86,0.03c2.9,0,5.73-0.26,8.5-0.73
			c0.5-0.09,1.01-0.18,1.51-0.28c15.58-3.13,28.57-13.43,35.37-27.32c0.05-0.1,0.1-0.2,0.14-0.31c0.08-0.15,0.16-0.31,0.23-0.47
			c0.01-0.02,0.02-0.04,0.03-0.06c1.14-2.43,2.08-4.97,2.81-7.59c0.13-0.43,0.25-0.85,0.35-1.29c0.01-0.02,0.01-0.05,0.02-0.08
			c0.12-0.42,0.22-0.84,0.31-1.28c0.1-0.44,0.2-0.89,0.28-1.34c0.19-0.95,0.35-1.91,0.48-2.88c0.06-0.41,0.11-0.82,0.15-1.23
			c0.06-0.46,0.1-0.93,0.14-1.39c0.12-1.4,0.18-2.82,0.18-4.25c0-13.29-5.15-25.37-13.54-34.38H180.42z"/>
		<path id="XMLID_1292_" style="fill:#FCB5A9;" d="M151.14,216.15c-2.9-1.93-6.02-3.28-9.22-4.07c-4.7-1.17-9.58-1.14-14.2,0
			c-2.91,0.72-5.72,1.88-8.32,3.47c-0.06,0.03-0.13,0.07-0.19,0.12c-3.47,2.15-6.55,5.07-8.97,8.7l-6.82,10.26L67.38,288.8V138.85
			c-17.9,5.32-30.96,21.89-30.96,41.51v191.39h4.84c1.61,3.12,3.55,6.08,5.79,8.83c0,0,0,0.01,0.01,0.01
			c9.08,11.18,22.9,18.87,38,19.46c0.62,0.02,1.24,0.03,1.86,0.03c2.9,0,5.73-0.26,8.5-0.73c0.5-0.09,1.01-0.18,1.51-0.28
			c15.29-3.12,28.41-13.83,35.33-27.32h0.04c0.05-0.1,0.1-0.2,0.14-0.31c0.04-0.1,0.09-0.2,0.14-0.3c0.03-0.06,0.06-0.11,0.09-0.17
			c0.01-0.02,0.02-0.04,0.03-0.06h-0.02c1.14-2.44,2.09-4.97,2.83-7.59c0.12-0.43,0.24-0.86,0.35-1.29
			c0.01-0.02,0.01-0.05,0.02-0.08c0.11-0.42,0.21-0.85,0.31-1.28c0.1-0.45,0.19-0.89,0.28-1.34c0.19-0.95,0.35-1.91,0.48-2.88
			c0.06-0.41,0.11-0.82,0.15-1.23c0.06-0.46,0.1-0.93,0.14-1.39c0.12-1.4,0.18-2.82,0.18-4.25c0-13.29-5.15-25.37-13.54-34.38
			c-0.62-0.67-1.25-1.32-1.9-1.95l34.04-51.17l3.34-5.03C168.39,243.49,164.71,225.17,151.14,216.15z"/>
		<path id="XMLID_1294_" style="fill:#FFFFFF;" d="M134.73,252.38l-10.435-6.211c-4.937-2.938-6.556-9.322-3.618-14.259l5.744-9.651
			c1.045-1.756,3.316-2.332,5.072-1.287l21.952,13.067c1.756,1.045,2.332,3.316,1.287,5.072l-5.744,9.651
			C146.051,253.699,139.667,255.319,134.73,252.38z"/>
		<path id="XMLID_1295_" style="fill:#FCB5A9;" d="M433.66,440.32c-21.85,21.06-47.43,38.27-75.66,50.55v-72.58h36.47
			C411.07,418.29,425.61,427.11,433.66,440.32z"/>
		<path id="XMLID_1296_" style="fill:#F78F8B;" d="M480,371.75v8.27c-12.41,22.37-28.07,42.68-46.34,60.3
			c-8.05-13.21-22.59-22.03-39.19-22.03H358v-26.63c-13.24-8.59-22-23.5-22-40.45V315.2h56.54c-8.4,9.01-13.54,21.09-13.54,34.38
			c0,1.43,0.06,2.85,0.18,4.25c0.04,0.46,0.08,0.93,0.14,1.39c0.04,0.41,0.09,0.82,0.15,1.23c0.13,0.97,0.29,1.93,0.48,2.88
			c0.08,0.45,0.18,0.9,0.28,1.34c0.09,0.44,0.19,0.86,0.31,1.28c0.01,0.03,0.01,0.06,0.02,0.08c0.1,0.44,0.22,0.86,0.35,1.29
			c0.73,2.62,1.67,5.16,2.81,7.59c0.01,0.02,0.02,0.04,0.03,0.06c0.07,0.16,0.15,0.32,0.23,0.47c0.04,0.11,0.09,0.21,0.14,0.31
			c6.8,13.89,19.79,24.19,35.37,27.32c0.5,0.1,1.01,0.19,1.51,0.28c2.76,0.47,5.6,0.73,8.5,0.73c0.62,0,1.24-0.01,1.86-0.03
			c15.44-0.56,29.11-8.06,38-19.46c0.01,0,0.01-0.01,0.01-0.01c2.12-2.73,3.97-5.69,5.51-8.83H480z"/>
		<path id="XMLID_1297_" style="fill:#FCB5A9;" d="M449.04,138.85V288.8l-1.04-1.56l-35-52.61l-6.82-10.26
			c-2.18-3.28-4.91-5.98-7.98-8.06c-2.91-1.98-6.14-3.4-9.5-4.23c-4.62-1.14-9.5-1.17-14.2,0c-3.2,0.79-6.32,2.14-9.22,4.07
			c-8.54,5.68-13.17,15.04-13.17,24.58c0,5.62,1.6,11.3,4.95,16.32l3.34,5.03l34.04,51.17c-0.65,0.63-1.27,1.27-1.89,1.94
			l-0.01,0.01c-8.4,9.01-13.54,21.09-13.54,34.38c0,1.43,0.06,2.85,0.18,4.25c0.04,0.46,0.08,0.93,0.14,1.39
			c0.04,0.41,0.09,0.82,0.15,1.23c0.13,0.97,0.29,1.93,0.48,2.88c0.09,0.45,0.18,0.89,0.28,1.34c0.1,0.43,0.2,0.86,0.31,1.28
			c0.01,0.03,0.01,0.06,0.02,0.08c0.11,0.43,0.23,0.86,0.35,1.29c0.74,2.62,1.69,5.15,2.83,7.59h-0.02
			c0.01,0.02,0.02,0.04,0.03,0.06c0.03,0.06,0.06,0.11,0.09,0.17c0.05,0.1,0.1,0.2,0.14,0.3c0.04,0.11,0.09,0.21,0.14,0.31h0.04
			c6.92,13.49,20.04,24.2,35.33,27.32c0.5,0.1,1.01,0.19,1.51,0.28c2.76,0.47,5.6,0.73,8.5,0.73c0.62,0,1.24-0.01,1.86-0.03
			c15.1-0.59,28.92-8.28,38-19.46c0.01,0,0.01-0.01,0.01-0.01c2.24-2.75,4.18-5.71,5.79-8.83H480V180.36
			C480,160.74,466.94,144.17,449.04,138.85z"/>
		<path id="XMLID_1299_" style="fill:#FFFFFF;" d="M381.689,252.38l10.435-6.211c4.937-2.938,6.556-9.322,3.618-14.259l-5.744-9.651
			c-1.045-1.756-3.316-2.332-5.072-1.287l-21.952,13.067c-1.756,1.045-2.332,3.316-1.287,5.072l5.744,9.651
			C370.368,253.699,376.752,255.319,381.689,252.38z"/>
		<path id="XMLID_1300_" style="fill:#00B764;" d="M233.753,247.079h-42.668c-5.891,0-10.666-4.775-10.666-10.666v0
			c0-5.891,4.775-10.666,10.666-10.666h42.668c5.891,0,10.666,4.775,10.666,10.666v0
			C244.419,242.303,239.644,247.079,233.753,247.079z"/>
		<path id="XMLID_1301_" style="fill:#00B764;" d="M330.598,292.413H287.93c-5.891,0-10.666-4.775-10.666-10.666l0,0
			c0-5.891,4.775-10.666,10.666-10.666h42.668c5.891,0,10.666,4.775,10.666,10.666l0,0
			C341.264,287.637,336.488,292.413,330.598,292.413z"/>
		<g id="XMLID_1302_">
			<path id="XMLID_1303_" style="fill:#DD1B1B;" d="M303.28,160.23c-0.05-1.59-0.18-3.16-0.38-4.71
				c-2.95-23.04-21.06-41.41-43.98-44.73c-2.45-0.37-4.95-0.55-7.5-0.55s-5.05,0.18-7.5,0.55c-22.92,3.32-41.03,21.69-43.98,44.73
				c-0.28,2.17-0.42,4.38-0.42,6.62c0,2.85,0.23,5.65,0.68,8.38c1.21,7.41,3.99,14.29,7.99,20.3c6.78,10.19,17.06,17.85,29.12,21.26
				c2.15,0.61,4.35,1.08,6.61,1.4c2.45,0.37,4.95,0.55,7.5,0.55s5.05-0.18,7.5-0.55c2.26-0.32,4.46-0.79,6.61-1.4
				c19.17-5.42,33.86-21.59,37.11-41.56c0.45-2.73,0.68-5.53,0.68-8.38C303.32,161.5,303.31,160.86,303.28,160.23z M258.92,198.26
				c-2.42,0.51-4.93,0.77-7.5,0.77s-5.08-0.26-7.5-0.77c-10.71-2.21-19.74-9.09-24.85-18.4c-1.6-2.9-2.82-6.04-3.59-9.34
				c-0.63-2.69-0.96-5.5-0.96-8.38c0-2.26,0.2-4.47,0.6-6.62c2.68-14.76,14.16-26.48,28.8-29.51c2.42-0.51,4.93-0.77,7.5-0.77
				s5.08,0.26,7.5,0.77c14.63,3.03,26.12,14.75,28.8,29.51c0.29,1.54,0.47,3.11,0.55,4.71c0.03,0.63,0.05,1.27,0.05,1.91
				c0,2.88-0.33,5.69-0.96,8.38C284.11,184.44,272.96,195.35,258.92,198.26z"/>
		</g>
		<g id="XMLID_1307_">
			<path id="XMLID_1308_" style="fill:#F9BD38;" d="M251.419,144.556c-4.142,0-7.5-3.358-7.5-7.5V99.002c0-4.142,3.358-7.5,7.5-7.5
				c4.143,0,7.5,3.358,7.5,7.5v38.054C258.919,141.198,255.562,144.556,251.419,144.556z"/>
		</g>
		<g id="XMLID_1309_">
			<path id="XMLID_1310_" style="fill:#F9BD38;" d="M251.419,234.544c-4.142,0-7.5-3.358-7.5-7.5v-38.055c0-4.142,3.358-7.5,7.5-7.5
				c4.143,0,7.5,3.358,7.5,7.5v38.055C258.919,231.186,255.562,234.544,251.419,234.544z"/>
		</g>
		<g id="XMLID_1311_">
			<path id="XMLID_1312_" style="fill:#F9BD38;" d="M315.44,170.523h-38.054c-4.143,0-7.5-3.358-7.5-7.5s3.357-7.5,7.5-7.5h38.054
				c4.143,0,7.5,3.358,7.5,7.5S319.582,170.523,315.44,170.523z"/>
		</g>
		<g id="XMLID_1313_">
			<path id="XMLID_1314_" style="fill:#F9BD38;" d="M225.453,170.523h-38.054c-4.142,0-7.5-3.358-7.5-7.5s3.358-7.5,7.5-7.5h38.054
				c4.142,0,7.5,3.358,7.5,7.5S229.595,170.523,225.453,170.523z"/>
		</g>
		<path id="XMLID_1315_" style="fill:#FFFFFF;" d="M381.393,128.638c0-4.294-3.481-7.775-7.775-7.775
			c-0.203,0-0.404,0.01-0.603,0.026c-1.194-2.882-4.033-4.91-7.346-4.91c-1.476,0-2.858,0.404-4.042,1.105
			c-1.072-3.847-4.599-6.67-8.787-6.67c-5.039,0-9.124,4.085-9.124,9.124c0,0.451,0.034,0.894,0.097,1.328
			c-0.033,0-0.065-0.002-0.097-0.002c-4.294,0-7.775,3.481-7.775,7.775c0,4.294,3.481,7.775,7.775,7.775h30.04v-0.003
			C377.986,136.336,381.393,132.886,381.393,128.638z"/>
		<path id="XMLID_1316_" style="fill:#FFFFFF;" d="M354.717,194.241c0-4.294-3.481-7.775-7.775-7.775
			c-0.203,0-0.404,0.01-0.603,0.026c-1.194-2.882-4.033-4.91-7.346-4.91c-1.476,0-2.858,0.404-4.042,1.105
			c-1.072-3.847-4.599-6.67-8.787-6.67c-5.039,0-9.124,4.085-9.124,9.124c0,0.451,0.034,0.894,0.097,1.328
			c-0.033,0-0.065-0.002-0.097-0.002c-4.294,0-7.775,3.481-7.775,7.775c0,4.294,3.481,7.775,7.775,7.775h30.04v-0.003
			C351.309,201.939,354.717,198.489,354.717,194.241z"/>
		<path id="XMLID_1317_" style="fill:#FFFFFF;" d="M189.383,123.254c0-4.294-3.481-7.775-7.775-7.775
			c-0.203,0-0.404,0.01-0.603,0.026c-1.194-2.882-4.033-4.91-7.346-4.91c-1.476,0-2.858,0.404-4.042,1.105
			c-1.072-3.847-4.599-6.67-8.787-6.67c-5.039,0-9.124,4.085-9.124,9.124c0,0.451,0.034,0.894,0.097,1.328
			c-0.033,0-0.065-0.002-0.097-0.002c-4.294,0-7.775,3.481-7.775,7.775c0,4.294,3.481,7.775,7.775,7.775h30.04v-0.003
			C185.976,130.952,189.383,127.502,189.383,123.254z"/>
		<path id="XMLID_1318_" style="fill:#3E436D;" d="M358.667,317.549v-2.351h-30.283v2.351c0,3.81,3.088,6.898,6.898,6.898h16.487
			C355.578,324.447,358.667,321.359,358.667,317.549z"/>
	</g>
</g>
</svg>
