<?xml version="1.0" encoding="iso-8859-1"?>
<!-- Generator: Adobe Illustrator 22.0.1, SVG Export Plug-In . SVG Version: 6.00 Build 0)  -->
<svg version="1.1" xmlns="http://www.w3.org/2000/svg" xmlns:xlink="http://www.w3.org/1999/xlink" x="0px" y="0px"
	 viewBox="0 0 512 512" style="enable-background:new 0 0 512 512;" xml:space="preserve">
<g id="BULINE">
	<circle id="XMLID_108_" style="fill:#4B4C9B;" cx="256" cy="256" r="256"/>
</g>
<g id="Icons">
	<g id="XMLID_218_">
		<path id="XMLID_235_" style="fill:#FFFFFF;" d="M138.004,454.661L55.65,372.307c-5.785-5.785-5.785-15.165,0-20.95L349.669,57.339
			c5.785-5.785,15.165-5.785,20.95,0l82.354,82.354c5.785,5.785,5.785,15.165,0,20.95L158.954,454.661
			C153.169,460.446,143.79,460.446,138.004,454.661z"/>
		<path id="XMLID_234_" style="fill:#CCCCCC;" d="M182.013,431.602l-23.059,23.059c-5.785,5.785-15.165,5.785-20.95,0L55.65,372.307
			c-5.785-5.785-5.785-15.165,0-20.95L349.669,57.339c5.785-5.785,15.165-5.785,20.95,0l25.645,25.645l-234.63,234.63
			c-25.849,25.849-25.849,67.76,0,93.609L182.013,431.602z"/>
		<path id="XMLID_233_" style="fill:#3E436D;" d="M382.135,179.014l-9.568-9.568c-2.171-2.171-2.171-5.691,0-7.862l9.568-9.568
			c2.171-2.171,2.171-5.691,0-7.862l-15.977-15.977c-2.171-2.171-5.691-2.171-7.862,0l-9.568,9.568
			c-2.171,2.171-5.691,2.171-7.862,0l-9.568-9.568c-2.171-2.171-5.691-2.171-7.862,0l-15.977,15.977
			c-2.171,2.171-2.171,5.691,0,7.862l9.568,9.568c2.171,2.171,2.171,5.691,0,7.862l-9.568,9.568c-2.171,2.171-2.171,5.691,0,7.862
			l15.977,15.977c2.171,2.171,5.691,2.171,7.862,0l9.568-9.568c2.171-2.171,5.691-2.171,7.862,0l9.568,9.568
			c2.171,2.171,5.691,2.171,7.862,0l15.977-15.977C384.306,184.705,384.306,181.185,382.135,179.014z"/>
		<path id="XMLID_232_" style="fill:#32314B;" d="M323.353,202.768l-15.893-15.893c-2.167-2.167-2.174-5.685,0-7.86l9.565-9.565
			c2.174-2.174,2.174-5.7,0.007-7.867l-9.572-9.572c-2.167-2.167-2.174-5.685,0-7.86l15.972-15.972
			c2.174-2.174,5.7-2.174,7.867-0.007l9.572,9.572c2.167,2.167,5.685,2.174,7.86,0l9.565-9.565c2.174-2.174,5.693-2.167,7.86,0
			l15.893,15.893c-2.167-2.167-5.685-2.174-7.86,0l-9.565,9.565c-2.174,2.174-5.693,2.167-7.86,0l-9.572-9.572
			c-2.167-2.167-5.693-2.167-7.867,0.007l-15.972,15.972c-2.174,2.174-2.167,5.693,0,7.86l9.572,9.572
			c2.167,2.167,2.167,5.693-0.007,7.867l-9.565,9.565C321.179,197.082,321.186,200.6,323.353,202.768z"/>
		<circle id="XMLID_231_" style="fill:#EA2D88;" cx="211.346" cy="240.266" r="16.006"/>
		<circle id="XMLID_229_" style="fill:#FE4583;" cx="211.346" cy="240.266" r="11.121"/>
		<circle id="XMLID_228_" style="fill:#EA2D88;" cx="271.722" cy="300.642" r="16.006"/>
		<circle id="XMLID_227_" style="fill:#FE4583;" cx="271.722" cy="300.642" r="11.121"/>
		<circle id="XMLID_226_" style="fill:#EA2D88;" cx="241.057" cy="269.977" r="16.006"/>
		<circle id="XMLID_225_" style="fill:#FE4583;" cx="241.057" cy="269.977" r="11.121"/>
		<circle id="XMLID_224_" style="fill:#F9BD38;" cx="282.967" cy="227.344" r="30.386"/>
		<circle id="XMLID_223_" style="fill:#F8D572;" cx="282.967" cy="227.344" r="20.123"/>
		<circle id="XMLID_222_" style="fill:#32314B;" cx="194.568" cy="315.743" r="20.123"/>
		<circle id="XMLID_221_" style="fill:#3E436D;" cx="194.568" cy="315.743" r="13.326"/>
		<circle id="XMLID_220_" style="fill:#32314B;" cx="141.078" cy="369.233" r="20.123"/>
		<circle id="XMLID_219_" style="fill:#3E436D;" cx="141.078" cy="369.233" r="13.326"/>
	</g>
</g>
</svg>
