<?xml version="1.0" encoding="iso-8859-1"?>
<!-- Generator: Adobe Illustrator 22.0.1, SVG Export Plug-In . SVG Version: 6.00 Build 0)  -->
<svg version="1.1" xmlns="http://www.w3.org/2000/svg" xmlns:xlink="http://www.w3.org/1999/xlink" x="0px" y="0px"
	 viewBox="0 0 512 512" style="enable-background:new 0 0 512 512;" xml:space="preserve">
<g id="BULINE">
	<circle id="XMLID_296_" style="fill:#F9BD38;" cx="256" cy="256" r="256"/>
</g>
<g id="Icons">
	<g id="XMLID_1414_">
		<path id="XMLID_1452_" style="fill:#4F4F74;" d="M441.125,87.481H70.597c-6.562,0-11.882-5.32-11.882-11.882V45.882
			C58.716,39.32,64.035,34,70.597,34h370.527c6.562,0,11.882,5.32,11.882,11.882v29.717
			C453.007,82.161,447.687,87.481,441.125,87.481z"/>
		<path id="XMLID_1451_" style="fill:#3E436D;" d="M180.705,87.481H70.597c-6.565,0-11.881-5.317-11.881-11.881V45.892
			C58.716,39.327,64.032,34,70.597,34h110.108c-6.565,0-11.881,5.327-11.881,11.892V75.6
			C168.823,82.164,174.14,87.481,180.705,87.481z"/>
		<rect id="XMLID_1450_" x="77.067" y="87.481" style="fill:#CF8AFA;" width="357.588" height="255.52"/>
		<polygon id="XMLID_1449_" style="fill:#4F4F74;" points="460.871,452.06 50.851,452.06 77.067,343.001 434.655,343.001 		"/>
		<path id="XMLID_1448_" style="fill:#3E436D;" d="M444.743,384.949H217.135c-33.564,0-62.754,23.006-70.597,55.642l-2.757,11.472
			H50.851l26.216-109.059h357.588L444.743,384.949z"/>
		<rect id="XMLID_1447_" x="50.851" y="452.06" style="fill:#3E436D;" width="410.021" height="33.906"/>
		<polygon id="XMLID_1446_" style="fill:#B47CDD;" points="434.655,270.122 434.655,343.003 77.067,343.003 77.067,87.48 
			171.875,87.48 171.875,270.122 		"/>
		<path id="XMLID_1445_" style="fill:#7CCAFD;" d="M395.541,321.329H116.181c-7.413,0-13.423-6.01-13.423-13.423v-187.51
			c0-7.413,6.01-13.423,13.423-13.423h279.359c7.413,0,13.423,6.01,13.423,13.423v187.51
			C408.963,315.32,402.954,321.329,395.541,321.329z"/>
		<path id="XMLID_1444_" style="fill:#74BBE2;" d="M408.963,270.122v37.783c0,7.413-6.01,13.423-13.423,13.423H116.181
			c-7.413,0-13.423-6.01-13.423-13.423V120.397c0-7.413,6.01-13.423,13.423-13.423h55.694v62.442
			c0,55.619,45.088,100.707,100.707,100.707H408.963z"/>
		<rect id="XMLID_1442_" x="136.892" y="331.816" style="fill:#27273D;" width="15.38" height="76.202"/>
		<rect id="XMLID_1441_" x="359.439" y="331.816" style="fill:#27273D;" width="15.38" height="76.202"/>
		<path id="XMLID_1440_" style="fill:#38C689;" d="M168.643,428.291h-48.122c-1.645,0-2.978-1.333-2.978-2.978v-14.318
			c0-1.645,1.333-2.978,2.978-2.978h48.122c1.645,0,2.978,1.333,2.978,2.978v14.318
			C171.621,426.958,170.288,428.291,168.643,428.291z"/>
		<path id="XMLID_192_" style="fill:#00B764;" d="M127.544,425.313v-14.318c0-1.645,1.333-2.978,2.978-2.978h-10
			c-1.645,0-2.978,1.333-2.978,2.978v14.318c0,1.645,1.333,2.978,2.978,2.978h10C128.877,428.291,127.544,426.958,127.544,425.313z"
			/>
		<path id="XMLID_1439_" style="fill:#38C689;" d="M391.19,428.291h-48.122c-1.645,0-2.978-1.333-2.978-2.978v-14.318
			c0-1.645,1.333-2.978,2.978-2.978h48.122c1.645,0,2.978,1.333,2.978,2.978v14.318C394.167,426.958,392.834,428.291,391.19,428.291
			z"/>
		<path id="XMLID_193_" style="fill:#00B764;" d="M350.09,425.313v-14.318c0-1.645,1.333-2.978,2.978-2.978h-10
			c-1.645,0-2.978,1.333-2.978,2.978v14.318c0,1.645,1.333,2.978,2.978,2.978h10C351.424,428.291,350.09,426.958,350.09,425.313z"/>
		<path id="XMLID_1438_" style="fill:#F9BD38;" d="M231.113,428.291h-38.45v-11.052c0-5.093,4.129-9.222,9.222-9.222h20.006
			c5.093,0,9.222,4.129,9.222,9.222V428.291z"/>
		<path id="XMLID_1437_" style="fill:#F9BD38;" d="M315.745,428.291h-38.45v-11.052c0-5.093,4.129-9.222,9.222-9.222h20.006
			c5.093,0,9.222,4.129,9.222,9.222V428.291z"/>
		<rect id="XMLID_1436_" x="102.759" y="280.432" style="fill:#00B764;" width="77.169" height="40.896"/>
		<rect id="XMLID_1435_" x="180.212" y="280.432" style="fill:#38C689;" width="77.169" height="40.896"/>
		<rect id="XMLID_1434_" x="256.723" y="280.432" style="fill:#00B764;" width="77.169" height="40.896"/>
		<rect id="XMLID_1433_" x="331.795" y="280.432" style="fill:#4ACE99;" width="77.169" height="40.896"/>
		<circle id="XMLID_1432_" style="fill:#FE4583;" cx="144.582" cy="325.092" r="25.414"/>
		<path id="XMLID_205_" style="fill:#FC3268;" d="M129.169,325.092c0-12.324,8.773-22.596,20.414-24.919
			c-1.617-0.323-3.288-0.495-5-0.495c-14.036,0-25.414,11.378-25.414,25.414s11.378,25.414,25.414,25.414
			c1.712,0,3.383-0.172,5-0.495C137.942,347.689,129.169,337.416,129.169,325.092z"/>
		<circle id="XMLID_1431_" style="fill:#FE4583;" cx="367.129" cy="325.092" r="25.414"/>
		<path id="XMLID_206_" style="fill:#FC3268;" d="M351.715,325.092c0-12.324,8.773-22.596,20.414-24.919
			c-1.617-0.323-3.288-0.495-5-0.495c-14.036,0-25.414,11.378-25.414,25.414s11.378,25.414,25.414,25.414
			c1.712,0,3.383-0.172,5-0.495C360.488,347.689,351.715,337.416,351.715,325.092z"/>
		<rect id="XMLID_1430_" x="144.582" y="219.726" style="fill:#A85C3B;" width="59.266" height="60.706"/>
		<path id="XMLID_1429_" style="fill:#934E37;" d="M203.85,219.724v17.135h-18.524c-11.083,0-20.067,8.984-20.067,20.067v23.505
			h-20.679v-60.706H203.85z"/>
		<path id="XMLID_1428_" style="fill:#A04830;" d="M207.035,198.288h-65.29c-2.68,0-4.853,2.173-4.853,4.853v11.733
			c0,2.68,2.173,4.853,4.853,4.853h65.29c2.68,0,4.853-2.173,4.853-4.853v-11.733C211.888,200.461,209.715,198.288,207.035,198.288z
			"/>
		<rect id="XMLID_1427_" x="304.083" y="219.726" style="fill:#A85C3B;" width="59.266" height="60.706"/>
		<path id="XMLID_1426_" style="fill:#934E37;" d="M363.351,219.724v17.135h-18.523c-11.083,0-20.067,8.984-20.067,20.067v23.505
			h-20.679v-60.706H363.351z"/>
		<path id="XMLID_1425_" style="fill:#A04830;" d="M366.536,198.288h-65.29c-2.68,0-4.853,2.173-4.853,4.853v11.733
			c0,2.68,2.173,4.853,4.853,4.853h65.29c2.68,0,4.853-2.173,4.853-4.853v-11.733C371.389,200.461,369.216,198.288,366.536,198.288z
			"/>
		<circle id="XMLID_1424_" style="fill:#FE4583;" cx="249.482" cy="157.309" r="29.001"/>
		<circle id="XMLID_1423_" style="fill:#FFFFFF;" cx="233.971" cy="157.309" r="6.379"/>
		<circle id="XMLID_1422_" style="fill:#FFFFFF;" cx="264.993" cy="157.309" r="6.379"/>
		<circle id="XMLID_1421_" style="fill:#FFFFFF;" cx="249.482" cy="141.798" r="6.379"/>
		<circle id="XMLID_1420_" style="fill:#FFFFFF;" cx="249.482" cy="172.82" r="6.379"/>
		<circle id="XMLID_1419_" style="fill:#F8D572;" cx="111.95" cy="60.74" r="16.778"/>
		<circle id="XMLID_1418_" style="fill:#F8D572;" cx="184.233" cy="60.74" r="16.778"/>
		<circle id="XMLID_1417_" style="fill:#F8D572;" cx="256.516" cy="60.74" r="16.778"/>
		<circle id="XMLID_1416_" style="fill:#F8D572;" cx="328.8" cy="60.74" r="16.778"/>
		<circle id="XMLID_1415_" style="fill:#F8D572;" cx="401.083" cy="60.74" r="16.778"/>
	</g>
</g>
</svg>
