<svg xmlns="http://www.w3.org/2000/svg" viewBox="0 0 272.74 421.53"><defs><style>.cls-1{fill:#ac60fc;}.cls-2{fill:#9b5eea;}.cls-3{fill:#27273d;}.cls-4{fill:#4ace99;}.cls-5{fill:#38c689;}.cls-6{fill:#32314b;}.cls-7{fill:#954cf7;}.cls-8{fill:#fc3268;}.cls-9{fill:#f8d572;}.cls-10{fill:#94edc7;}</style></defs><title>Asset 4</title><g id="Layer_2" data-name="Layer 2"><g id="Icons"><path class="cls-1" d="M12.32,0H260.41a12.32,12.32,0,0,1,12.32,12.32V357.82A63.71,63.71,0,0,1,209,421.53H12.32A12.32,12.32,0,0,1,0,409.21V12.32A12.32,12.32,0,0,1,12.32,0Z"/><path class="cls-2" d="M272.74,338v19.87A63.72,63.72,0,0,1,209,421.53H12.32A12.33,12.33,0,0,1,0,409.2V12.33A12.33,12.33,0,0,1,12.32,0H82.91V325.63A12.32,12.32,0,0,0,95.23,338Z"/><path class="cls-3" d="M35.32,34.18H237.41a9.68,9.68,0,0,1,9.68,9.68v137a11.71,11.71,0,0,1-11.71,11.71H35.32a9.68,9.68,0,0,1-9.68-9.68V43.87A9.68,9.68,0,0,1,35.32,34.18Z"/><rect class="cls-4" x="43.64" y="49.09" width="185.46" height="128.28" rx="7.09"/><path class="cls-5" d="M229.1,138.46v31.82a7.1,7.1,0,0,1-7.09,7.1H50.73a7.09,7.09,0,0,1-7.09-7.1V56.18a7.09,7.09,0,0,1,7.09-7.09h54v82.28a7.08,7.08,0,0,0,7.09,7.09Z"/><path class="cls-3" d="M102.5,265.83H91.69a6.41,6.41,0,0,1-6.41-6.42V248.6a6.42,6.42,0,0,0-6.42-6.41H55.69a6.41,6.41,0,0,0-6.42,6.41v10.81a6.41,6.41,0,0,1-6.41,6.42H32.05a6.41,6.41,0,0,0-6.41,6.41v23.18a6.41,6.41,0,0,0,6.41,6.41H42.86a6.41,6.41,0,0,1,6.41,6.41v10.81a6.42,6.42,0,0,0,6.42,6.42H78.86a6.43,6.43,0,0,0,6.42-6.42V308.24a6.41,6.41,0,0,1,6.41-6.41H102.5a6.41,6.41,0,0,0,6.41-6.41V272.24A6.41,6.41,0,0,0,102.5,265.83Z"/><circle class="cls-6" cx="67.27" cy="283.83" r="13.09"/><rect class="cls-7" x="183.74" y="255.98" width="42.78" height="88.44" rx="13.24" transform="translate(332.32 -40.42) rotate(54.82)"/><circle class="cls-8" cx="184.97" cy="312.92" r="16"/><circle class="cls-8" cx="221.44" cy="289.69" r="16"/><rect class="cls-7" x="162.58" y="202.38" width="42.78" height="88.44" rx="13.24" transform="translate(279.54 -45.85) rotate(54.82)"/><circle class="cls-9" cx="164.8" cy="258.32" r="16"/><circle class="cls-9" cx="201.28" cy="235.09" r="16"/><rect class="cls-7" x="182.58" y="370.87" width="18.91" height="46.55" rx="9.45" transform="translate(-222.46 251.23) rotate(-45)"/><rect class="cls-3" x="72.63" y="342.92" width="18.91" height="46.55" rx="9.45" transform="translate(399.07 567.09) rotate(135)"/><rect class="cls-3" x="124" y="342.92" width="18.91" height="46.55" rx="9.45" transform="translate(486.77 530.76) rotate(135)"/><rect class="cls-7" x="208.76" y="346.15" width="18.91" height="46.55" rx="9.45" transform="translate(-197.3 262.5) rotate(-45)"/><rect class="cls-7" x="234.22" y="321.42" width="18.91" height="46.55" rx="9.45" transform="translate(-172.36 273.26) rotate(-45)"/><rect class="cls-10" x="136.94" y="66.98" width="25.02" height="25.02"/><rect class="cls-10" x="187.24" y="66.98" width="25.02" height="25.02"/><rect class="cls-10" x="162.22" y="91.9" width="25.02" height="25.02"/></g></g></svg>