<svg xmlns="http://www.w3.org/2000/svg" viewBox="0 0 474.9 339.41"><defs><style>.cls-1{fill:#a85c3b;}.cls-2{fill:#a04830;}.cls-3{fill:#32314b;}.cls-4{fill:#3e436d;}.cls-5{fill:#4ace99;}.cls-6{fill:#38c689;}.cls-7{fill:#dd1b1b;}.cls-8{fill:#fff;}</style></defs><title>Asset 5</title><g id="Layer_2" data-name="Layer 2"><g id="Icons"><path class="cls-1" d="M16.76,181.11H74.49a0,0,0,0,1,0,0V291.36a0,0,0,0,1,0,0H16.76A16.76,16.76,0,0,1,0,274.6V197.87A16.76,16.76,0,0,1,16.76,181.11Z"/><path class="cls-2" d="M74.5,181.11V291.37H16.76A16.76,16.76,0,0,1,0,274.6v-9.31H0a45.45,45.45,0,0,0,45.45-45.45V181.11Z"/><path class="cls-1" d="M417.17,181.11H474.9a0,0,0,0,1,0,0V291.36a0,0,0,0,1,0,0H417.17a16.76,16.76,0,0,1-16.76-16.76V197.87a16.76,16.76,0,0,1,16.76-16.76Z" transform="translate(875.31 472.48) rotate(-180)"/><path class="cls-2" d="M400.4,181.11V291.37h57.74A16.76,16.76,0,0,0,474.9,274.6v-9.31h0a45.44,45.44,0,0,1-45.44-45.45V181.11Z"/><path class="cls-3" d="M419.22,197.14v19.6a94.1,94.1,0,0,1-94.1,94.1H280.45a16.39,16.39,0,0,1-11.58-4.8L243,280.21a11.06,11.06,0,0,0-15.64,0L201.56,306a16.37,16.37,0,0,1-11.58,4.8H145.31a94.1,94.1,0,0,1-94.1-94.1v-19.6a68.54,68.54,0,0,1,68.54-68.53H350.68A68.53,68.53,0,0,1,419.22,197.14Z"/><path class="cls-4" d="M419.22,225.72v19.6a94.09,94.09,0,0,1-94.1,94.09H280.45a16.38,16.38,0,0,1-11.58-4.79L243,308.78a11.08,11.08,0,0,0-15.64,0l-25.84,25.84A16.36,16.36,0,0,1,190,339.41H145.31a94.09,94.09,0,0,1-94.1-94.09v-19.6a68.54,68.54,0,0,1,68.54-68.53H350.68A68.53,68.53,0,0,1,419.22,225.72Z"/><path class="cls-1" d="M203.56,0h65.92a18.07,18.07,0,0,1,18.07,18.07V128.61a0,0,0,0,1,0,0H185.49a0,0,0,0,1,0,0V18.07A18.07,18.07,0,0,1,203.56,0Z"/><path class="cls-2" d="M287.55,100.22v28.39H185.49V18.07A18.07,18.07,0,0,1,203.56,0h8.75V55.33a44.89,44.89,0,0,0,44.89,44.89Z"/><rect class="cls-5" x="90.14" y="193.69" width="290.53" height="97.68" rx="12.44"/><path class="cls-6" d="M380.67,254.86v24.07a12.43,12.43,0,0,1-12.44,12.43H102.58a12.43,12.43,0,0,1-12.44-12.43v-72.8a12.44,12.44,0,0,1,12.44-12.44h30.76v14.19a47,47,0,0,0,47,47Z"/><circle class="cls-7" cx="116.96" cy="172.55" r="9.68"/><circle class="cls-6" cx="149.73" cy="172.55" r="9.68"/><path class="cls-8" d="M196.82,282a83,83,0,0,1-8.77-.23,2.8,2.8,0,0,1-1.82-1.65q-6.49-12.81-13-25.67-10.31-20.67-10.3-23.4,0-4.49.31-13.52t.32-13.51c0-1.41.38-2.11,1.13-2.11q3.42,0,10.36.28c4.63.19,8.11.29,10.42.29.95,0,1.42.4,1.42,1.19q0,4.62-.65,13.86t-.66,13.87q0,3.52,11.56,25.21,3.14-5.62,7.12-13.83,5.34-11,5.35-13.55,0-4.16-.12-12.49t-.11-12.5c0-1,.17-1.59.51-1.7h1.82q3.14,0,9.48-.32t9.48-.31c1.14,0,1.71.45,1.71,1.37q0,4.38-.15,13.23t-.14,13.29q0,3.53-11.21,26-4.44,8.08-12.81,24.36a5.41,5.41,0,0,1-.77,1.4,4.6,4.6,0,0,1-1.45.25C203.87,282,200.88,282,196.82,282Z"/><path class="cls-8" d="M308.61,281.24q0,.4-1.14.57a97.92,97.92,0,0,1-10.87.34,96.09,96.09,0,0,1-10.13-.34,5.91,5.91,0,0,1-1.42-.28,2.56,2.56,0,0,1-.8-1.14q-.86-2.22-2.51-6.6-2.21-5.7-6.94-16.8c-.68-1.48-2.26-2.29-4.72-2.44,1.13.07-.82.11-5.87.11-.57,0-.85,1-.85,2.9q0,3.87.71,11.56t.71,11.55q0,1-.51,1.14l-1.59.11c-2.24.16-5.73.23-10.48.23a75,75,0,0,1-9.79-.34c-1.1-.23-1.65-.81-1.65-1.76q0-6.27.6-18.9t.6-19q0-24.08-1.09-37.57l-.05-.79c0-.65.56-1.08,1.79-1.31s7-.46,17.39-.68q10.53-.24,16.79-.23,13,0,21.18,5.86,9.27,6.6,9.28,19.07,0,8.31-2.4,13.26T296,249.42c-.87.61-1.31,1.18-1.31,1.71q0-.06,6.95,14.29T308.61,281.24ZM284.7,230.18q0-6.94-4.55-9.62-3.52-2-11-2.05c-3.61,0-5.52.55-5.75,1.65a98.5,98.5,0,0,0-.34,11.16c0,.87,0,2.16.05,3.87s.06,3,.06,3.82c0,.19.61.38,1.82.57a50.26,50.26,0,0,0,7.29.51Q284.71,240.09,284.7,230.18Z"/></g></g></svg>