<svg xmlns="http://www.w3.org/2000/svg" viewBox="0 0 461.86 370.38"><defs><style>.cls-1{fill:#32314b;}.cls-2{fill:#27273d;}.cls-3{fill:#7ccafd;}.cls-4{fill:#41c2e5;}.cls-5{fill:#3e436d;}.cls-6{fill:#ac60fc;}.cls-7{fill:#925adb;}.cls-8{fill:#fe4583;}</style></defs><title>Asset 3</title><g id="Layer_2" data-name="Layer 2"><g id="Icons"><rect class="cls-1" x="137.47" y="86.14" width="324.39" height="219.45" rx="6.52"/><rect class="cls-1" x="251.45" y="305.82" width="93.79" height="39.52"/><rect class="cls-2" x="251.45" y="305.16" width="93.79" height="19.76"/><rect class="cls-3" x="156.27" y="98.67" width="287.36" height="194.4" rx="5.77"/><path class="cls-4" d="M443.63,237.71v49.58a5.77,5.77,0,0,1-5.77,5.77H162a5.77,5.77,0,0,1-5.77-5.77V104.44A5.77,5.77,0,0,1,162,98.67h72a139,139,0,0,0,139,139Z"/><rect class="cls-2" x="232.64" y="345.34" width="131.4" height="25.04" rx="12.52"/><path class="cls-2" d="M15.26,349.05H141a0,0,0,0,1,0,0v14.3a7,7,0,0,1-7,7H22.29a7,7,0,0,1-7-7v-14.3a0,0,0,0,1,0,0Z"/><rect class="cls-5" width="156.27" height="357.53" rx="13.62"/><path class="cls-1" d="M0,203.64l26.09,35.45a30.69,30.69,0,0,1,6,18.21V298a30.74,30.74,0,0,1-8.51,21.23L0,343.9Z"/><path class="cls-1" d="M156.27,203.64l-26.09,35.45a30.69,30.69,0,0,0-6,18.21V298a30.74,30.74,0,0,0,8.51,21.23l23.56,24.64Z"/><path class="cls-1" d="M104.23,25.06h-48a10.57,10.57,0,0,1-10.42-8.82L43.05,0h74.34l-2.74,16.24A10.57,10.57,0,0,1,104.23,25.06Z"/><rect class="cls-6" x="19.68" y="44.77" width="118.26" height="79.4" rx="11.83"/><path class="cls-7" d="M137.94,97.7v14.64a11.82,11.82,0,0,1-11.82,11.83H31.51a11.83,11.83,0,0,1-11.83-11.83V56.59A11.83,11.83,0,0,1,31.51,44.76H51.22V85.87A11.83,11.83,0,0,0,63,97.7Z"/><path class="cls-8" d="M78.81,145.28a37,37,0,1,0,37,37A37.07,37.07,0,0,0,78.81,145.28Zm0,61.38a24.35,24.35,0,0,1-6.33-47.87v21.67a6.34,6.34,0,0,0,12.67,0V158.79a24.35,24.35,0,0,1-6.34,47.87Z"/><rect class="cls-1" x="43.97" y="247.28" width="69.69" height="13.73" rx="6.87"/><rect class="cls-1" x="43.97" y="271.95" width="69.69" height="13.73" rx="6.87"/><rect class="cls-1" x="43.97" y="296.62" width="69.69" height="13.73" rx="6.87"/></g></g></svg>