<svg xmlns="http://www.w3.org/2000/svg" viewBox="0 0 421 213.67"><defs><style>.cls-1{fill:#27273d;}.cls-2{fill:#1f1f30;}.cls-3{fill:#4f4f74;}.cls-4{fill:#3e436d;}.cls-5{fill:#dd1b1b;}.cls-6{fill:#32314b;}.cls-7{fill:#cf8afa;}.cls-8{fill:#fff;}.cls-9{fill:#cbcacc;}.cls-10{fill:#9292d6;}</style></defs><title>Asset 1</title><g id="Layer_2" data-name="Layer 2"><g id="Icons"><rect class="cls-1" width="421" height="213.67" rx="16.29"/><path class="cls-2" d="M421,150.66v46.71a16.29,16.29,0,0,1-16.29,16.29H16.29A16.29,16.29,0,0,1,0,197.37V16.29A16.29,16.29,0,0,1,16.29,0H83.65V134.37a16.29,16.29,0,0,0,16.29,16.29Z"/><rect class="cls-3" x="82" y="15.96" width="257" height="181.74" rx="9.44"/><path class="cls-4" d="M339,139.7v48.56a9.44,9.44,0,0,1-9.44,9.44H91.44A9.44,9.44,0,0,1,82,188.26V25.4A9.44,9.44,0,0,1,91.44,16h60.34V47.38A92.32,92.32,0,0,0,244.1,139.7Z"/><circle class="cls-5" cx="379.25" cy="75.32" r="12"/><circle class="cls-5" cx="379.25" cy="123.22" r="12"/><circle class="cls-5" cx="403.2" cy="99.27" r="12"/><circle class="cls-5" cx="355.3" cy="99.27" r="12"/><circle class="cls-6" cx="40.58" cy="99.27" r="31"/><path class="cls-7" d="M63.4,87.41H56.67a4.22,4.22,0,0,1-4.22-4.23V76.46a4.23,4.23,0,0,0-4.23-4.22H32.94a4.22,4.22,0,0,0-4.22,4.22v6.72a4.22,4.22,0,0,1-4.22,4.23H17.77a4.22,4.22,0,0,0-4.22,4.22v15.28a4.22,4.22,0,0,0,4.22,4.22H24.5a4.22,4.22,0,0,1,4.22,4.22v6.73a4.22,4.22,0,0,0,4.22,4.22H48.22a4.23,4.23,0,0,0,4.23-4.22v-6.73a4.22,4.22,0,0,1,4.22-4.22H63.4a4.22,4.22,0,0,0,4.22-4.22V91.63A4.22,4.22,0,0,0,63.4,87.41Z"/><circle class="cls-8" cx="40.58" cy="178.94" r="19.17"/><circle class="cls-9" cx="40.58" cy="178.94" r="13.07"/><rect class="cls-10" x="239.05" y="38.32" width="25" height="25"/><rect class="cls-10" x="289.05" y="38.32" width="25" height="25"/><rect class="cls-10" x="264.05" y="63.32" width="25" height="25"/></g></g></svg>