<?xml version="1.0" encoding="iso-8859-1"?>
<!-- Generator: Adobe Illustrator 22.0.1, SVG Export Plug-In . SVG Version: 6.00 Build 0)  -->
<svg version="1.1" xmlns="http://www.w3.org/2000/svg" xmlns:xlink="http://www.w3.org/1999/xlink" x="0px" y="0px"
	 viewBox="0 0 512 512" style="enable-background:new 0 0 512 512;" xml:space="preserve">
<g id="BULINE">
	<circle id="XMLID_929_" style="fill:#F9BD38;" cx="256" cy="256" r="256"/>
</g>
<g id="Icons">
	<g id="XMLID_849_">
		<path id="XMLID_1205_" style="fill:#FFFFFF;" d="M408.37,66.35v395.38C365.8,493.31,313.08,512,256,512
			c-57.28,0-110.18-18.82-152.83-50.61V66.35c0-8.53,6.92-15.44,15.46-15.44h274.3C401.46,50.91,408.37,57.82,408.37,66.35z"/>
		<path id="XMLID_1200_" style="fill:#CF8AFA;" d="M408.37,110.79v350.94C365.8,493.31,313.08,512,256,512
			c-57.28,0-110.18-18.82-152.83-50.61v-350.6H408.37z"/>
		<path id="XMLID_1140_" style="fill:#AC60FC;" d="M408.37,427.86v33.87C365.8,493.31,313.08,512,256,512
			c-57.28,0-110.18-18.82-152.83-50.61v-350.6h108.2v120.07c0,2.26,0.04,4.52,0.11,6.76c0.16,4.34,0.44,8.64,0.86,12.9
			c0.74,7.38,1.87,14.64,3.4,21.76c0.15,0.68,0.3,1.37,0.45,2.05c1.58,7.01,3.53,13.89,5.84,20.61c0.34,0.97,0.68,1.94,1.03,2.9
			c0.78,2.18,1.61,4.33,2.47,6.47c2.15,5.35,4.53,10.59,7.13,15.69c0.61,1.21,1.23,2.41,1.87,3.6h0.01
			c2.14,4.03,4.43,7.98,6.86,11.84c1.77,2.82,3.61,5.59,5.52,8.31c0,0.01,0.01,0.01,0.01,0.02c0.48,0.7,0.98,1.39,1.48,2.08
			c0.05,0.09,0.12,0.18,0.19,0.26c0.88,1.24,1.78,2.46,2.7,3.67c3.42,4.5,7.02,8.84,10.8,13.02c1.81,2.03,3.68,4.01,5.59,5.95
			c5.18,5.29,10.66,10.29,16.41,14.97c3.83,3.12,7.77,6.09,11.83,8.91c1.95,1.36,3.92,2.69,5.93,3.98
			c3.92,2.53,7.95,4.93,12.06,7.17c0.74,0.41,1.47,0.81,2.22,1.21c0.03,0.02,0.06,0.03,0.09,0.05c2.57,1.35,5.17,2.66,7.8,3.9
			c2.78,1.32,5.59,2.58,8.43,3.76c2.08,0.87,4.17,1.71,6.29,2.51c5.5,2.08,11.12,3.91,16.85,5.51c7.36,2.04,14.89,3.66,22.58,4.84
			C388.02,427.07,398.11,427.86,408.37,427.86z"/>
		<path id="XMLID_897_" style="fill:#CECECE;" d="M290.822,96.842h-70.091c-6.295,0-11.398-5.103-11.398-11.398v0
			c0-6.295,5.103-11.398,11.398-11.398h70.091c6.295,0,11.398,5.103,11.398,11.398v0C302.22,91.738,297.117,96.842,290.822,96.842z"
			/>
		<path id="XMLID_896_" style="fill:#B7B7B7;" d="M99.435,275.131h3.74V171.356h-3.74c-8.457,0-15.314,6.856-15.314,15.314v73.149
			C84.121,268.275,90.977,275.131,99.435,275.131z"/>
		<path id="XMLID_895_" style="fill:#B7B7B7;" d="M416.94,171.356h-8.563v40.83h8.563c5.136,0,9.3-4.164,9.3-9.3v-22.229
			C426.24,175.52,422.077,171.356,416.94,171.356z"/>
		<path id="XMLID_894_" style="fill:#B7B7B7;" d="M416.94,237.965h-8.563v40.83h8.563c5.136,0,9.3-4.164,9.3-9.3v-22.229
			C426.24,242.129,422.077,237.965,416.94,237.965z"/>
		<g id="XMLID_877_">
			<path id="XMLID_893_" style="fill:#CECECE;" d="M279.432,368.753H131.192c-5.982,0-10.831-4.849-10.831-10.831v-221.61
				c0-5.982,4.849-10.831,10.831-10.831h148.239c5.982,0,10.831,4.849,10.831,10.831v221.61
				C290.263,363.903,285.414,368.753,279.432,368.753z"/>
			<path id="XMLID_892_" style="fill:#FFFFFF;" d="M265.478,345.853H145.147c-4.856,0-8.792-3.936-8.792-8.792V157.172
				c0-4.856,3.936-8.792,8.792-8.792h120.331c4.856,0,8.792,3.936,8.792,8.792v179.889
				C274.269,341.917,270.333,345.853,265.478,345.853z"/>
			<path id="XMLID_891_" style="fill:#AFAEAE;" d="M290.263,319.998v37.925c0,5.983-4.853,10.829-10.829,10.829H131.191
				c-5.984,0-10.829-4.846-10.829-10.829v-221.61c0-5.983,4.846-10.829,10.829-10.829h37.43v183.685
				c0,5.983,4.853,10.829,10.829,10.829H290.263z"/>
			<path id="XMLID_890_" style="fill:#CECECE;" d="M274.27,319.998v17.064c0,4.853-3.937,8.791-8.791,8.791H145.145
				c-4.853,0-8.791-3.937-8.791-8.791V157.174c0-4.861,3.937-8.79,8.791-8.79h23.476v160.785c0,5.983,4.853,10.829,10.829,10.829
				H274.27z"/>
			<path id="XMLID_889_" style="fill:#DD1B1B;" d="M258.187,212.659L258.187,212.659c-12.736-12.736-33.385-12.736-46.121,0
				l-2.431,2.431c-2.508,2.508-6.574,2.508-9.082,0l-2.431-2.431c-12.736-12.736-33.385-12.736-46.121,0l0,0
				c-12.736,12.736-12.736,33.385,0,46.121l6.972,6.972l0,0l38.555,38.555c4.179,4.179,10.954,4.179,15.133,0l38.555-38.555v0
				l6.972-6.972C270.923,246.044,270.923,225.395,258.187,212.659z"/>
			<path id="XMLID_888_" style="fill:#DD1B1B;" d="M163.996,159.224L163.996,159.224c-2.862-2.862-7.503-2.862-10.365,0
				l-0.546,0.546c-0.564,0.564-1.477,0.564-2.041,0l-0.546-0.546c-2.862-2.862-7.503-2.862-10.365,0l0,0
				c-2.862,2.862-2.862,7.503,0,10.365l1.567,1.567l0,0l8.665,8.665c0.939,0.939,2.462,0.939,3.401,0l8.665-8.665v0l1.567-1.567
				C166.858,166.727,166.858,162.086,163.996,159.224z"/>
			<path id="XMLID_887_" style="fill:#DD1B1B;" d="M246.012,337.937L246.012,337.937c2.862,2.862,7.503,2.862,10.365,0l0.546-0.546
				c0.564-0.564,1.477-0.564,2.041,0l0.546,0.546c2.862,2.862,7.503,2.862,10.365,0l0,0c2.862-2.862,2.862-7.503,0-10.365
				l-1.567-1.567l0,0l-8.665-8.665c-0.939-0.939-2.462-0.939-3.401,0l-8.665,8.665v0l-1.567,1.567
				C243.15,330.434,243.15,335.075,246.012,337.937z"/>
			<path id="XMLID_886_" style="fill:#B71C1C;" d="M200.226,306.267c-0.972-0.493-1.882-1.148-2.696-1.961l-38.553-38.553
				l-6.974-6.974c-6.368-6.368-9.551-14.714-9.551-23.061c0-8.342,3.184-16.689,9.551-23.056
				c10.132-10.136,25.277-12.208,37.458-6.214c-6.328,12.502-9.89,26.64-9.89,41.61
				C179.571,270.124,187.315,290.383,200.226,306.267z"/>
			<g id="XMLID_882_">
				<path id="XMLID_883_" style="fill:#27273D;" d="M161.78,148.38c-0.6-1.6-1.38-3.66-2.35-6.18c-2.52-6.53-4.04-10.35-4.56-11.46
					c-0.17-0.35-0.35-0.53-0.55-0.53c-0.28,0-0.7,0.02-1.25,0.06c-0.56,0.03-0.98,0.05-1.27,0.05c-0.3,0-0.74-0.02-1.34-0.08
					c-0.6-0.05-1.05-0.08-1.33-0.08c-0.17,0-0.32,0.21-0.45,0.61c-0.22,0.7-1.63,4.57-4.23,11.6c-1.01,2.74-1.81,4.93-2.39,6.56
					c-0.81,2.25-1.21,3.46-1.21,3.62c0,0.31,0.81,0.46,2.43,0.46c2.06,0,3.27-0.04,3.63-0.13c0.29-0.07,0.53-0.55,0.74-1.43
					c0.22-0.97,0.42-1.53,0.6-1.7c0.12-0.1,1.08-0.15,2.88-0.15c2.68,0,4.1,0.04,4.27,0.11c0.2,0.11,0.48,0.93,0.84,2.46
					c0.1,0.4,0.33,0.64,0.69,0.71c0.43,0.09,1.41,0.13,2.93,0.13c1.65,0,2.64-0.04,2.96-0.13c0.26-0.07,0.4-0.2,0.4-0.4
					C163.22,152.31,162.74,150.94,161.78,148.38z M150.8,141.02c0.53-1.56,0.91-2.57,1.13-3.04c0.22,0.43,0.57,1.4,1.05,2.93
					c0.49,1.58,0.73,2.55,0.73,2.9c0,0.09-0.01,0.17-0.03,0.22c-0.07,0.17-0.46,0.26-1.16,0.26c-0.76,0-1.3-0.01-1.63-0.04
					c-0.63-0.02-0.95-0.12-0.95-0.31C149.94,143.65,150.22,142.68,150.8,141.02z"/>
			</g>
			<g id="XMLID_878_">
				<path id="XMLID_879_" style="fill:#27273D;" d="M266.72,342.73c-2.05,0-3.27,0.04-3.63,0.13c-0.28,0.07-0.53,0.55-0.73,1.43
					c-0.18,0.78-0.34,1.3-0.49,1.56c-0.04,0.07-0.07,0.12-0.11,0.15c-0.12,0.09-1.08,0.14-2.89,0.14c-2.67,0-4.09-0.04-4.26-0.11
					c-0.04-0.02-0.09-0.08-0.15-0.18c-0.18-0.33-0.42-1.09-0.7-2.27c-0.09-0.41-0.32-0.65-0.68-0.72c-0.43-0.09-1.35-0.13-2.8-0.13
					h-0.13c-1.66,0-2.64,0.04-2.96,0.13c-0.27,0.07-0.4,0.21-0.4,0.4c0,0.05,0.04,0.22,0.13,0.49c0,0.01,0.01,0.01,0.01,0.02
					c0.14,0.43,0.38,1.12,0.74,2.08c0.13,0.38,0.29,0.79,0.46,1.25c0.61,1.63,1.43,3.78,2.45,6.44c2.52,6.53,4.03,10.35,4.55,11.47
					c0.17,0.35,0.36,0.52,0.56,0.52c0.28,0,0.69-0.02,1.25-0.05c0.56-0.04,0.98-0.06,1.27-0.06s0.74,0.03,1.34,0.08
					c0.6,0.05,1.04,0.08,1.33,0.08c0.17,0,0.32-0.2,0.45-0.61c0.08-0.27,0.34-0.99,0.77-2.17c0.69-1.93,1.85-5.07,3.46-9.43
					c1.35-3.67,2.32-6.35,2.91-8.04c0.46-1.3,0.69-2.02,0.69-2.14C269.16,342.89,268.35,342.73,266.72,342.73z M256.33,351.71
					c0.07-0.17,0.46-0.25,1.16-0.25c0.75,0,1.29,0.01,1.62,0.03c0.64,0.02,0.96,0.13,0.96,0.32c0,0.28-0.29,1.26-0.86,2.91
					c-0.53,1.56-0.91,2.57-1.13,3.04c-0.22-0.42-0.57-1.4-1.05-2.93c-0.49-1.58-0.73-2.55-0.73-2.9
					C256.3,351.84,256.31,351.76,256.33,351.71z"/>
			</g>
		</g>
		<g id="XMLID_850_">
			<path id="XMLID_876_" style="fill:#CECECE;" d="M289.945,496.321l-134.929-61.393c-5.445-2.477-7.85-8.899-5.373-14.344
				l91.779-201.712c2.477-5.445,8.899-7.85,14.344-5.373l134.929,61.393c5.445,2.477,7.85,8.899,5.373,14.344l-91.779,201.712
				C301.812,496.393,295.39,498.798,289.945,496.321z"/>
			<path id="XMLID_875_" style="fill:#FFFFFF;" d="M286.728,469.698l-109.527-49.835c-4.42-2.011-6.372-7.224-4.361-11.643
				l74.5-163.737c2.011-4.42,7.224-6.372,11.643-4.361l109.527,49.835c4.42,2.011,6.372,7.224,4.361,11.643l-74.5,163.737
				C296.36,469.757,291.147,471.709,286.728,469.698z"/>
			<path id="XMLID_874_" style="fill:#AFAEAE;" d="M319.995,456.43l-15.706,34.52c-2.478,5.446-8.902,7.847-14.342,5.372
				l-134.932-61.394c-5.446-2.478-7.85-8.896-5.372-14.342l91.779-201.712c2.478-5.446,8.896-7.85,14.342-5.372l34.069,15.501
				L213.76,396.195c-2.478,5.446-0.067,11.867,5.372,14.342L319.995,456.43z"/>
			<path id="XMLID_873_" style="fill:#CECECE;" d="M305.438,449.806l-7.067,15.532c-2.01,4.417-7.224,6.371-11.642,4.361
				L177.2,419.863c-4.417-2.01-6.371-7.224-4.361-11.642l74.5-163.736c2.013-4.424,7.224-6.371,11.642-4.361l21.368,9.722
				L213.76,396.195c-2.478,5.446-0.067,11.867,5.372,14.342L305.438,449.806z"/>
			<g id="XMLID_869_">
				<path id="XMLID_870_" style="fill:#B71C1C;" d="M275.14,228.09c-0.01-0.39-0.1-0.62-0.29-0.71c-0.15-0.06-0.34-0.15-0.58-0.24
					c-0.17-0.07-0.36-0.14-0.58-0.22c-0.52-0.2-0.91-0.36-1.17-0.48c-0.27-0.12-0.67-0.33-1.19-0.63c-0.53-0.29-0.92-0.5-1.18-0.62
					c-0.15-0.07-0.37,0.05-0.66,0.37c-0.25,0.28-1.12,1.17-2.62,2.7c-1.44,1.46-3.45,3.49-6.04,6.11c-2.06,2.08-3.69,3.74-4.9,4.98
					c-1.66,1.71-2.52,2.64-2.59,2.79c-0.12,0.28,0.55,0.75,2.03,1.42c1.87,0.86,2.99,1.32,3.36,1.39c0.29,0.05,0.71-0.28,1.26-1
					c0.6-0.79,1.02-1.22,1.25-1.3c0.15-0.04,1.04,0.32,2.69,1.06c1.04,0.47,1.88,0.87,2.5,1.17c0.82,0.39,1.26,0.62,1.33,0.7
					c0.14,0.18,0.06,1.04-0.24,2.58c-0.08,0.41,0.02,0.72,0.32,0.94c0.36,0.26,1.23,0.7,2.62,1.33c1.5,0.68,2.42,1.05,2.74,1.11
					c0.28,0.04,0.45-0.02,0.53-0.2c0.07-0.16,0.2-1.6,0.39-4.33c0.05-0.68,0.1-1.43,0.15-2.27c0.08-1.26,0.17-2.71,0.27-4.33
					C274.96,233.43,275.16,229.32,275.14,228.09z M267.17,235.76c0.2-0.21,0.38-0.4,0.56-0.58c0.83-0.87,1.41-1.44,1.73-1.72
					c0.03,0.48-0.06,1.52-0.25,3.11c-0.21,1.64-0.39,2.62-0.54,2.94c-0.04,0.08-0.08,0.15-0.12,0.19c-0.13,0.11-0.47,0.05-1.04-0.2
					c-0.04-0.01-0.08-0.03-0.12-0.05c-0.69-0.31-1.18-0.55-1.47-0.7c-0.57-0.29-0.81-0.52-0.73-0.69
					C265.3,237.8,265.97,237.03,267.17,235.76z"/>
			</g>
			<g id="XMLID_855_">
				<path id="XMLID_866_" style="fill:#B71C1C;" d="M289.15,467.37c-1.87-0.85-2.99-1.31-3.35-1.38c-0.29-0.05-0.71,0.28-1.26,1
					c-0.5,0.64-0.86,1.05-1.11,1.21c-0.06,0.05-0.11,0.08-0.15,0.09c-0.14,0.04-1.04-0.32-2.68-1.07c-2.44-1.1-3.71-1.73-3.84-1.86
					c-0.03-0.04-0.05-0.11-0.06-0.22c-0.03-0.38,0.07-1.17,0.31-2.37c0.08-0.4-0.03-0.71-0.33-0.93c-0.36-0.26-1.23-0.7-2.61-1.33
					c-1.51-0.69-2.42-1.06-2.75-1.11c-0.27-0.04-0.45,0.02-0.53,0.2c-0.06,0.12-0.15,1.02-0.28,2.72c-0.13,1.82-0.31,4.56-0.53,8.21
					c-0.41,6.98-0.61,11.09-0.6,12.32c0.01,0.39,0.11,0.62,0.29,0.71c0.25,0.11,0.64,0.27,1.16,0.46c0.52,0.2,0.91,0.36,1.18,0.48
					s0.66,0.33,1.19,0.63c0.52,0.29,0.91,0.5,1.17,0.62c0.16,0.07,0.38-0.05,0.66-0.37c0.49-0.54,3.38-3.48,8.66-8.81
					c2.75-2.78,4.75-4.82,5.98-6.11c0.96-0.99,1.46-1.56,1.51-1.66C291.31,468.52,290.63,468.05,289.15,467.37z M277.35,475.17
					c-1.13,1.2-1.89,1.97-2.29,2.3c-0.03-0.48,0.06-1.51,0.26-3.1c0.21-1.64,0.39-2.62,0.53-2.94c0.04-0.09,0.08-0.15,0.12-0.19
					c0.14-0.12,0.53-0.04,1.17,0.25c0.68,0.31,1.17,0.55,1.46,0.7c0.57,0.29,0.82,0.51,0.74,0.69
					C279.22,473.14,278.56,473.9,277.35,475.17z"/>
			</g>
			<path id="XMLID_854_" style="fill:#32314B;" d="M323.952,370.283l-3.459-9.233l0,0l-19.126-51.06
				c-2.073-5.534-8.24-8.34-13.774-6.267l-51.06,19.126l-9.233,3.458c-16.867,6.318-25.419,25.113-19.101,41.98l0,0
				c5.628,15.025,21.156,23.441,36.403,20.637l-10.054,13.144c-1.315,1.719-0.69,4.214,1.28,5.11l21.55,9.805
				c1.97,0.896,4.261-0.272,4.694-2.392l3.305-16.215c7.902,13.337,24.449,19.515,39.474,13.887l0,0
				C321.718,405.945,330.27,387.15,323.952,370.283z"/>
			<path id="XMLID_853_" style="fill:#32314B;" d="M268.014,262.246l-0.697-1.861v0l-3.856-10.294
				c-0.418-1.116-1.661-1.681-2.777-1.264l-10.294,3.856l-1.861,0.697c-3.401,1.274-5.125,5.063-3.851,8.463v0
				c1.135,3.029,4.265,4.726,7.339,4.161l-2.027,2.65c-0.265,0.347-0.139,0.85,0.258,1.03l4.345,1.977
				c0.397,0.181,0.859-0.055,0.946-0.482l0.666-3.269c1.593,2.689,4.929,3.934,7.958,2.8l0,0
				C267.564,269.436,269.288,265.647,268.014,262.246z"/>
			<path id="XMLID_852_" style="fill:#32314B;" d="M276.87,447.401l0.697,1.861h0l3.856,10.294c0.418,1.116,1.661,1.681,2.777,1.263
				l10.294-3.856l1.861-0.697c3.401-1.274,5.125-5.063,3.851-8.463l0,0c-1.135-3.029-4.265-4.726-7.339-4.161l2.027-2.65
				c0.265-0.347,0.139-0.85-0.258-1.03l-4.345-1.977c-0.397-0.181-0.859,0.055-0.946,0.482l-0.666,3.269
				c-1.593-2.689-4.929-3.934-7.958-2.8l0,0C277.321,440.212,275.597,444.001,276.87,447.401z"/>
			<path id="XMLID_851_" style="fill:#27273D;" d="M290.862,303.056c-1.089,0.046-2.188,0.265-3.266,0.669l-51.058,19.125
				l-9.237,3.46c-8.433,3.159-14.788,9.437-18.244,17.034c-3.455,7.593-4.014,16.509-0.855,24.942
				c5.024,13.422,17.952,21.58,31.521,21.169c-0.582-14,2.031-28.344,8.23-41.969C257.093,327.399,272.532,312.166,290.862,303.056z
				"/>
		</g>
	</g>
</g>
</svg>
